<ttFont>
<head>
    <!-- Most of this table will be recalculated by the compiler -->
    <tableVersion value="1.0"/>
    <fontRevision value="1.0"/>
    <checkSumAdjustment value="0xb97bfc78"/>
    <magicNumber value="0x5f0f3cf5"/>
    <flags value="00000000 00011011"/>
    <unitsPerEm value="1000"/>
    <created value="Sat Dec  6 13:43:36 2025"/>
    <modified value="Sat Dec  6 13:50:54 2025"/>
    <xMin value="-75"/>
    <yMin value="-250"/>
    <xMax value="1278"/>
    <yMax value="750"/>
    <macStyle value="00000000 00000011"/>
    <lowestRecPPEM value="6"/>
    <fontDirectionHint value="2"/>
    <indexToLocFormat value="0"/>
    <glyphDataFormat value="0"/>
  </head>
    <TTGlyph name="A" xMin="41" yMin="0" xMax="835" yMax="698">
      <contour>
        <pt x="738" y="47" on="1"/>
        <pt x="835" y="47" on="1"/>
        <pt x="827" y="0" on="1"/>
        <pt x="814" y="1" on="0"/>
        <pt x="771" y="2" on="0"/>
        <pt x="725" y="3" on="0"/>
        <pt x="680" y="3" on="0"/>
        <pt x="665" y="3" on="1"/>
        <pt x="649" y="3" on="0"/>
        <pt x="600" y="3" on="0"/>
        <pt x="549" y="2" on="0"/>
        <pt x="502" y="1" on="0"/>
        <pt x="488" y="0" on="1"/>
        <pt x="495" y="47" on="1"/>
        <pt x="590" y="47" on="1"/>
        <pt x="555" y="193" on="1"/>
        <pt x="287" y="193" on="1"/>
        <pt x="210" y="58" on="1"/>
        <pt x="222" y="53" on="0"/>
        <pt x="234" y="51" on="0"/>
        <pt x="252" y="49" on="1"/>
        <pt x="266" y="47" on="0"/>
        <pt x="290" y="47" on="0"/>
        <pt x="298" y="47" on="1"/>
        <pt x="290" y="0" on="1"/>
        <pt x="262" y="2" on="0"/>
        <pt x="188" y="3" on="0"/>
        <pt x="159" y="3" on="1"/>
        <pt x="136" y="3" on="0"/>
        <pt x="72" y="1" on="0"/>
        <pt x="41" y="0" on="1"/>
        <pt x="49" y="47" on="1"/>
        <pt x="70" y="47" on="1"/>
        <pt x="97" y="47" on="0"/>
        <pt x="122" y="50" on="1"/>
        <pt x="141" y="52" on="0"/>
        <pt x="153" y="58" on="0"/>
        <pt x="159" y="69" on="1"/>
        <pt x="508" y="675" on="1"/>
        <pt x="518" y="692" on="0"/>
        <pt x="539" y="698" on="0"/>
        <pt x="550" y="698" on="1"/>
        <pt x="569" y="698" on="0"/>
        <pt x="581" y="688" on="0"/>
        <pt x="586" y="670" on="1"/>
      </contour>
      <contour>
        <pt x="315" y="240" on="1"/>
        <pt x="543" y="240" on="1"/>
        <pt x="475" y="518" on="1"/>
      </contour>
    </TTGlyph>
    <TTGlyph name="AE" xMin="41" yMin="0" xMax="1060" yMax="686">
      <contour>
        <pt x="211" y="58" on="1"/>
        <pt x="222" y="53" on="0"/>
        <pt x="234" y="51" on="0"/>
        <pt x="252" y="49" on="1"/>
        <pt x="267" y="47" on="0"/>
        <pt x="288" y="47" on="0"/>
        <pt x="298" y="47" on="1"/>
        <pt x="290" y="0" on="1"/>
        <pt x="262" y="2" on="0"/>
        <pt x="188" y="3" on="0"/>
        <pt x="159" y="3" on="1"/>
        <pt x="136" y="3" on="0"/>
        <pt x="72" y="1" on="0"/>
        <pt x="41" y="0" on="1"/>
        <pt x="49" y="47" on="1"/>
        <pt x="70" y="47" on="1"/>
        <pt x="78" y="47" on="0"/>
        <pt x="89" y="47" on="0"/>
        <pt x="100" y="48" on="0"/>
        <pt x="112" y="49" on="0"/>
        <pt x="121" y="50" on="1"/>
        <pt x="142" y="52" on="0"/>
        <pt x="153" y="58" on="0"/>
        <pt x="159" y="68" on="1"/>
        <pt x="494" y="639" on="1"/>
        <pt x="416" y="639" on="1"/>
        <pt x="424" y="686" on="1"/>
        <pt x="1060" y="686" on="1"/>
        <pt x="1051" y="445" on="1"/>
        <pt x="1004" y="445" on="1"/>
        <pt x="1005" y="453" on="0"/>
        <pt x="1005" y="478" on="0"/>
        <pt x="1005" y="483" on="1"/>
        <pt x="1005" y="518" on="0"/>
        <pt x="995" y="575" on="0"/>
        <pt x="962" y="616" on="0"/>
        <pt x="898" y="639" on="0"/>
        <pt x="844" y="639" on="1"/>
        <pt x="721" y="639" on="1"/>
        <pt x="673" y="353" on="1"/>
        <pt x="735" y="353" on="1"/>
        <pt x="766" y="353" on="0"/>
        <pt x="810" y="364" on="0"/>
        <pt x="840" y="391" on="0"/>
        <pt x="858" y="436" on="0"/>
        <pt x="862" y="470" on="1"/>
        <pt x="909" y="470" on="1"/>
        <pt x="863" y="189" on="1"/>
        <pt x="816" y="189" on="1"/>
        <pt x="818" y="200" on="0"/>
        <pt x="820" y="212" on="0"/>
        <pt x="821" y="221" on="0"/>
        <pt x="821" y="230" on="0"/>
        <pt x="821" y="237" on="1"/>
        <pt x="821" y="260" on="0"/>
        <pt x="806" y="287" on="0"/>
        <pt x="781" y="301" on="0"/>
        <pt x="747" y="306" on="0"/>
        <pt x="727" y="306" on="1"/>
        <pt x="665" y="306" on="1"/>
        <pt x="622" y="47" on="1"/>
        <pt x="750" y="47" on="1"/>
        <pt x="817" y="47" on="0"/>
        <pt x="901" y="80" on="0"/>
        <pt x="955" y="140" on="0"/>
        <pt x="990" y="224" on="0"/>
        <pt x="1008" y="274" on="1"/>
        <pt x="1055" y="274" on="1"/>
        <pt x="963" y="0" on="1"/>
        <pt x="401" y="0" on="1"/>
        <pt x="409" y="47" on="1"/>
        <pt x="490" y="47" on="1"/>
        <pt x="533" y="306" on="1"/>
        <pt x="356" y="306" on="1"/>
      </contour>
      <contour>
        <pt x="384" y="353" on="1"/>
        <pt x="541" y="353" on="1"/>
        <pt x="588" y="639" on="1"/>
        <pt x="552" y="639" on="1"/>
      </contour>
    </TTGlyph>
    <TTGlyph name="B" xMin="39" yMin="0" xMax="808" yMax="686">
      <contour>
        <pt x="587" y="686" on="1"/>
        <pt x="630" y="686" on="0"/>
        <pt x="710" y="669" on="0"/>
        <pt x="771" y="633" on="0"/>
        <pt x="808" y="576" on="0"/>
        <pt x="808" y="536" on="1"/>
        <pt x="808" y="474" on="0"/>
        <pt x="705" y="375" on="0"/>
        <pt x="608" y="358" on="1"/>
        <pt x="692" y="350" on="0"/>
        <pt x="786" y="272" on="0"/>
        <pt x="786" y="210" on="1"/>
        <pt x="786" y="175" on="0"/>
        <pt x="752" y="101" on="0"/>
        <pt x="682" y="39" on="0"/>
        <pt x="575" y="0" on="0"/>
        <pt x="503" y="0" on="1"/>
        <pt x="39" y="0" on="1"/>
        <pt x="46" y="47" on="1"/>
        <pt x="155" y="47" on="1"/>
        <pt x="253" y="639" on="1"/>
        <pt x="145" y="639" on="1"/>
        <pt x="153" y="686" on="1"/>
      </contour>
      <contour>
        <pt x="497" y="375" on="1"/>
        <pt x="539" y="375" on="0"/>
        <pt x="603" y="404" on="0"/>
        <pt x="646" y="451" on="0"/>
        <pt x="667" y="511" on="0"/>
        <pt x="667" y="542" on="1"/>
        <pt x="667" y="578" on="0"/>
        <pt x="641" y="618" on="0"/>
        <pt x="606" y="636" on="0"/>
        <pt x="573" y="639" on="0"/>
        <pt x="566" y="639" on="1"/>
        <pt x="385" y="639" on="1"/>
        <pt x="341" y="375" on="1"/>
      </contour>
      <contour>
        <pt x="470" y="47" on="1"/>
        <pt x="515" y="47" on="0"/>
        <pt x="579" y="78" on="0"/>
        <pt x="620" y="128" on="0"/>
        <pt x="640" y="192" on="0"/>
        <pt x="640" y="225" on="1"/>
        <pt x="640" y="268" on="0"/>
        <pt x="612" y="314" on="0"/>
        <pt x="574" y="335" on="0"/>
        <pt x="537" y="339" on="0"/>
        <pt x="529" y="339" on="1"/>
        <pt x="335" y="339" on="1"/>
        <pt x="286" y="47" on="1"/>
      </contour>
    </TTGlyph>
    <TTGlyph name="C" xMin="116" yMin="-11" xMax="880" yMax="697">
      <contour>
        <pt x="841" y="448" on="1"/>
        <pt x="838" y="432" on="0"/>
        <pt x="830" y="426" on="0"/>
        <pt x="813" y="426" on="1"/>
        <pt x="803" y="426" on="0"/>
        <pt x="782" y="433" on="0"/>
        <pt x="787" y="453" on="1"/>
        <pt x="785" y="506" on="0"/>
        <pt x="750" y="581" on="0"/>
        <pt x="698" y="628" on="0"/>
        <pt x="632" y="650" on="0"/>
        <pt x="598" y="650" on="1"/>
        <pt x="525" y="650" on="0"/>
        <pt x="393" y="595" on="0"/>
        <pt x="351" y="542" on="1"/>
        <pt x="319" y="500" on="0"/>
        <pt x="284" y="398" on="0"/>
        <pt x="268" y="308" on="0"/>
        <pt x="265" y="245" on="0"/>
        <pt x="265" y="243" on="1"/>
        <pt x="265" y="189" on="0"/>
        <pt x="297" y="111" on="0"/>
        <pt x="357" y="60" on="0"/>
        <pt x="441" y="36" on="0"/>
        <pt x="493" y="36" on="1"/>
        <pt x="527" y="36" on="0"/>
        <pt x="608" y="56" on="0"/>
        <pt x="684" y="103" on="0"/>
        <pt x="745" y="179" on="0"/>
        <pt x="758" y="234" on="1"/>
        <pt x="760" y="245" on="0"/>
        <pt x="772" y="248" on="0"/>
        <pt x="782" y="248" on="1"/>
        <pt x="790" y="248" on="0"/>
        <pt x="805" y="244" on="0"/>
        <pt x="805" y="233" on="1"/>
        <pt x="805" y="233" on="0"/>
        <pt x="800" y="202" on="0"/>
        <pt x="779" y="154" on="0"/>
        <pt x="737" y="95" on="0"/>
        <pt x="701" y="66" on="1"/>
        <pt x="656" y="32" on="0"/>
        <pt x="538" y="-11" on="0"/>
        <pt x="467" y="-11" on="1"/>
        <pt x="390" y="-11" on="0"/>
        <pt x="261" y="27" on="0"/>
        <pt x="168" y="102" on="0"/>
        <pt x="116" y="212" on="0"/>
        <pt x="116" y="284" on="1"/>
        <pt x="116" y="360" on="0"/>
        <pt x="177" y="508" on="0"/>
        <pt x="295" y="625" on="0"/>
        <pt x="467" y="697" on="0"/>
        <pt x="579" y="697" on="1"/>
        <pt x="589" y="697" on="0"/>
        <pt x="629" y="695" on="0"/>
        <pt x="680" y="682" on="0"/>
        <pt x="738" y="655" on="0"/>
        <pt x="766" y="629" on="1"/>
        <pt x="855" y="697" on="1"/>
        <pt x="863" y="697" on="0"/>
        <pt x="880" y="693" on="0"/>
        <pt x="880" y="682" on="1"/>
        <pt x="880" y="681" on="0"/>
        <pt x="880" y="678" on="0"/>
        <pt x="878" y="670" on="1"/>
      </contour>
    </TTGlyph>
    <TTGlyph name="D" xMin="39" yMin="0" xMax="879" yMax="686">
      <contour>
        <pt x="584" y="686" on="1"/>
        <pt x="635" y="686" on="0"/>
        <pt x="739" y="659" on="0"/>
        <pt x="825" y="594" on="0"/>
        <pt x="879" y="487" on="0"/>
        <pt x="879" y="407" on="1"/>
        <pt x="879" y="325" on="0"/>
        <pt x="821" y="177" on="0"/>
        <pt x="715" y="66" on="0"/>
        <pt x="563" y="0" on="0"/>
        <pt x="470" y="0" on="1"/>
        <pt x="39" y="0" on="1"/>
        <pt x="46" y="47" on="1"/>
        <pt x="155" y="47" on="1"/>
        <pt x="253" y="639" on="1"/>
        <pt x="145" y="639" on="1"/>
        <pt x="153" y="686" on="1"/>
      </contour>
      <contour>
        <pt x="437" y="47" on="1"/>
        <pt x="494" y="47" on="0"/>
        <pt x="578" y="74" on="0"/>
        <pt x="639" y="118" on="0"/>
        <pt x="677" y="172" on="0"/>
        <pt x="702" y="225" on="0"/>
        <pt x="714" y="272" on="0"/>
        <pt x="717" y="286" on="1"/>
        <pt x="718" y="291" on="0"/>
        <pt x="725" y="327" on="0"/>
        <pt x="732" y="376" on="0"/>
        <pt x="738" y="430" on="0"/>
        <pt x="738" y="452" on="1"/>
        <pt x="738" y="550" on="0"/>
        <pt x="628" y="639" on="0"/>
        <pt x="535" y="639" on="1"/>
        <pt x="390" y="639" on="1"/>
        <pt x="291" y="47" on="1"/>
      </contour>
    </TTGlyph>
    <TTGlyph name="E" xMin="39" yMin="0" xMax="773" yMax="680">
      <contour>
        <pt x="677" y="0" on="1"/>
        <pt x="39" y="0" on="1"/>
        <pt x="46" y="47" on="1"/>
        <pt x="155" y="47" on="1"/>
        <pt x="252" y="633" on="1"/>
        <pt x="144" y="633" on="1"/>
        <pt x="152" y="680" on="1"/>
        <pt x="773" y="680" on="1"/>
        <pt x="764" y="439" on="1"/>
        <pt x="717" y="439" on="1"/>
        <pt x="718" y="446" on="0"/>
        <pt x="718" y="465" on="0"/>
        <pt x="718" y="472" on="1"/>
        <pt x="718" y="513" on="0"/>
        <pt x="703" y="574" on="0"/>
        <pt x="664" y="614" on="0"/>
        <pt x="598" y="633" on="0"/>
        <pt x="547" y="633" on="1"/>
        <pt x="395" y="633" on="1"/>
        <pt x="352" y="376" on="1"/>
        <pt x="407" y="376" on="1"/>
        <pt x="440" y="376" on="0"/>
        <pt x="484" y="389" on="0"/>
        <pt x="512" y="418" on="0"/>
        <pt x="528" y="462" on="0"/>
        <pt x="532" y="493" on="1"/>
        <pt x="579" y="493" on="1"/>
        <pt x="532" y="212" on="1"/>
        <pt x="485" y="212" on="1"/>
        <pt x="490" y="232" on="0"/>
        <pt x="491" y="258" on="0"/>
        <pt x="491" y="260" on="1"/>
        <pt x="491" y="282" on="0"/>
        <pt x="477" y="309" on="0"/>
        <pt x="452" y="324" on="0"/>
        <pt x="419" y="329" on="0"/>
        <pt x="399" y="329" on="1"/>
        <pt x="344" y="329" on="1"/>
        <pt x="297" y="47" on="1"/>
        <pt x="449" y="47" on="1"/>
        <pt x="521" y="47" on="0"/>
        <pt x="612" y="82" on="0"/>
        <pt x="670" y="143" on="0"/>
        <pt x="705" y="226" on="0"/>
        <pt x="722" y="274" on="1"/>
        <pt x="769" y="274" on="1"/>
      </contour>
    </TTGlyph>
    <TTGlyph name="F" xMin="39" yMin="0" xMax="757" yMax="680">
      <contour>
        <pt x="297" y="47" on="1"/>
        <pt x="432" y="47" on="1"/>
        <pt x="424" y="0" on="1"/>
        <pt x="408" y="1" on="0"/>
        <pt x="354" y="2" on="0"/>
        <pt x="296" y="3" on="0"/>
        <pt x="241" y="3" on="0"/>
        <pt x="223" y="3" on="1"/>
        <pt x="207" y="3" on="0"/>
        <pt x="156" y="3" on="0"/>
        <pt x="102" y="2" on="0"/>
        <pt x="53" y="1" on="0"/>
        <pt x="39" y="0" on="1"/>
        <pt x="46" y="47" on="1"/>
        <pt x="155" y="47" on="1"/>
        <pt x="252" y="633" on="1"/>
        <pt x="144" y="633" on="1"/>
        <pt x="152" y="680" on="1"/>
        <pt x="757" y="680" on="1"/>
        <pt x="748" y="439" on="1"/>
        <pt x="701" y="439" on="1"/>
        <pt x="702" y="447" on="0"/>
        <pt x="702" y="473" on="0"/>
        <pt x="702" y="475" on="1"/>
        <pt x="702" y="514" on="0"/>
        <pt x="689" y="573" on="0"/>
        <pt x="652" y="613" on="0"/>
        <pt x="586" y="633" on="0"/>
        <pt x="534" y="633" on="1"/>
        <pt x="395" y="633" on="1"/>
        <pt x="350" y="364" on="1"/>
        <pt x="400" y="364" on="1"/>
        <pt x="432" y="364" on="0"/>
        <pt x="476" y="377" on="0"/>
        <pt x="504" y="405" on="0"/>
        <pt x="520" y="449" on="0"/>
        <pt x="524" y="481" on="1"/>
        <pt x="571" y="481" on="1"/>
        <pt x="524" y="200" on="1"/>
        <pt x="477" y="200" on="1"/>
        <pt x="482" y="222" on="0"/>
        <pt x="483" y="248" on="0"/>
        <pt x="483" y="249" on="1"/>
        <pt x="483" y="291" on="0"/>
        <pt x="434" y="317" on="0"/>
        <pt x="392" y="317" on="1"/>
        <pt x="342" y="317" on="1"/>
      </contour>
    </TTGlyph>
    <TTGlyph name="G" xMin="116" yMin="-11" xMax="891" yMax="697">
      <contour>
        <pt x="769" y="22" on="1"/>
        <pt x="767" y="13" on="0"/>
        <pt x="762" y="0" on="0"/>
        <pt x="753" y="0" on="1"/>
        <pt x="751" y="0" on="0"/>
        <pt x="731" y="9" on="0"/>
        <pt x="704" y="23" on="0"/>
        <pt x="675" y="42" on="0"/>
        <pt x="664" y="52" on="1"/>
        <pt x="624" y="16" on="0"/>
        <pt x="522" y="-11" on="0"/>
        <pt x="468" y="-11" on="1"/>
        <pt x="389" y="-11" on="0"/>
        <pt x="259" y="28" on="0"/>
        <pt x="167" y="103" on="0"/>
        <pt x="116" y="213" on="0"/>
        <pt x="116" y="284" on="1"/>
        <pt x="116" y="359" on="0"/>
        <pt x="176" y="507" on="0"/>
        <pt x="293" y="624" on="0"/>
        <pt x="466" y="697" on="0"/>
        <pt x="579" y="697" on="1"/>
        <pt x="631" y="697" on="0"/>
        <pt x="726" y="665" on="0"/>
        <pt x="765" y="629" on="1"/>
        <pt x="854" y="697" on="1"/>
        <pt x="862" y="697" on="0"/>
        <pt x="879" y="693" on="0"/>
        <pt x="879" y="682" on="1"/>
        <pt x="879" y="681" on="0"/>
        <pt x="879" y="678" on="0"/>
        <pt x="877" y="670" on="1"/>
        <pt x="840" y="448" on="1"/>
        <pt x="837" y="432" on="0"/>
        <pt x="829" y="426" on="0"/>
        <pt x="812" y="426" on="1"/>
        <pt x="802" y="426" on="0"/>
        <pt x="781" y="433" on="0"/>
        <pt x="786" y="453" on="1"/>
        <pt x="785" y="502" on="0"/>
        <pt x="753" y="576" on="0"/>
        <pt x="702" y="625" on="0"/>
        <pt x="635" y="650" on="0"/>
        <pt x="597" y="650" on="1"/>
        <pt x="576" y="650" on="0"/>
        <pt x="514" y="642" on="0"/>
        <pt x="446" y="619" on="0"/>
        <pt x="378" y="576" on="0"/>
        <pt x="350" y="541" on="1"/>
        <pt x="319" y="502" on="0"/>
        <pt x="285" y="402" on="0"/>
        <pt x="268" y="313" on="0"/>
        <pt x="265" y="249" on="0"/>
        <pt x="265" y="245" on="1"/>
        <pt x="265" y="187" on="0"/>
        <pt x="295" y="117" on="0"/>
        <pt x="324" y="90" on="1"/>
        <pt x="356" y="62" on="0"/>
        <pt x="450" y="36" on="0"/>
        <pt x="497" y="36" on="1"/>
        <pt x="530" y="36" on="0"/>
        <pt x="584" y="51" on="0"/>
        <pt x="603" y="64" on="1"/>
        <pt x="616" y="73" on="0"/>
        <pt x="631" y="89" on="0"/>
        <pt x="640" y="108" on="0"/>
        <pt x="644" y="131" on="0"/>
        <pt x="647" y="145" on="1"/>
        <pt x="651" y="166" on="0"/>
        <pt x="657" y="208" on="0"/>
        <pt x="661" y="229" on="1"/>
        <pt x="518" y="229" on="1"/>
        <pt x="525" y="276" on="1"/>
        <pt x="526" y="276" on="1"/>
        <pt x="543" y="275" on="0"/>
        <pt x="596" y="274" on="0"/>
        <pt x="655" y="273" on="0"/>
        <pt x="710" y="273" on="0"/>
        <pt x="729" y="273" on="1"/>
        <pt x="744" y="273" on="0"/>
        <pt x="788" y="273" on="0"/>
        <pt x="835" y="274" on="0"/>
        <pt x="878" y="275" on="0"/>
        <pt x="891" y="276" on="1"/>
        <pt x="883" y="229" on="1"/>
        <pt x="803" y="229" on="1"/>
      </contour>
    </TTGlyph>
    <TTGlyph name="Gamma" xMin="39" yMin="0" xMax="725" yMax="680">
      <contour>
        <pt x="297" y="47" on="1"/>
        <pt x="432" y="47" on="1"/>
        <pt x="424" y="0" on="1"/>
        <pt x="408" y="1" on="0"/>
        <pt x="354" y="2" on="0"/>
        <pt x="296" y="3" on="0"/>
        <pt x="241" y="3" on="0"/>
        <pt x="223" y="3" on="1"/>
        <pt x="207" y="3" on="0"/>
        <pt x="156" y="3" on="0"/>
        <pt x="102" y="2" on="0"/>
        <pt x="53" y="1" on="0"/>
        <pt x="39" y="0" on="1"/>
        <pt x="46" y="47" on="1"/>
        <pt x="155" y="47" on="1"/>
        <pt x="252" y="633" on="1"/>
        <pt x="144" y="633" on="1"/>
        <pt x="152" y="680" on="1"/>
        <pt x="725" y="680" on="1"/>
        <pt x="716" y="439" on="1"/>
        <pt x="669" y="439" on="1"/>
        <pt x="670" y="447" on="0"/>
        <pt x="670" y="470" on="0"/>
        <pt x="670" y="478" on="1"/>
        <pt x="670" y="513" on="0"/>
        <pt x="660" y="570" on="0"/>
        <pt x="627" y="610" on="0"/>
        <pt x="564" y="633" on="0"/>
        <pt x="510" y="633" on="1"/>
        <pt x="395" y="633" on="1"/>
      </contour>
    </TTGlyph>
    <TTGlyph name="H" xMin="39" yMin="0" xMax="975" yMax="686">
      <contour>
        <pt x="760" y="47" on="1"/>
        <pt x="868" y="47" on="1"/>
        <pt x="860" y="0" on="1"/>
        <pt x="846" y="1" on="0"/>
        <pt x="798" y="2" on="0"/>
        <pt x="746" y="3" on="0"/>
        <pt x="697" y="3" on="0"/>
        <pt x="681" y="3" on="1"/>
        <pt x="665" y="3" on="0"/>
        <pt x="616" y="3" on="0"/>
        <pt x="564" y="2" on="0"/>
        <pt x="516" y="1" on="0"/>
        <pt x="502" y="0" on="1"/>
        <pt x="509" y="47" on="1"/>
        <pt x="618" y="47" on="1"/>
        <pt x="665" y="333" on="1"/>
        <pt x="345" y="333" on="1"/>
        <pt x="297" y="47" on="1"/>
        <pt x="405" y="47" on="1"/>
        <pt x="397" y="0" on="1"/>
        <pt x="383" y="1" on="0"/>
        <pt x="335" y="2" on="0"/>
        <pt x="283" y="3" on="0"/>
        <pt x="234" y="3" on="0"/>
        <pt x="218" y="3" on="1"/>
        <pt x="202" y="3" on="0"/>
        <pt x="153" y="3" on="0"/>
        <pt x="101" y="2" on="0"/>
        <pt x="53" y="1" on="0"/>
        <pt x="39" y="0" on="1"/>
        <pt x="46" y="47" on="1"/>
        <pt x="155" y="47" on="1"/>
        <pt x="253" y="639" on="1"/>
        <pt x="145" y="639" on="1"/>
        <pt x="153" y="686" on="1"/>
        <pt x="167" y="685" on="0"/>
        <pt x="215" y="684" on="0"/>
        <pt x="267" y="683" on="0"/>
        <pt x="316" y="683" on="0"/>
        <pt x="332" y="683" on="1"/>
        <pt x="348" y="683" on="0"/>
        <pt x="398" y="683" on="0"/>
        <pt x="450" y="684" on="0"/>
        <pt x="498" y="685" on="0"/>
        <pt x="512" y="686" on="1"/>
        <pt x="504" y="639" on="1"/>
        <pt x="396" y="639" on="1"/>
        <pt x="353" y="380" on="1"/>
        <pt x="673" y="380" on="1"/>
        <pt x="716" y="639" on="1"/>
        <pt x="608" y="639" on="1"/>
        <pt x="616" y="686" on="1"/>
        <pt x="630" y="685" on="0"/>
        <pt x="678" y="684" on="0"/>
        <pt x="730" y="683" on="0"/>
        <pt x="779" y="683" on="0"/>
        <pt x="795" y="683" on="1"/>
        <pt x="811" y="683" on="0"/>
        <pt x="861" y="683" on="0"/>
        <pt x="913" y="684" on="0"/>
        <pt x="961" y="685" on="0"/>
        <pt x="975" y="686" on="1"/>
        <pt x="967" y="639" on="1"/>
        <pt x="859" y="639" on="1"/>
      </contour>
    </TTGlyph>
    <TTGlyph name="I" xMin="33" yMin="0" xMax="517" yMax="686">
      <contour>
        <pt x="297" y="47" on="1"/>
        <pt x="411" y="47" on="1"/>
        <pt x="402" y="0" on="1"/>
        <pt x="388" y="1" on="0"/>
        <pt x="339" y="2" on="0"/>
        <pt x="285" y="3" on="0"/>
        <pt x="235" y="3" on="0"/>
        <pt x="218" y="3" on="1"/>
        <pt x="201" y="3" on="0"/>
        <pt x="150" y="3" on="0"/>
        <pt x="97" y="2" on="0"/>
        <pt x="48" y="1" on="0"/>
        <pt x="33" y="0" on="1"/>
        <pt x="41" y="47" on="1"/>
        <pt x="155" y="47" on="1"/>
        <pt x="253" y="639" on="1"/>
        <pt x="140" y="639" on="1"/>
        <pt x="148" y="686" on="1"/>
        <pt x="162" y="685" on="0"/>
        <pt x="211" y="684" on="0"/>
        <pt x="265" y="683" on="0"/>
        <pt x="316" y="683" on="0"/>
        <pt x="332" y="683" on="1"/>
        <pt x="349" y="683" on="0"/>
        <pt x="400" y="683" on="0"/>
        <pt x="454" y="684" on="0"/>
        <pt x="503" y="685" on="0"/>
        <pt x="517" y="686" on="1"/>
        <pt x="509" y="639" on="1"/>
        <pt x="396" y="639" on="1"/>
      </contour>
    </TTGlyph>
    <TTGlyph name="J" xMin="41" yMin="-11" xMax="642" yMax="686">
      <contour>
        <pt x="471" y="146" on="1"/>
        <pt x="465" y="111" on="0"/>
        <pt x="425" y="53" on="0"/>
        <pt x="360" y="12" on="0"/>
        <pt x="272" y="-11" on="0"/>
        <pt x="218" y="-11" on="1"/>
        <pt x="137" y="-11" on="0"/>
        <pt x="41" y="47" on="0"/>
        <pt x="41" y="100" on="1"/>
        <pt x="41" y="123" on="0"/>
        <pt x="57" y="158" on="0"/>
        <pt x="83" y="180" on="0"/>
        <pt x="113" y="191" on="0"/>
        <pt x="128" y="191" on="1"/>
        <pt x="139" y="191" on="0"/>
        <pt x="163" y="184" on="0"/>
        <pt x="183" y="168" on="0"/>
        <pt x="196" y="143" on="0"/>
        <pt x="196" y="125" on="1"/>
        <pt x="196" y="119" on="0"/>
        <pt x="192" y="97" on="0"/>
        <pt x="180" y="73" on="0"/>
        <pt x="156" y="49" on="0"/>
        <pt x="135" y="41" on="1"/>
        <pt x="161" y="30" on="0"/>
        <pt x="204" y="25" on="0"/>
        <pt x="212" y="25" on="1"/>
        <pt x="238" y="25" on="0"/>
        <pt x="280" y="44" on="0"/>
        <pt x="310" y="77" on="0"/>
        <pt x="330" y="121" on="0"/>
        <pt x="334" y="146" on="1"/>
        <pt x="416" y="639" on="1"/>
        <pt x="276" y="639" on="1"/>
        <pt x="283" y="686" on="1"/>
        <pt x="284" y="686" on="1"/>
        <pt x="301" y="685" on="0"/>
        <pt x="353" y="684" on="0"/>
        <pt x="410" y="683" on="0"/>
        <pt x="464" y="683" on="0"/>
        <pt x="482" y="683" on="1"/>
        <pt x="497" y="683" on="0"/>
        <pt x="541" y="683" on="0"/>
        <pt x="586" y="684" on="0"/>
        <pt x="629" y="685" on="0"/>
        <pt x="642" y="686" on="1"/>
        <pt x="634" y="639" on="1"/>
        <pt x="553" y="639" on="1"/>
      </contour>
    </TTGlyph>
    <TTGlyph name="K" xMin="39" yMin="0" xMax="950" yMax="686">
      <contour>
        <pt x="766" y="66" on="1"/>
        <pt x="769" y="61" on="0"/>
        <pt x="775" y="54" on="0"/>
        <pt x="788" y="49" on="0"/>
        <pt x="811" y="47" on="0"/>
        <pt x="831" y="47" on="1"/>
        <pt x="860" y="47" on="1"/>
        <pt x="852" y="0" on="1"/>
        <pt x="838" y="1" on="0"/>
        <pt x="800" y="2" on="0"/>
        <pt x="760" y="3" on="0"/>
        <pt x="721" y="3" on="0"/>
        <pt x="706" y="3" on="1"/>
        <pt x="689" y="3" on="0"/>
        <pt x="641" y="3" on="0"/>
        <pt x="592" y="2" on="0"/>
        <pt x="545" y="1" on="0"/>
        <pt x="530" y="0" on="1"/>
        <pt x="538" y="47" on="1"/>
        <pt x="547" y="47" on="0"/>
        <pt x="572" y="47" on="0"/>
        <pt x="595" y="49" on="0"/>
        <pt x="612" y="54" on="0"/>
        <pt x="612" y="58" on="1"/>
        <pt x="612" y="60" on="0"/>
        <pt x="609" y="67" on="0"/>
        <pt x="607" y="69" on="1"/>
        <pt x="445" y="340" on="1"/>
        <pt x="332" y="258" on="1"/>
        <pt x="297" y="47" on="1"/>
        <pt x="405" y="47" on="1"/>
        <pt x="397" y="0" on="1"/>
        <pt x="383" y="1" on="0"/>
        <pt x="335" y="2" on="0"/>
        <pt x="283" y="3" on="0"/>
        <pt x="234" y="3" on="0"/>
        <pt x="218" y="3" on="1"/>
        <pt x="202" y="3" on="0"/>
        <pt x="153" y="3" on="0"/>
        <pt x="101" y="2" on="0"/>
        <pt x="53" y="1" on="0"/>
        <pt x="39" y="0" on="1"/>
        <pt x="46" y="47" on="1"/>
        <pt x="155" y="47" on="1"/>
        <pt x="253" y="639" on="1"/>
        <pt x="145" y="639" on="1"/>
        <pt x="153" y="686" on="1"/>
        <pt x="167" y="685" on="0"/>
        <pt x="215" y="684" on="0"/>
        <pt x="267" y="683" on="0"/>
        <pt x="316" y="683" on="0"/>
        <pt x="332" y="683" on="1"/>
        <pt x="348" y="683" on="0"/>
        <pt x="398" y="683" on="0"/>
        <pt x="450" y="684" on="0"/>
        <pt x="498" y="685" on="0"/>
        <pt x="512" y="686" on="1"/>
        <pt x="504" y="639" on="1"/>
        <pt x="396" y="639" on="1"/>
        <pt x="342" y="319" on="1"/>
        <pt x="764" y="628" on="1"/>
        <pt x="764" y="629" on="1"/>
        <pt x="744" y="637" on="0"/>
        <pt x="711" y="639" on="0"/>
        <pt x="694" y="639" on="1"/>
        <pt x="702" y="686" on="1"/>
        <pt x="716" y="685" on="0"/>
        <pt x="754" y="684" on="0"/>
        <pt x="795" y="683" on="0"/>
        <pt x="834" y="683" on="0"/>
        <pt x="848" y="683" on="1"/>
        <pt x="869" y="683" on="0"/>
        <pt x="924" y="684" on="0"/>
        <pt x="950" y="686" on="1"/>
        <pt x="943" y="639" on="1"/>
        <pt x="925" y="639" on="1"/>
        <pt x="900" y="639" on="0"/>
        <pt x="848" y="635" on="0"/>
        <pt x="829" y="621" on="1"/>
        <pt x="555" y="421" on="1"/>
      </contour>
    </TTGlyph>
    <TTGlyph name="L" xMin="39" yMin="0" xMax="689" yMax="686">
      <contour>
        <pt x="612" y="0" on="1"/>
        <pt x="39" y="0" on="1"/>
        <pt x="46" y="47" on="1"/>
        <pt x="155" y="47" on="1"/>
        <pt x="253" y="639" on="1"/>
        <pt x="145" y="639" on="1"/>
        <pt x="153" y="686" on="1"/>
        <pt x="167" y="685" on="0"/>
        <pt x="216" y="684" on="0"/>
        <pt x="269" y="683" on="0"/>
        <pt x="320" y="683" on="0"/>
        <pt x="336" y="683" on="1"/>
        <pt x="356" y="683" on="0"/>
        <pt x="411" y="683" on="0"/>
        <pt x="468" y="684" on="0"/>
        <pt x="521" y="685" on="0"/>
        <pt x="539" y="686" on="1"/>
        <pt x="531" y="639" on="1"/>
        <pt x="396" y="639" on="1"/>
        <pt x="297" y="47" on="1"/>
        <pt x="400" y="47" on="1"/>
        <pt x="467" y="47" on="0"/>
        <pt x="554" y="98" on="0"/>
        <pt x="607" y="170" on="0"/>
        <pt x="635" y="248" on="0"/>
        <pt x="642" y="274" on="1"/>
        <pt x="689" y="274" on="1"/>
      </contour>
    </TTGlyph>
    <TTGlyph name="Lambda" xMin="40" yMin="0" xMax="773" yMax="698">
      <contour>
        <pt x="687" y="47" on="1"/>
        <pt x="773" y="47" on="1"/>
        <pt x="765" y="0" on="1"/>
        <pt x="752" y="1" on="0"/>
        <pt x="711" y="2" on="0"/>
        <pt x="666" y="3" on="0"/>
        <pt x="624" y="3" on="0"/>
        <pt x="609" y="3" on="1"/>
        <pt x="592" y="3" on="0"/>
        <pt x="544" y="3" on="0"/>
        <pt x="493" y="2" on="0"/>
        <pt x="446" y="1" on="0"/>
        <pt x="431" y="0" on="1"/>
        <pt x="439" y="47" on="1"/>
        <pt x="535" y="47" on="1"/>
        <pt x="438" y="499" on="1"/>
        <pt x="197" y="58" on="1"/>
        <pt x="216" y="50" on="0"/>
        <pt x="266" y="47" on="0"/>
        <pt x="286" y="47" on="1"/>
        <pt x="278" y="0" on="1"/>
        <pt x="251" y="2" on="0"/>
        <pt x="177" y="3" on="0"/>
        <pt x="149" y="3" on="1"/>
        <pt x="119" y="3" on="0"/>
        <pt x="60" y="1" on="0"/>
        <pt x="40" y="0" on="1"/>
        <pt x="48" y="47" on="1"/>
        <pt x="89" y="47" on="0"/>
        <pt x="137" y="52" on="0"/>
        <pt x="145" y="67" on="1"/>
        <pt x="476" y="673" on="1"/>
        <pt x="487" y="692" on="0"/>
        <pt x="507" y="698" on="0"/>
        <pt x="518" y="698" on="1"/>
        <pt x="540" y="698" on="0"/>
        <pt x="549" y="686" on="0"/>
        <pt x="553" y="669" on="1"/>
      </contour>
    </TTGlyph>
    <TTGlyph name="M" xMin="40" yMin="0" xMax="1166" yMax="686">
      <contour>
        <pt x="897" y="662" on="1"/>
        <pt x="908" y="680" on="0"/>
        <pt x="927" y="686" on="0"/>
        <pt x="944" y="686" on="1"/>
        <pt x="1166" y="686" on="1"/>
        <pt x="1158" y="639" on="1"/>
        <pt x="1050" y="639" on="1"/>
        <pt x="951" y="47" on="1"/>
        <pt x="1059" y="47" on="1"/>
        <pt x="1051" y="0" on="1"/>
        <pt x="1038" y="1" on="0"/>
        <pt x="993" y="2" on="0"/>
        <pt x="943" y="3" on="0"/>
        <pt x="896" y="3" on="0"/>
        <pt x="881" y="3" on="1"/>
        <pt x="866" y="3" on="0"/>
        <pt x="818" y="3" on="0"/>
        <pt x="769" y="2" on="0"/>
        <pt x="724" y="1" on="0"/>
        <pt x="710" y="0" on="1"/>
        <pt x="717" y="47" on="1"/>
        <pt x="826" y="47" on="1"/>
        <pt x="924" y="637" on="1"/>
        <pt x="923" y="638" on="1"/>
        <pt x="541" y="23" on="1"/>
        <pt x="537" y="16" on="0"/>
        <pt x="522" y="0" on="0"/>
        <pt x="507" y="0" on="1"/>
        <pt x="491" y="0" on="0"/>
        <pt x="482" y="16" on="0"/>
        <pt x="478" y="29" on="1"/>
        <pt x="307" y="625" on="1"/>
        <pt x="306" y="625" on="1"/>
        <pt x="211" y="57" on="1"/>
        <pt x="230" y="49" on="0"/>
        <pt x="278" y="47" on="0"/>
        <pt x="291" y="47" on="1"/>
        <pt x="317" y="47" on="1"/>
        <pt x="309" y="0" on="1"/>
        <pt x="295" y="1" on="0"/>
        <pt x="260" y="2" on="0"/>
        <pt x="224" y="3" on="0"/>
        <pt x="190" y="3" on="0"/>
        <pt x="175" y="3" on="1"/>
        <pt x="143" y="3" on="0"/>
        <pt x="71" y="2" on="0"/>
        <pt x="40" y="0" on="1"/>
        <pt x="47" y="47" on="1"/>
        <pt x="73" y="47" on="1"/>
        <pt x="78" y="47" on="0"/>
        <pt x="98" y="47" on="0"/>
        <pt x="122" y="49" on="0"/>
        <pt x="148" y="53" on="0"/>
        <pt x="157" y="57" on="1"/>
        <pt x="254" y="639" on="1"/>
        <pt x="146" y="639" on="1"/>
        <pt x="154" y="686" on="1"/>
        <pt x="377" y="686" on="1"/>
        <pt x="400" y="686" on="0"/>
        <pt x="412" y="676" on="0"/>
        <pt x="416" y="659" on="1"/>
        <pt x="568" y="132" on="1"/>
      </contour>
    </TTGlyph>
    <TTGlyph name="N" xMin="39" yMin="0" xMax="975" yMax="686">
      <contour>
        <pt x="733" y="203" on="1"/>
        <pt x="801" y="613" on="1"/>
        <pt x="802" y="625" on="1"/>
        <pt x="802" y="630" on="0"/>
        <pt x="781" y="636" on="0"/>
        <pt x="753" y="639" on="0"/>
        <pt x="728" y="639" on="0"/>
        <pt x="723" y="639" on="1"/>
        <pt x="697" y="639" on="1"/>
        <pt x="705" y="686" on="1"/>
        <pt x="736" y="684" on="0"/>
        <pt x="808" y="683" on="0"/>
        <pt x="840" y="683" on="1"/>
        <pt x="870" y="683" on="0"/>
        <pt x="946" y="684" on="0"/>
        <pt x="975" y="686" on="1"/>
        <pt x="967" y="639" on="1"/>
        <pt x="941" y="639" on="1"/>
        <pt x="915" y="639" on="0"/>
        <pt x="889" y="636" on="1"/>
        <pt x="867" y="634" on="0"/>
        <pt x="857" y="628" on="0"/>
        <pt x="855" y="615" on="1"/>
        <pt x="757" y="26" on="1"/>
        <pt x="754" y="8" on="0"/>
        <pt x="742" y="0" on="0"/>
        <pt x="728" y="0" on="1"/>
        <pt x="715" y="0" on="0"/>
        <pt x="709" y="4" on="0"/>
        <pt x="701" y="15" on="1"/>
        <pt x="300" y="601" on="1"/>
        <pt x="210" y="57" on="1"/>
        <pt x="229" y="49" on="0"/>
        <pt x="277" y="47" on="0"/>
        <pt x="290" y="47" on="1"/>
        <pt x="316" y="47" on="1"/>
        <pt x="308" y="0" on="1"/>
        <pt x="294" y="1" on="0"/>
        <pt x="259" y="2" on="0"/>
        <pt x="223" y="3" on="0"/>
        <pt x="189" y="3" on="0"/>
        <pt x="174" y="3" on="1"/>
        <pt x="142" y="3" on="0"/>
        <pt x="70" y="2" on="0"/>
        <pt x="39" y="0" on="1"/>
        <pt x="46" y="47" on="1"/>
        <pt x="72" y="47" on="1"/>
        <pt x="77" y="47" on="0"/>
        <pt x="97" y="47" on="0"/>
        <pt x="121" y="49" on="0"/>
        <pt x="147" y="53" on="0"/>
        <pt x="156" y="57" on="1"/>
        <pt x="253" y="639" on="1"/>
        <pt x="145" y="639" on="1"/>
        <pt x="153" y="686" on="1"/>
        <pt x="380" y="686" on="1"/>
        <pt x="396" y="686" on="0"/>
        <pt x="405" y="683" on="0"/>
        <pt x="413" y="672" on="1"/>
      </contour>
    </TTGlyph>
    <TTGlyph name="O" xMin="115" yMin="-11" xMax="862" yMax="697">
      <contour>
        <pt x="862" y="410" on="1"/>
        <pt x="862" y="334" on="0"/>
        <pt x="807" y="183" on="0"/>
        <pt x="699" y="63" on="0"/>
        <pt x="537" y="-11" on="0"/>
        <pt x="430" y="-11" on="1"/>
        <pt x="364" y="-11" on="0"/>
        <pt x="249" y="23" on="0"/>
        <pt x="164" y="92" on="0"/>
        <pt x="115" y="199" on="0"/>
        <pt x="115" y="271" on="1"/>
        <pt x="115" y="349" on="0"/>
        <pt x="171" y="501" on="0"/>
        <pt x="280" y="622" on="0"/>
        <pt x="442" y="697" on="0"/>
        <pt x="547" y="697" on="1"/>
        <pt x="619" y="697" on="0"/>
        <pt x="736" y="658" on="0"/>
        <pt x="818" y="585" on="0"/>
        <pt x="862" y="478" on="0"/>
      </contour>
      <contour>
        <pt x="437" y="31" on="1"/>
        <pt x="459" y="31" on="0"/>
        <pt x="511" y="42" on="0"/>
        <pt x="565" y="70" on="0"/>
        <pt x="618" y="117" on="0"/>
        <pt x="640" y="153" on="1"/>
        <pt x="665" y="194" on="0"/>
        <pt x="695" y="294" on="0"/>
        <pt x="711" y="385" on="0"/>
        <pt x="716" y="453" on="0"/>
        <pt x="716" y="461" on="1"/>
        <pt x="716" y="521" on="0"/>
        <pt x="682" y="598" on="0"/>
        <pt x="629" y="641" on="0"/>
        <pt x="568" y="657" on="0"/>
        <pt x="541" y="657" on="1"/>
        <pt x="509" y="657" on="0"/>
        <pt x="440" y="637" on="0"/>
        <pt x="375" y="592" on="0"/>
        <pt x="319" y="517" on="0"/>
        <pt x="301" y="463" on="1"/>
        <pt x="291" y="433" on="0"/>
        <pt x="277" y="366" on="0"/>
        <pt x="268" y="304" on="0"/>
        <pt x="264" y="252" on="0"/>
        <pt x="264" y="237" on="1"/>
        <pt x="264" y="195" on="0"/>
        <pt x="283" y="121" on="0"/>
        <pt x="325" y="64" on="0"/>
        <pt x="391" y="31" on="0"/>
      </contour>
    </TTGlyph>
    <TTGlyph name="OE" xMin="134" yMin="-11" xMax="1187" yMax="697">
      <contour>
        <pt x="1090" y="0" on="1"/>
        <pt x="649" y="0" on="1"/>
        <pt x="628" y="0" on="0"/>
        <pt x="585" y="-3" on="0"/>
        <pt x="563" y="-5" on="1"/>
        <pt x="538" y="-7" on="0"/>
        <pt x="505" y="-10" on="0"/>
        <pt x="482" y="-11" on="0"/>
        <pt x="469" y="-11" on="0"/>
        <pt x="464" y="-11" on="1"/>
        <pt x="390" y="-11" on="0"/>
        <pt x="269" y="26" on="0"/>
        <pt x="182" y="98" on="0"/>
        <pt x="134" y="204" on="0"/>
        <pt x="134" y="274" on="1"/>
        <pt x="134" y="348" on="0"/>
        <pt x="189" y="498" on="0"/>
        <pt x="300" y="620" on="0"/>
        <pt x="469" y="697" on="0"/>
        <pt x="582" y="697" on="1"/>
        <pt x="585" y="697" on="0"/>
        <pt x="625" y="696" on="0"/>
        <pt x="659" y="693" on="1"/>
        <pt x="688" y="690" on="0"/>
        <pt x="725" y="688" on="0"/>
        <pt x="748" y="686" on="0"/>
        <pt x="760" y="686" on="0"/>
        <pt x="763" y="686" on="1"/>
        <pt x="1187" y="686" on="1"/>
        <pt x="1178" y="445" on="1"/>
        <pt x="1131" y="445" on="1"/>
        <pt x="1132" y="453" on="0"/>
        <pt x="1132" y="479" on="0"/>
        <pt x="1132" y="482" on="1"/>
        <pt x="1132" y="518" on="0"/>
        <pt x="1120" y="577" on="0"/>
        <pt x="1085" y="617" on="0"/>
        <pt x="1020" y="639" on="0"/>
        <pt x="966" y="639" on="1"/>
        <pt x="824" y="639" on="1"/>
        <pt x="781" y="380" on="1"/>
        <pt x="870" y="380" on="1"/>
        <pt x="899" y="380" on="0"/>
        <pt x="945" y="388" on="0"/>
        <pt x="981" y="413" on="0"/>
        <pt x="1004" y="459" on="0"/>
        <pt x="1010" y="497" on="1"/>
        <pt x="1057" y="497" on="1"/>
        <pt x="1010" y="216" on="1"/>
        <pt x="963" y="216" on="1"/>
        <pt x="965" y="226" on="0"/>
        <pt x="967" y="246" on="0"/>
        <pt x="967" y="257" on="1"/>
        <pt x="967" y="277" on="0"/>
        <pt x="957" y="306" on="0"/>
        <pt x="933" y="324" on="0"/>
        <pt x="893" y="333" on="0"/>
        <pt x="862" y="333" on="1"/>
        <pt x="773" y="333" on="1"/>
        <pt x="725" y="47" on="1"/>
        <pt x="870" y="47" on="1"/>
        <pt x="939" y="47" on="0"/>
        <pt x="1027" y="81" on="0"/>
        <pt x="1083" y="141" on="0"/>
        <pt x="1118" y="225" on="0"/>
        <pt x="1135" y="274" on="1"/>
        <pt x="1182" y="274" on="1"/>
      </contour>
      <contour>
        <pt x="675" y="490" on="1"/>
        <pt x="676" y="493" on="0"/>
        <pt x="678" y="511" on="0"/>
        <pt x="681" y="534" on="0"/>
        <pt x="683" y="560" on="0"/>
        <pt x="683" y="572" on="1"/>
        <pt x="683" y="595" on="0"/>
        <pt x="675" y="629" on="0"/>
        <pt x="652" y="651" on="0"/>
        <pt x="612" y="661" on="0"/>
        <pt x="580" y="661" on="1"/>
        <pt x="508" y="661" on="0"/>
        <pt x="397" y="594" on="0"/>
        <pt x="321" y="483" on="0"/>
        <pt x="281" y="339" on="0"/>
        <pt x="281" y="262" on="1"/>
        <pt x="281" y="147" on="0"/>
        <pt x="386" y="25" on="0"/>
        <pt x="474" y="25" on="1"/>
        <pt x="502" y="25" on="0"/>
        <pt x="549" y="33" on="0"/>
        <pt x="587" y="65" on="0"/>
        <pt x="615" y="128" on="0"/>
        <pt x="624" y="183" on="1"/>
      </contour>
    </TTGlyph>
    <TTGlyph name="Oslash" xMin="115" yMin="-60" xMax="891" yMax="747">
      <contour>
        <pt x="783" y="636" on="1"/>
        <pt x="798" y="626" on="0"/>
        <pt x="835" y="590" on="0"/>
        <pt x="868" y="535" on="0"/>
        <pt x="891" y="458" on="0"/>
        <pt x="891" y="407" on="1"/>
        <pt x="891" y="328" on="0"/>
        <pt x="833" y="177" on="0"/>
        <pt x="720" y="60" on="0"/>
        <pt x="553" y="-11" on="0"/>
        <pt x="445" y="-11" on="1"/>
        <pt x="377" y="-11" on="0"/>
        <pt x="288" y="14" on="0"/>
        <pt x="255" y="29" on="1"/>
        <pt x="177" y="-60" on="1"/>
        <pt x="148" y="-38" on="1"/>
        <pt x="223" y="49" on="1"/>
        <pt x="205" y="61" on="0"/>
        <pt x="166" y="100" on="0"/>
        <pt x="135" y="155" on="0"/>
        <pt x="115" y="228" on="0"/>
        <pt x="115" y="274" on="1"/>
        <pt x="115" y="348" on="0"/>
        <pt x="171" y="499" on="0"/>
        <pt x="283" y="621" on="0"/>
        <pt x="450" y="697" on="0"/>
        <pt x="562" y="697" on="1"/>
        <pt x="632" y="697" on="0"/>
        <pt x="722" y="670" on="0"/>
        <pt x="752" y="656" on="1"/>
        <pt x="830" y="747" on="1"/>
        <pt x="859" y="723" on="1"/>
      </contour>
      <contour>
        <pt x="707" y="605" on="1"/>
        <pt x="688" y="626" on="0"/>
        <pt x="641" y="649" on="0"/>
        <pt x="597" y="659" on="0"/>
        <pt x="562" y="661" on="0"/>
        <pt x="556" y="661" on="1"/>
        <pt x="519" y="661" on="0"/>
        <pt x="444" y="642" on="0"/>
        <pt x="377" y="602" on="0"/>
        <pt x="320" y="538" on="0"/>
        <pt x="302" y="494" on="1"/>
        <pt x="288" y="460" on="0"/>
        <pt x="268" y="377" on="0"/>
        <pt x="256" y="299" on="0"/>
        <pt x="250" y="236" on="0"/>
        <pt x="250" y="221" on="1"/>
        <pt x="250" y="215" on="0"/>
        <pt x="251" y="191" on="0"/>
        <pt x="255" y="160" on="0"/>
        <pt x="266" y="126" on="0"/>
        <pt x="275" y="109" on="1"/>
      </contour>
      <contour>
        <pt x="299" y="79" on="1"/>
        <pt x="330" y="49" on="0"/>
        <pt x="409" y="25" on="0"/>
        <pt x="451" y="25" on="1"/>
        <pt x="481" y="25" on="0"/>
        <pt x="554" y="39" on="0"/>
        <pt x="627" y="79" on="0"/>
        <pt x="692" y="152" on="0"/>
        <pt x="713" y="210" on="1"/>
        <pt x="723" y="236" on="0"/>
        <pt x="739" y="308" on="0"/>
        <pt x="751" y="381" on="0"/>
        <pt x="757" y="444" on="0"/>
        <pt x="757" y="462" on="1"/>
        <pt x="757" y="467" on="0"/>
        <pt x="756" y="492" on="0"/>
        <pt x="751" y="524" on="0"/>
        <pt x="740" y="560" on="0"/>
        <pt x="731" y="576" on="1"/>
      </contour>
    </TTGlyph>
    <TTGlyph name="P" xMin="39" yMin="0" xMax="805" yMax="686">
      <contour>
        <pt x="297" y="47" on="1"/>
        <pt x="405" y="47" on="1"/>
        <pt x="397" y="0" on="1"/>
        <pt x="383" y="1" on="0"/>
        <pt x="335" y="2" on="0"/>
        <pt x="283" y="3" on="0"/>
        <pt x="234" y="3" on="0"/>
        <pt x="218" y="3" on="1"/>
        <pt x="202" y="3" on="0"/>
        <pt x="153" y="3" on="0"/>
        <pt x="101" y="2" on="0"/>
        <pt x="53" y="1" on="0"/>
        <pt x="39" y="0" on="1"/>
        <pt x="46" y="47" on="1"/>
        <pt x="155" y="47" on="1"/>
        <pt x="253" y="639" on="1"/>
        <pt x="145" y="639" on="1"/>
        <pt x="153" y="686" on="1"/>
        <pt x="570" y="686" on="1"/>
        <pt x="620" y="686" on="0"/>
        <pt x="706" y="665" on="0"/>
        <pt x="769" y="623" on="0"/>
        <pt x="805" y="560" on="0"/>
        <pt x="805" y="519" on="1"/>
        <pt x="805" y="473" on="0"/>
        <pt x="760" y="393" on="0"/>
        <pt x="682" y="335" on="0"/>
        <pt x="577" y="302" on="0"/>
        <pt x="516" y="302" on="1"/>
        <pt x="340" y="302" on="1"/>
      </contour>
      <contour>
        <pt x="341" y="343" on="1"/>
        <pt x="474" y="343" on="1"/>
        <pt x="490" y="343" on="0"/>
        <pt x="527" y="346" on="0"/>
        <pt x="566" y="356" on="0"/>
        <pt x="602" y="375" on="0"/>
        <pt x="616" y="391" on="1"/>
        <pt x="626" y="403" on="0"/>
        <pt x="641" y="444" on="0"/>
        <pt x="652" y="490" on="0"/>
        <pt x="657" y="535" on="0"/>
        <pt x="657" y="551" on="1"/>
        <pt x="657" y="596" on="0"/>
        <pt x="593" y="639" on="0"/>
        <pt x="524" y="639" on="1"/>
        <pt x="390" y="639" on="1"/>
      </contour>
    </TTGlyph>
    <TTGlyph name="Phi" xMin="119" yMin="0" xMax="825" yMax="686">
      <contour>
        <pt x="483" y="47" on="1"/>
        <pt x="618" y="47" on="1"/>
        <pt x="610" y="0" on="1"/>
        <pt x="595" y="1" on="0"/>
        <pt x="541" y="2" on="0"/>
        <pt x="482" y="3" on="0"/>
        <pt x="427" y="3" on="0"/>
        <pt x="409" y="3" on="1"/>
        <pt x="391" y="3" on="0"/>
        <pt x="336" y="3" on="0"/>
        <pt x="278" y="2" on="0"/>
        <pt x="226" y="1" on="0"/>
        <pt x="209" y="0" on="1"/>
        <pt x="216" y="47" on="1"/>
        <pt x="352" y="47" on="1"/>
        <pt x="369" y="153" on="1"/>
        <pt x="309" y="158" on="0"/>
        <pt x="216" y="187" on="0"/>
        <pt x="152" y="231" on="0"/>
        <pt x="119" y="289" on="0"/>
        <pt x="119" y="322" on="1"/>
        <pt x="119" y="361" on="0"/>
        <pt x="163" y="433" on="0"/>
        <pt x="245" y="490" on="0"/>
        <pt x="361" y="529" on="0"/>
        <pt x="433" y="533" on="1"/>
        <pt x="450" y="639" on="1"/>
        <pt x="315" y="639" on="1"/>
        <pt x="323" y="686" on="1"/>
        <pt x="340" y="685" on="0"/>
        <pt x="393" y="684" on="0"/>
        <pt x="451" y="683" on="0"/>
        <pt x="506" y="683" on="0"/>
        <pt x="524" y="683" on="1"/>
        <pt x="542" y="683" on="0"/>
        <pt x="597" y="683" on="0"/>
        <pt x="655" y="684" on="0"/>
        <pt x="709" y="685" on="0"/>
        <pt x="725" y="686" on="1"/>
        <pt x="717" y="639" on="1"/>
        <pt x="582" y="639" on="1"/>
        <pt x="564" y="534" on="1"/>
        <pt x="638" y="529" on="0"/>
        <pt x="737" y="496" on="0"/>
        <pt x="799" y="448" on="0"/>
        <pt x="825" y="392" on="0"/>
        <pt x="825" y="364" on="1"/>
        <pt x="825" y="323" on="0"/>
        <pt x="772" y="241" on="0"/>
        <pt x="719" y="211" on="1"/>
        <pt x="691" y="195" on="0"/>
        <pt x="632" y="173" on="0"/>
        <pt x="575" y="160" on="0"/>
        <pt x="523" y="153" on="0"/>
        <pt x="501" y="151" on="1"/>
      </contour>
      <contour>
        <pt x="426" y="496" on="1"/>
        <pt x="416" y="495" on="0"/>
        <pt x="386" y="488" on="0"/>
        <pt x="353" y="475" on="0"/>
        <pt x="320" y="455" on="0"/>
        <pt x="307" y="440" on="1"/>
        <pt x="292" y="422" on="0"/>
        <pt x="274" y="376" on="0"/>
        <pt x="266" y="334" on="0"/>
        <pt x="264" y="303" on="0"/>
        <pt x="264" y="299" on="1"/>
        <pt x="264" y="289" on="0"/>
        <pt x="268" y="257" on="0"/>
        <pt x="289" y="224" on="0"/>
        <pt x="334" y="196" on="0"/>
        <pt x="375" y="190" on="1"/>
      </contour>
      <contour>
        <pt x="507" y="189" on="1"/>
        <pt x="541" y="193" on="0"/>
        <pt x="589" y="210" on="0"/>
        <pt x="620" y="228" on="0"/>
        <pt x="635" y="244" on="0"/>
        <pt x="637" y="246" on="1"/>
        <pt x="653" y="266" on="0"/>
        <pt x="671" y="312" on="0"/>
        <pt x="679" y="353" on="0"/>
        <pt x="680" y="383" on="0"/>
        <pt x="680" y="386" on="1"/>
        <pt x="680" y="397" on="0"/>
        <pt x="676" y="430" on="0"/>
        <pt x="653" y="464" on="0"/>
        <pt x="604" y="492" on="0"/>
        <pt x="558" y="497" on="1"/>
      </contour>
    </TTGlyph>
    <TTGlyph name="Pi" xMin="39" yMin="0" xMax="974" yMax="680">
      <contour>
        <pt x="760" y="47" on="1"/>
        <pt x="868" y="47" on="1"/>
        <pt x="860" y="0" on="1"/>
        <pt x="846" y="1" on="0"/>
        <pt x="798" y="2" on="0"/>
        <pt x="746" y="3" on="0"/>
        <pt x="697" y="3" on="0"/>
        <pt x="681" y="3" on="1"/>
        <pt x="665" y="3" on="0"/>
        <pt x="616" y="3" on="0"/>
        <pt x="564" y="2" on="0"/>
        <pt x="516" y="1" on="0"/>
        <pt x="502" y="0" on="1"/>
        <pt x="509" y="47" on="1"/>
        <pt x="618" y="47" on="1"/>
        <pt x="715" y="633" on="1"/>
        <pt x="395" y="633" on="1"/>
        <pt x="297" y="47" on="1"/>
        <pt x="405" y="47" on="1"/>
        <pt x="397" y="0" on="1"/>
        <pt x="383" y="1" on="0"/>
        <pt x="335" y="2" on="0"/>
        <pt x="283" y="3" on="0"/>
        <pt x="234" y="3" on="0"/>
        <pt x="218" y="3" on="1"/>
        <pt x="202" y="3" on="0"/>
        <pt x="153" y="3" on="0"/>
        <pt x="101" y="2" on="0"/>
        <pt x="53" y="1" on="0"/>
        <pt x="39" y="0" on="1"/>
        <pt x="46" y="47" on="1"/>
        <pt x="155" y="47" on="1"/>
        <pt x="252" y="633" on="1"/>
        <pt x="144" y="633" on="1"/>
        <pt x="152" y="680" on="1"/>
        <pt x="974" y="680" on="1"/>
        <pt x="966" y="633" on="1"/>
        <pt x="858" y="633" on="1"/>
      </contour>
    </TTGlyph>
    <TTGlyph name="Psi" xMin="152" yMin="0" xMax="917" yMax="686">
      <contour>
        <pt x="540" y="195" on="1"/>
        <pt x="587" y="208" on="0"/>
        <pt x="646" y="259" on="0"/>
        <pt x="682" y="321" on="0"/>
        <pt x="700" y="387" on="0"/>
        <pt x="705" y="415" on="1"/>
        <pt x="714" y="465" on="0"/>
        <pt x="742" y="518" on="0"/>
        <pt x="773" y="543" on="0"/>
        <pt x="803" y="547" on="0"/>
        <pt x="815" y="547" on="1"/>
        <pt x="883" y="547" on="1"/>
        <pt x="897" y="547" on="0"/>
        <pt x="917" y="543" on="0"/>
        <pt x="917" y="529" on="1"/>
        <pt x="917" y="518" on="0"/>
        <pt x="902" y="512" on="0"/>
        <pt x="897" y="511" on="1"/>
        <pt x="870" y="506" on="0"/>
        <pt x="843" y="450" on="0"/>
        <pt x="835" y="407" on="1"/>
        <pt x="813" y="287" on="0"/>
        <pt x="655" y="163" on="0"/>
        <pt x="533" y="152" on="1"/>
        <pt x="515" y="47" on="1"/>
        <pt x="650" y="47" on="1"/>
        <pt x="642" y="0" on="1"/>
        <pt x="627" y="1" on="0"/>
        <pt x="573" y="2" on="0"/>
        <pt x="514" y="3" on="0"/>
        <pt x="459" y="3" on="0"/>
        <pt x="441" y="3" on="1"/>
        <pt x="423" y="3" on="0"/>
        <pt x="368" y="3" on="0"/>
        <pt x="310" y="2" on="0"/>
        <pt x="258" y="1" on="0"/>
        <pt x="241" y="0" on="1"/>
        <pt x="248" y="47" on="1"/>
        <pt x="384" y="47" on="1"/>
        <pt x="401" y="153" on="1"/>
        <pt x="364" y="157" on="0"/>
        <pt x="289" y="180" on="0"/>
        <pt x="228" y="228" on="0"/>
        <pt x="190" y="304" on="0"/>
        <pt x="190" y="361" on="1"/>
        <pt x="190" y="380" on="0"/>
        <pt x="192" y="395" on="0"/>
        <pt x="194" y="411" on="1"/>
        <pt x="198" y="433" on="0"/>
        <pt x="199" y="456" on="0"/>
        <pt x="199" y="458" on="1"/>
        <pt x="199" y="477" on="0"/>
        <pt x="193" y="498" on="0"/>
        <pt x="184" y="508" on="0"/>
        <pt x="174" y="511" on="0"/>
        <pt x="170" y="511" on="1"/>
        <pt x="156" y="513" on="0"/>
        <pt x="152" y="528" on="0"/>
        <pt x="152" y="529" on="1"/>
        <pt x="152" y="543" on="0"/>
        <pt x="173" y="547" on="0"/>
        <pt x="186" y="547" on="1"/>
        <pt x="255" y="547" on="1"/>
        <pt x="263" y="547" on="0"/>
        <pt x="289" y="544" on="0"/>
        <pt x="313" y="528" on="0"/>
        <pt x="330" y="491" on="0"/>
        <pt x="330" y="458" on="1"/>
        <pt x="330" y="455" on="0"/>
        <pt x="329" y="428" on="0"/>
        <pt x="325" y="407" on="1"/>
        <pt x="320" y="380" on="0"/>
        <pt x="319" y="346" on="0"/>
        <pt x="319" y="338" on="1"/>
        <pt x="319" y="274" on="0"/>
        <pt x="364" y="208" on="0"/>
        <pt x="408" y="195" on="1"/>
        <pt x="482" y="639" on="1"/>
        <pt x="347" y="639" on="1"/>
        <pt x="355" y="686" on="1"/>
        <pt x="372" y="685" on="0"/>
        <pt x="425" y="684" on="0"/>
        <pt x="483" y="683" on="0"/>
        <pt x="538" y="683" on="0"/>
        <pt x="556" y="683" on="1"/>
        <pt x="574" y="683" on="0"/>
        <pt x="629" y="683" on="0"/>
        <pt x="687" y="684" on="0"/>
        <pt x="741" y="685" on="0"/>
        <pt x="757" y="686" on="1"/>
        <pt x="749" y="639" on="1"/>
        <pt x="614" y="639" on="1"/>
      </contour>
    </TTGlyph>
    <TTGlyph name="Q" xMin="115" yMin="-194" xMax="862" yMax="697">
      <contour>
        <pt x="593" y="17" on="1"/>
        <pt x="605" y="-5" on="0"/>
        <pt x="626" y="-28" on="0"/>
        <pt x="647" y="-39" on="0"/>
        <pt x="665" y="-41" on="0"/>
        <pt x="674" y="-41" on="1"/>
        <pt x="683" y="-41" on="0"/>
        <pt x="712" y="-38" on="0"/>
        <pt x="740" y="-30" on="0"/>
        <pt x="764" y="-14" on="0"/>
        <pt x="768" y="-1" on="1"/>
        <pt x="770" y="7" on="0"/>
        <pt x="777" y="18" on="0"/>
        <pt x="787" y="18" on="1"/>
        <pt x="793" y="18" on="0"/>
        <pt x="805" y="9" on="0"/>
        <pt x="805" y="-1" on="1"/>
        <pt x="805" y="-7" on="0"/>
        <pt x="797" y="-41" on="0"/>
        <pt x="781" y="-84" on="0"/>
        <pt x="755" y="-130" on="0"/>
        <pt x="718" y="-169" on="0"/>
        <pt x="669" y="-194" on="0"/>
        <pt x="639" y="-194" on="1"/>
        <pt x="603" y="-194" on="0"/>
        <pt x="561" y="-164" on="0"/>
        <pt x="538" y="-112" on="0"/>
        <pt x="530" y="-42" on="0"/>
        <pt x="527" y="-2" on="1"/>
        <pt x="515" y="-4" on="0"/>
        <pt x="462" y="-11" on="0"/>
        <pt x="430" y="-11" on="1"/>
        <pt x="364" y="-11" on="0"/>
        <pt x="249" y="23" on="0"/>
        <pt x="164" y="92" on="0"/>
        <pt x="115" y="199" on="0"/>
        <pt x="115" y="271" on="1"/>
        <pt x="115" y="349" on="0"/>
        <pt x="171" y="501" on="0"/>
        <pt x="280" y="622" on="0"/>
        <pt x="442" y="697" on="0"/>
        <pt x="547" y="697" on="1"/>
        <pt x="619" y="697" on="0"/>
        <pt x="736" y="658" on="0"/>
        <pt x="818" y="585" on="0"/>
        <pt x="862" y="478" on="0"/>
        <pt x="862" y="410" on="1"/>
        <pt x="862" y="351" on="0"/>
        <pt x="828" y="230" on="0"/>
        <pt x="761" y="124" on="0"/>
        <pt x="660" y="40" on="0"/>
      </contour>
      <contour>
        <pt x="347" y="50" on="1"/>
        <pt x="346" y="54" on="0"/>
        <pt x="345" y="60" on="0"/>
        <pt x="345" y="64" on="1"/>
        <pt x="345" y="83" on="0"/>
        <pt x="363" y="116" on="0"/>
        <pt x="393" y="141" on="0"/>
        <pt x="432" y="155" on="0"/>
        <pt x="454" y="155" on="1"/>
        <pt x="478" y="155" on="0"/>
        <pt x="513" y="139" on="0"/>
        <pt x="539" y="115" on="0"/>
        <pt x="559" y="84" on="0"/>
        <pt x="567" y="69" on="1"/>
        <pt x="605" y="93" on="0"/>
        <pt x="658" y="168" on="0"/>
        <pt x="692" y="252" on="0"/>
        <pt x="710" y="337" on="0"/>
        <pt x="719" y="406" on="0"/>
        <pt x="720" y="450" on="0"/>
        <pt x="720" y="451" on="1"/>
        <pt x="720" y="513" on="0"/>
        <pt x="686" y="592" on="0"/>
        <pt x="633" y="639" on="0"/>
        <pt x="570" y="657" on="0"/>
        <pt x="541" y="657" on="1"/>
        <pt x="525" y="657" on="0"/>
        <pt x="478" y="650" on="0"/>
        <pt x="425" y="628" on="0"/>
        <pt x="368" y="585" on="0"/>
        <pt x="342" y="550" on="1"/>
        <pt x="315" y="513" on="0"/>
        <pt x="282" y="415" on="0"/>
        <pt x="263" y="322" on="0"/>
        <pt x="257" y="247" on="0"/>
        <pt x="257" y="232" on="1"/>
        <pt x="257" y="168" on="0"/>
        <pt x="299" y="76" on="0"/>
      </contour>
      <contour>
        <pt x="522" y="45" on="1"/>
        <pt x="516" y="85" on="0"/>
        <pt x="484" y="119" on="0"/>
        <pt x="455" y="119" on="1"/>
        <pt x="426" y="119" on="0"/>
        <pt x="382" y="87" on="0"/>
        <pt x="382" y="64" on="1"/>
        <pt x="382" y="51" on="0"/>
        <pt x="395" y="37" on="0"/>
        <pt x="413" y="30" on="0"/>
        <pt x="431" y="29" on="0"/>
        <pt x="436" y="29" on="1"/>
        <pt x="443" y="29" on="0"/>
        <pt x="490" y="33" on="0"/>
      </contour>
    </TTGlyph>
    <TTGlyph name="R" xMin="39" yMin="-11" xMax="874" yMax="686">
      <contour>
        <pt x="604" y="339" on="1"/>
        <pt x="635" y="328" on="0"/>
        <pt x="672" y="296" on="0"/>
        <pt x="692" y="263" on="0"/>
        <pt x="699" y="230" on="0"/>
        <pt x="699" y="218" on="1"/>
        <pt x="699" y="209" on="0"/>
        <pt x="698" y="181" on="0"/>
        <pt x="696" y="151" on="0"/>
        <pt x="695" y="123" on="0"/>
        <pt x="695" y="114" on="1"/>
        <pt x="695" y="98" on="0"/>
        <pt x="698" y="66" on="0"/>
        <pt x="709" y="40" on="0"/>
        <pt x="730" y="25" on="0"/>
        <pt x="748" y="25" on="1"/>
        <pt x="756" y="25" on="0"/>
        <pt x="778" y="30" on="0"/>
        <pt x="800" y="47" on="0"/>
        <pt x="821" y="76" on="0"/>
        <pt x="827" y="100" on="1"/>
        <pt x="830" y="111" on="0"/>
        <pt x="840" y="117" on="0"/>
        <pt x="851" y="117" on="1"/>
        <pt x="856" y="117" on="0"/>
        <pt x="874" y="113" on="0"/>
        <pt x="874" y="99" on="1"/>
        <pt x="874" y="93" on="0"/>
        <pt x="863" y="57" on="0"/>
        <pt x="833" y="19" on="0"/>
        <pt x="781" y="-11" on="0"/>
        <pt x="740" y="-11" on="1"/>
        <pt x="704" y="-11" on="0"/>
        <pt x="633" y="-2" on="0"/>
        <pt x="576" y="24" on="0"/>
        <pt x="540" y="69" on="0"/>
        <pt x="540" y="105" on="1"/>
        <pt x="540" y="108" on="0"/>
        <pt x="540" y="114" on="0"/>
        <pt x="542" y="126" on="0"/>
        <pt x="545" y="147" on="0"/>
        <pt x="548" y="164" on="1"/>
        <pt x="552" y="186" on="0"/>
        <pt x="558" y="223" on="0"/>
        <pt x="558" y="234" on="1"/>
        <pt x="558" y="247" on="0"/>
        <pt x="550" y="279" on="0"/>
        <pt x="527" y="306" on="0"/>
        <pt x="488" y="325" on="0"/>
        <pt x="457" y="325" on="1"/>
        <pt x="337" y="325" on="1"/>
        <pt x="291" y="47" on="1"/>
        <pt x="399" y="47" on="1"/>
        <pt x="391" y="0" on="1"/>
        <pt x="378" y="1" on="0"/>
        <pt x="331" y="2" on="0"/>
        <pt x="280" y="3" on="0"/>
        <pt x="231" y="3" on="0"/>
        <pt x="215" y="3" on="1"/>
        <pt x="200" y="3" on="0"/>
        <pt x="151" y="3" on="0"/>
        <pt x="99" y="2" on="0"/>
        <pt x="53" y="1" on="0"/>
        <pt x="39" y="0" on="1"/>
        <pt x="46" y="47" on="1"/>
        <pt x="155" y="47" on="1"/>
        <pt x="253" y="639" on="1"/>
        <pt x="145" y="639" on="1"/>
        <pt x="153" y="686" on="1"/>
        <pt x="533" y="686" on="1"/>
        <pt x="589" y="686" on="0"/>
        <pt x="687" y="665" on="0"/>
        <pt x="760" y="624" on="0"/>
        <pt x="802" y="563" on="0"/>
        <pt x="802" y="522" on="1"/>
        <pt x="802" y="487" on="0"/>
        <pt x="770" y="428" on="0"/>
        <pt x="715" y="382" on="0"/>
        <pt x="643" y="348" on="0"/>
      </contour>
      <contour>
        <pt x="459" y="361" on="1"/>
        <pt x="503" y="361" on="0"/>
        <pt x="579" y="379" on="0"/>
        <pt x="608" y="405" on="1"/>
        <pt x="622" y="417" on="0"/>
        <pt x="639" y="459" on="0"/>
        <pt x="649" y="503" on="0"/>
        <pt x="652" y="539" on="0"/>
        <pt x="652" y="546" on="1"/>
        <pt x="652" y="565" on="0"/>
        <pt x="640" y="599" on="0"/>
        <pt x="609" y="624" on="0"/>
        <pt x="552" y="639" on="0"/>
        <pt x="507" y="639" on="1"/>
        <pt x="390" y="639" on="1"/>
        <pt x="344" y="361" on="1"/>
      </contour>
    </TTGlyph>
    <TTGlyph name="S" xMin="65" yMin="-11" xMax="656" yMax="697">
      <contour>
        <pt x="468" y="414" on="1"/>
        <pt x="503" y="406" on="0"/>
        <pt x="557" y="371" on="0"/>
        <pt x="593" y="323" on="0"/>
        <pt x="611" y="266" on="0"/>
        <pt x="611" y="237" on="1"/>
        <pt x="611" y="201" on="0"/>
        <pt x="583" y="114" on="0"/>
        <pt x="520" y="39" on="0"/>
        <pt x="420" y="-11" on="0"/>
        <pt x="348" y="-11" on="1"/>
        <pt x="330" y="-11" on="0"/>
        <pt x="282" y="-7" on="0"/>
        <pt x="230" y="4" on="0"/>
        <pt x="177" y="26" on="0"/>
        <pt x="155" y="44" on="1"/>
        <pt x="142" y="32" on="0"/>
        <pt x="116" y="9" on="0"/>
        <pt x="102" y="-2" on="1"/>
        <pt x="94" y="-8" on="0"/>
        <pt x="89" y="-11" on="0"/>
        <pt x="82" y="-11" on="1"/>
        <pt x="76" y="-11" on="0"/>
        <pt x="65" y="-5" on="0"/>
        <pt x="65" y="3" on="1"/>
        <pt x="98" y="206" on="1"/>
        <pt x="100" y="222" on="0"/>
        <pt x="109" y="228" on="0"/>
        <pt x="123" y="228" on="1"/>
        <pt x="131" y="228" on="0"/>
        <pt x="147" y="224" on="0"/>
        <pt x="147" y="213" on="1"/>
        <pt x="147" y="208" on="0"/>
        <pt x="144" y="198" on="0"/>
        <pt x="144" y="179" on="1"/>
        <pt x="144" y="130" on="0"/>
        <pt x="192" y="73" on="0"/>
        <pt x="259" y="44" on="0"/>
        <pt x="329" y="36" on="0"/>
        <pt x="350" y="36" on="1"/>
        <pt x="396" y="36" on="0"/>
        <pt x="455" y="66" on="0"/>
        <pt x="490" y="110" on="0"/>
        <pt x="504" y="157" on="0"/>
        <pt x="504" y="174" on="1"/>
        <pt x="504" y="203" on="0"/>
        <pt x="482" y="239" on="0"/>
        <pt x="452" y="260" on="0"/>
        <pt x="421" y="270" on="0"/>
        <pt x="412" y="272" on="1"/>
        <pt x="390" y="277" on="0"/>
        <pt x="351" y="285" on="0"/>
        <pt x="327" y="291" on="1"/>
        <pt x="303" y="296" on="0"/>
        <pt x="265" y="305" on="0"/>
        <pt x="232" y="318" on="0"/>
        <pt x="203" y="338" on="0"/>
        <pt x="188" y="354" on="1"/>
        <pt x="167" y="377" on="0"/>
        <pt x="144" y="436" on="0"/>
        <pt x="144" y="468" on="1"/>
        <pt x="144" y="502" on="0"/>
        <pt x="173" y="582" on="0"/>
        <pt x="235" y="651" on="0"/>
        <pt x="332" y="697" on="0"/>
        <pt x="401" y="697" on="1"/>
        <pt x="437" y="697" on="0"/>
        <pt x="490" y="685" on="0"/>
        <pt x="529" y="668" on="0"/>
        <pt x="556" y="649" on="0"/>
        <pt x="565" y="641" on="1"/>
        <pt x="619" y="688" on="1"/>
        <pt x="626" y="694" on="0"/>
        <pt x="631" y="697" on="0"/>
        <pt x="638" y="697" on="1"/>
        <pt x="640" y="697" on="0"/>
        <pt x="656" y="693" on="0"/>
        <pt x="656" y="682" on="1"/>
        <pt x="656" y="681" on="0"/>
        <pt x="656" y="678" on="0"/>
        <pt x="654" y="670" on="1"/>
        <pt x="623" y="481" on="1"/>
        <pt x="620" y="464" on="0"/>
        <pt x="609" y="458" on="0"/>
        <pt x="597" y="458" on="1"/>
        <pt x="580" y="458" on="0"/>
        <pt x="574" y="468" on="0"/>
        <pt x="574" y="484" on="1"/>
        <pt x="574" y="508" on="0"/>
        <pt x="562" y="567" on="0"/>
        <pt x="526" y="619" on="0"/>
        <pt x="458" y="654" on="0"/>
        <pt x="400" y="654" on="1"/>
        <pt x="358" y="654" on="0"/>
        <pt x="300" y="628" on="0"/>
        <pt x="266" y="590" on="0"/>
        <pt x="251" y="548" on="0"/>
        <pt x="251" y="531" on="1"/>
        <pt x="251" y="495" on="0"/>
        <pt x="300" y="452" on="0"/>
        <pt x="333" y="444" on="1"/>
      </contour>
    </TTGlyph>
    <TTGlyph name="Sigma" xMin="67" yMin="0" xMax="849" yMax="686">
      <contour>
        <pt x="202" y="66" on="1"/>
        <pt x="469" y="66" on="1"/>
        <pt x="517" y="66" on="0"/>
        <pt x="608" y="77" on="0"/>
        <pt x="684" y="116" on="0"/>
        <pt x="744" y="193" on="0"/>
        <pt x="762" y="260" on="1"/>
        <pt x="809" y="260" on="1"/>
        <pt x="735" y="0" on="1"/>
        <pt x="99" y="0" on="1"/>
        <pt x="88" y="0" on="0"/>
        <pt x="67" y="4" on="0"/>
        <pt x="67" y="18" on="1"/>
        <pt x="67" y="25" on="0"/>
        <pt x="75" y="33" on="0"/>
        <pt x="80" y="37" on="1"/>
        <pt x="407" y="290" on="1"/>
        <pt x="174" y="651" on="1"/>
        <pt x="174" y="677" on="0"/>
        <pt x="190" y="686" on="0"/>
        <pt x="207" y="686" on="1"/>
        <pt x="849" y="686" on="1"/>
        <pt x="840" y="445" on="1"/>
        <pt x="793" y="445" on="1"/>
        <pt x="793" y="469" on="1"/>
        <pt x="793" y="527" on="0"/>
        <pt x="757" y="595" on="0"/>
        <pt x="695" y="629" on="0"/>
        <pt x="613" y="639" on="0"/>
        <pt x="567" y="639" on="1"/>
        <pt x="361" y="639" on="1"/>
        <pt x="549" y="348" on="1"/>
        <pt x="548" y="338" on="0"/>
        <pt x="545" y="331" on="0"/>
        <pt x="536" y="324" on="1"/>
      </contour>
    </TTGlyph>
    <TTGlyph name="T" xMin="114" yMin="0" xMax="848" yMax="675">
      <contour>
        <pt x="479" y="47" on="1"/>
        <pt x="632" y="47" on="1"/>
        <pt x="624" y="0" on="1"/>
        <pt x="604" y="1" on="0"/>
        <pt x="545" y="2" on="0"/>
        <pt x="482" y="3" on="0"/>
        <pt x="422" y="3" on="0"/>
        <pt x="400" y="3" on="1"/>
        <pt x="378" y="3" on="0"/>
        <pt x="318" y="3" on="0"/>
        <pt x="255" y="2" on="0"/>
        <pt x="196" y="1" on="0"/>
        <pt x="176" y="0" on="1"/>
        <pt x="184" y="47" on="1"/>
        <pt x="337" y="47" on="1"/>
        <pt x="433" y="628" on="1"/>
        <pt x="357" y="628" on="1"/>
        <pt x="303" y="628" on="0"/>
        <pt x="237" y="600" on="0"/>
        <pt x="196" y="549" on="0"/>
        <pt x="173" y="477" on="0"/>
        <pt x="161" y="434" on="1"/>
        <pt x="114" y="434" on="1"/>
        <pt x="176" y="675" on="1"/>
        <pt x="848" y="675" on="1"/>
        <pt x="829" y="434" on="1"/>
        <pt x="782" y="434" on="1"/>
        <pt x="783" y="440" on="0"/>
        <pt x="786" y="482" on="0"/>
        <pt x="786" y="501" on="1"/>
        <pt x="786" y="524" on="0"/>
        <pt x="780" y="570" on="0"/>
        <pt x="753" y="606" on="0"/>
        <pt x="699" y="628" on="0"/>
        <pt x="652" y="628" on="1"/>
        <pt x="576" y="628" on="1"/>
      </contour>
    </TTGlyph>
    <TTGlyph name="Theta" xMin="115" yMin="-11" xMax="891" yMax="697">
      <contour>
        <pt x="891" y="407" on="1"/>
        <pt x="891" y="328" on="0"/>
        <pt x="833" y="177" on="0"/>
        <pt x="720" y="60" on="0"/>
        <pt x="553" y="-11" on="0"/>
        <pt x="445" y="-11" on="1"/>
        <pt x="371" y="-11" on="0"/>
        <pt x="249" y="26" on="0"/>
        <pt x="162" y="98" on="0"/>
        <pt x="115" y="205" on="0"/>
        <pt x="115" y="274" on="1"/>
        <pt x="115" y="348" on="0"/>
        <pt x="171" y="499" on="0"/>
        <pt x="283" y="621" on="0"/>
        <pt x="450" y="697" on="0"/>
        <pt x="562" y="697" on="1"/>
        <pt x="633" y="697" on="0"/>
        <pt x="753" y="661" on="0"/>
        <pt x="841" y="589" on="0"/>
        <pt x="891" y="480" on="0"/>
      </contour>
      <contour>
        <pt x="451" y="27" on="1"/>
        <pt x="511" y="27" on="0"/>
        <pt x="626" y="80" on="0"/>
        <pt x="666" y="133" on="1"/>
        <pt x="699" y="177" on="0"/>
        <pt x="735" y="286" on="0"/>
        <pt x="751" y="380" on="0"/>
        <pt x="754" y="445" on="0"/>
        <pt x="754" y="445" on="1"/>
        <pt x="754" y="507" on="0"/>
        <pt x="719" y="589" on="0"/>
        <pt x="663" y="640" on="0"/>
        <pt x="592" y="661" on="0"/>
        <pt x="556" y="661" on="1"/>
        <pt x="535" y="661" on="0"/>
        <pt x="482" y="652" on="0"/>
        <pt x="424" y="628" on="0"/>
        <pt x="367" y="585" on="0"/>
        <pt x="341" y="551" on="1"/>
        <pt x="311" y="511" on="0"/>
        <pt x="276" y="412" on="0"/>
        <pt x="258" y="321" on="0"/>
        <pt x="253" y="251" on="0"/>
        <pt x="253" y="240" on="1"/>
        <pt x="253" y="192" on="0"/>
        <pt x="277" y="114" on="0"/>
        <pt x="326" y="58" on="0"/>
        <pt x="401" y="27" on="0"/>
      </contour>
      <contour>
        <pt x="664" y="250" on="1"/>
        <pt x="617" y="250" on="1"/>
        <pt x="622" y="284" on="1"/>
        <pt x="365" y="284" on="1"/>
        <pt x="360" y="250" on="1"/>
        <pt x="313" y="250" on="1"/>
        <pt x="344" y="439" on="1"/>
        <pt x="391" y="439" on="1"/>
        <pt x="386" y="405" on="1"/>
        <pt x="643" y="405" on="1"/>
        <pt x="648" y="439" on="1"/>
        <pt x="695" y="439" on="1"/>
      </contour>
    </TTGlyph>
    <TTGlyph name="U" xMin="145" yMin="-11" xMax="960" yMax="686">
      <contour>
        <pt x="775" y="224" on="1"/>
        <pt x="769" y="187" on="0"/>
        <pt x="728" y="104" on="0"/>
        <pt x="653" y="34" on="0"/>
        <pt x="541" y="-11" on="0"/>
        <pt x="463" y="-11" on="1"/>
        <pt x="390" y="-11" on="0"/>
        <pt x="284" y="22" on="0"/>
        <pt x="215" y="79" on="0"/>
        <pt x="182" y="154" on="0"/>
        <pt x="182" y="196" on="1"/>
        <pt x="182" y="207" on="0"/>
        <pt x="183" y="219" on="0"/>
        <pt x="185" y="229" on="1"/>
        <pt x="253" y="639" on="1"/>
        <pt x="145" y="639" on="1"/>
        <pt x="153" y="686" on="1"/>
        <pt x="167" y="685" on="0"/>
        <pt x="215" y="684" on="0"/>
        <pt x="267" y="683" on="0"/>
        <pt x="316" y="683" on="0"/>
        <pt x="332" y="683" on="1"/>
        <pt x="348" y="683" on="0"/>
        <pt x="398" y="683" on="0"/>
        <pt x="450" y="684" on="0"/>
        <pt x="498" y="685" on="0"/>
        <pt x="512" y="686" on="1"/>
        <pt x="504" y="639" on="1"/>
        <pt x="396" y="639" on="1"/>
        <pt x="326" y="219" on="1"/>
        <pt x="324" y="205" on="0"/>
        <pt x="320" y="175" on="0"/>
        <pt x="320" y="161" on="1"/>
        <pt x="320" y="125" on="0"/>
        <pt x="344" y="76" on="0"/>
        <pt x="385" y="48" on="0"/>
        <pt x="439" y="36" on="0"/>
        <pt x="469" y="36" on="1"/>
        <pt x="528" y="36" on="0"/>
        <pt x="616" y="68" on="0"/>
        <pt x="679" y="122" on="0"/>
        <pt x="716" y="192" on="0"/>
        <pt x="722" y="229" on="1"/>
        <pt x="786" y="613" on="1"/>
        <pt x="787" y="625" on="1"/>
        <pt x="787" y="630" on="0"/>
        <pt x="766" y="636" on="0"/>
        <pt x="738" y="639" on="0"/>
        <pt x="713" y="639" on="0"/>
        <pt x="708" y="639" on="1"/>
        <pt x="682" y="639" on="1"/>
        <pt x="690" y="686" on="1"/>
        <pt x="721" y="684" on="0"/>
        <pt x="793" y="683" on="0"/>
        <pt x="825" y="683" on="1"/>
        <pt x="855" y="683" on="0"/>
        <pt x="931" y="684" on="0"/>
        <pt x="960" y="686" on="1"/>
        <pt x="952" y="639" on="1"/>
        <pt x="926" y="639" on="1"/>
        <pt x="900" y="639" on="0"/>
        <pt x="874" y="636" on="1"/>
        <pt x="852" y="634" on="0"/>
        <pt x="842" y="628" on="0"/>
        <pt x="840" y="615" on="1"/>
      </contour>
    </TTGlyph>
    <TTGlyph name="Upsilon" xMin="155" yMin="0" xMax="922" yMax="697">
      <contour>
        <pt x="526" y="47" on="1"/>
        <pt x="661" y="47" on="1"/>
        <pt x="653" y="0" on="1"/>
        <pt x="637" y="1" on="0"/>
        <pt x="582" y="2" on="0"/>
        <pt x="523" y="3" on="0"/>
        <pt x="467" y="3" on="0"/>
        <pt x="448" y="3" on="1"/>
        <pt x="429" y="3" on="0"/>
        <pt x="372" y="3" on="0"/>
        <pt x="312" y="2" on="0"/>
        <pt x="258" y="1" on="0"/>
        <pt x="241" y="0" on="1"/>
        <pt x="248" y="47" on="1"/>
        <pt x="384" y="47" on="1"/>
        <pt x="433" y="344" on="1"/>
        <pt x="434" y="349" on="0"/>
        <pt x="439" y="387" on="0"/>
        <pt x="439" y="407" on="1"/>
        <pt x="439" y="411" on="0"/>
        <pt x="438" y="437" on="0"/>
        <pt x="432" y="473" on="0"/>
        <pt x="420" y="513" on="0"/>
        <pt x="408" y="531" on="1"/>
        <pt x="396" y="550" on="0"/>
        <pt x="367" y="571" on="0"/>
        <pt x="339" y="580" on="0"/>
        <pt x="311" y="582" on="0"/>
        <pt x="300" y="582" on="1"/>
        <pt x="270" y="582" on="0"/>
        <pt x="235" y="576" on="0"/>
        <pt x="217" y="567" on="0"/>
        <pt x="210" y="554" on="0"/>
        <pt x="208" y="548" on="1"/>
        <pt x="204" y="535" on="0"/>
        <pt x="188" y="531" on="0"/>
        <pt x="179" y="531" on="1"/>
        <pt x="171" y="531" on="0"/>
        <pt x="155" y="535" on="0"/>
        <pt x="155" y="546" on="1"/>
        <pt x="155" y="563" on="0"/>
        <pt x="179" y="614" on="0"/>
        <pt x="224" y="662" on="0"/>
        <pt x="290" y="697" on="0"/>
        <pt x="333" y="697" on="1"/>
        <pt x="373" y="697" on="0"/>
        <pt x="431" y="671" on="0"/>
        <pt x="473" y="631" on="0"/>
        <pt x="500" y="580" on="0"/>
        <pt x="517" y="530" on="0"/>
        <pt x="524" y="485" on="0"/>
        <pt x="526" y="471" on="1"/>
        <pt x="527" y="471" on="1"/>
        <pt x="542" y="510" on="0"/>
        <pt x="592" y="591" on="0"/>
        <pt x="659" y="656" on="0"/>
        <pt x="743" y="697" on="0"/>
        <pt x="792" y="697" on="1"/>
        <pt x="848" y="697" on="0"/>
        <pt x="922" y="629" on="0"/>
        <pt x="922" y="573" on="1"/>
        <pt x="922" y="548" on="0"/>
        <pt x="911" y="531" on="0"/>
        <pt x="891" y="531" on="1"/>
        <pt x="874" y="531" on="0"/>
        <pt x="868" y="540" on="0"/>
        <pt x="868" y="553" on="1"/>
        <pt x="867" y="559" on="0"/>
        <pt x="862" y="569" on="0"/>
        <pt x="846" y="577" on="0"/>
        <pt x="815" y="582" on="0"/>
        <pt x="787" y="582" on="1"/>
        <pt x="775" y="582" on="0"/>
        <pt x="743" y="580" on="0"/>
        <pt x="706" y="566" on="0"/>
        <pt x="666" y="537" on="0"/>
        <pt x="645" y="510" on="1"/>
        <pt x="591" y="442" on="0"/>
        <pt x="577" y="355" on="1"/>
      </contour>
    </TTGlyph>
    <TTGlyph name="V" xMin="132" yMin="-8" xMax="957" yMax="686">
      <contour>
        <pt x="477" y="17" on="1"/>
        <pt x="466" y="0" on="0"/>
        <pt x="449" y="-8" on="0"/>
        <pt x="433" y="-8" on="1"/>
        <pt x="411" y="-8" on="0"/>
        <pt x="401" y="4" on="0"/>
        <pt x="397" y="18" on="1"/>
        <pt x="225" y="639" on="1"/>
        <pt x="132" y="639" on="1"/>
        <pt x="140" y="686" on="1"/>
        <pt x="153" y="685" on="0"/>
        <pt x="195" y="684" on="0"/>
        <pt x="240" y="683" on="0"/>
        <pt x="283" y="683" on="0"/>
        <pt x="298" y="683" on="1"/>
        <pt x="314" y="683" on="0"/>
        <pt x="363" y="683" on="0"/>
        <pt x="414" y="684" on="0"/>
        <pt x="461" y="685" on="0"/>
        <pt x="475" y="686" on="1"/>
        <pt x="468" y="639" on="1"/>
        <pt x="374" y="639" on="1"/>
        <pt x="506" y="160" on="1"/>
        <pt x="784" y="616" on="1"/>
        <pt x="789" y="623" on="0"/>
        <pt x="790" y="626" on="0"/>
        <pt x="790" y="627" on="1"/>
        <pt x="790" y="632" on="0"/>
        <pt x="766" y="636" on="0"/>
        <pt x="736" y="639" on="0"/>
        <pt x="709" y="639" on="0"/>
        <pt x="705" y="639" on="1"/>
        <pt x="713" y="686" on="1"/>
        <pt x="741" y="684" on="0"/>
        <pt x="814" y="683" on="0"/>
        <pt x="843" y="683" on="1"/>
        <pt x="869" y="683" on="0"/>
        <pt x="928" y="685" on="0"/>
        <pt x="957" y="686" on="1"/>
        <pt x="949" y="639" on="1"/>
        <pt x="930" y="639" on="1"/>
        <pt x="902" y="639" on="0"/>
        <pt x="870" y="636" on="0"/>
        <pt x="853" y="630" on="0"/>
        <pt x="846" y="622" on="0"/>
        <pt x="843" y="617" on="1"/>
      </contour>
    </TTGlyph>
    <TTGlyph name="W" xMin="131" yMin="-8" xMax="1278" yMax="686">
      <contour>
        <pt x="1270" y="639" on="1"/>
        <pt x="1238" y="639" on="0"/>
        <pt x="1202" y="637" on="0"/>
        <pt x="1184" y="631" on="0"/>
        <pt x="1176" y="623" on="0"/>
        <pt x="1173" y="617" on="1"/>
        <pt x="840" y="17" on="1"/>
        <pt x="833" y="5" on="0"/>
        <pt x="820" y="-8" on="0"/>
        <pt x="802" y="-8" on="1"/>
        <pt x="789" y="-8" on="0"/>
        <pt x="774" y="1" on="0"/>
        <pt x="770" y="19" on="1"/>
        <pt x="672" y="468" on="1"/>
        <pt x="422" y="17" on="1"/>
        <pt x="415" y="5" on="0"/>
        <pt x="402" y="-8" on="0"/>
        <pt x="384" y="-8" on="1"/>
        <pt x="371" y="-8" on="0"/>
        <pt x="356" y="1" on="0"/>
        <pt x="352" y="19" on="1"/>
        <pt x="216" y="639" on="1"/>
        <pt x="131" y="639" on="1"/>
        <pt x="139" y="686" on="1"/>
        <pt x="153" y="685" on="0"/>
        <pt x="192" y="684" on="0"/>
        <pt x="235" y="683" on="0"/>
        <pt x="276" y="683" on="0"/>
        <pt x="291" y="683" on="1"/>
        <pt x="307" y="683" on="0"/>
        <pt x="355" y="683" on="0"/>
        <pt x="406" y="684" on="0"/>
        <pt x="452" y="685" on="0"/>
        <pt x="466" y="686" on="1"/>
        <pt x="459" y="639" on="1"/>
        <pt x="363" y="639" on="1"/>
        <pt x="463" y="181" on="1"/>
        <pt x="658" y="533" on="1"/>
        <pt x="634" y="639" on="1"/>
        <pt x="549" y="639" on="1"/>
        <pt x="557" y="686" on="1"/>
        <pt x="571" y="685" on="0"/>
        <pt x="610" y="684" on="0"/>
        <pt x="653" y="683" on="0"/>
        <pt x="694" y="683" on="0"/>
        <pt x="709" y="683" on="1"/>
        <pt x="725" y="683" on="0"/>
        <pt x="773" y="683" on="0"/>
        <pt x="824" y="684" on="0"/>
        <pt x="870" y="685" on="0"/>
        <pt x="884" y="686" on="1"/>
        <pt x="877" y="639" on="1"/>
        <pt x="781" y="639" on="1"/>
        <pt x="881" y="181" on="1"/>
        <pt x="1121" y="614" on="1"/>
        <pt x="1127" y="629" on="1"/>
        <pt x="1115" y="633" on="0"/>
        <pt x="1088" y="637" on="0"/>
        <pt x="1061" y="639" on="0"/>
        <pt x="1037" y="639" on="0"/>
        <pt x="1028" y="639" on="1"/>
        <pt x="1036" y="686" on="1"/>
        <pt x="1050" y="685" on="0"/>
        <pt x="1085" y="684" on="0"/>
        <pt x="1121" y="683" on="0"/>
        <pt x="1156" y="683" on="0"/>
        <pt x="1171" y="683" on="1"/>
        <pt x="1202" y="683" on="0"/>
        <pt x="1258" y="685" on="0"/>
        <pt x="1278" y="686" on="1"/>
      </contour>
    </TTGlyph>
    <TTGlyph name="X" xMin="34" yMin="0" xMax="900" yMax="686">
      <contour>
        <pt x="745" y="47" on="1"/>
        <pt x="843" y="47" on="1"/>
        <pt x="834" y="0" on="1"/>
        <pt x="821" y="1" on="0"/>
        <pt x="778" y="2" on="0"/>
        <pt x="732" y="3" on="0"/>
        <pt x="688" y="3" on="0"/>
        <pt x="673" y="3" on="1"/>
        <pt x="656" y="3" on="0"/>
        <pt x="607" y="3" on="0"/>
        <pt x="555" y="2" on="0"/>
        <pt x="507" y="1" on="0"/>
        <pt x="492" y="0" on="1"/>
        <pt x="500" y="47" on="1"/>
        <pt x="583" y="47" on="1"/>
        <pt x="449" y="288" on="1"/>
        <pt x="238" y="58" on="1"/>
        <pt x="264" y="50" on="0"/>
        <pt x="313" y="47" on="0"/>
        <pt x="328" y="47" on="1"/>
        <pt x="320" y="0" on="1"/>
        <pt x="307" y="1" on="0"/>
        <pt x="267" y="2" on="0"/>
        <pt x="224" y="3" on="0"/>
        <pt x="183" y="3" on="0"/>
        <pt x="168" y="3" on="1"/>
        <pt x="136" y="3" on="0"/>
        <pt x="66" y="2" on="0"/>
        <pt x="34" y="0" on="1"/>
        <pt x="42" y="47" on="1"/>
        <pt x="71" y="47" on="1"/>
        <pt x="82" y="47" on="0"/>
        <pt x="94" y="47" on="0"/>
        <pt x="106" y="48" on="0"/>
        <pt x="119" y="49" on="0"/>
        <pt x="131" y="50" on="1"/>
        <pt x="157" y="52" on="0"/>
        <pt x="171" y="58" on="0"/>
        <pt x="179" y="67" on="1"/>
        <pt x="424" y="333" on="1"/>
        <pt x="254" y="639" on="1"/>
        <pt x="156" y="639" on="1"/>
        <pt x="163" y="686" on="1"/>
        <pt x="164" y="686" on="1"/>
        <pt x="177" y="685" on="0"/>
        <pt x="220" y="684" on="0"/>
        <pt x="266" y="683" on="0"/>
        <pt x="310" y="683" on="0"/>
        <pt x="325" y="683" on="1"/>
        <pt x="341" y="683" on="0"/>
        <pt x="391" y="683" on="0"/>
        <pt x="444" y="684" on="0"/>
        <pt x="492" y="685" on="0"/>
        <pt x="506" y="686" on="1"/>
        <pt x="498" y="639" on="1"/>
        <pt x="415" y="639" on="1"/>
        <pt x="525" y="442" on="1"/>
        <pt x="697" y="628" on="1"/>
        <pt x="685" y="632" on="0"/>
        <pt x="658" y="637" on="0"/>
        <pt x="633" y="639" on="0"/>
        <pt x="613" y="639" on="0"/>
        <pt x="607" y="639" on="1"/>
        <pt x="614" y="686" on="1"/>
        <pt x="615" y="686" on="1"/>
        <pt x="628" y="685" on="0"/>
        <pt x="668" y="684" on="0"/>
        <pt x="711" y="683" on="0"/>
        <pt x="752" y="683" on="0"/>
        <pt x="766" y="683" on="1"/>
        <pt x="798" y="683" on="0"/>
        <pt x="868" y="684" on="0"/>
        <pt x="900" y="686" on="1"/>
        <pt x="892" y="639" on="1"/>
        <pt x="863" y="639" on="1"/>
        <pt x="831" y="639" on="0"/>
        <pt x="801" y="636" on="1"/>
        <pt x="789" y="635" on="0"/>
        <pt x="775" y="632" on="0"/>
        <pt x="766" y="629" on="0"/>
        <pt x="760" y="624" on="0"/>
        <pt x="757" y="620" on="1"/>
        <pt x="550" y="397" on="1"/>
      </contour>
    </TTGlyph>
    <TTGlyph name="Xi" xMin="57" yMin="0" xMax="815" yMax="675">
      <contour>
        <pt x="792" y="477" on="1"/>
        <pt x="745" y="477" on="1"/>
        <pt x="748" y="497" on="0"/>
        <pt x="749" y="512" on="0"/>
        <pt x="749" y="526" on="1"/>
        <pt x="749" y="550" on="0"/>
        <pt x="737" y="559" on="0"/>
        <pt x="722" y="561" on="1"/>
        <pt x="721" y="561" on="0"/>
        <pt x="706" y="562" on="0"/>
        <pt x="688" y="562" on="0"/>
        <pt x="669" y="563" on="0"/>
        <pt x="664" y="563" on="1"/>
        <pt x="290" y="563" on="1"/>
        <pt x="263" y="563" on="0"/>
        <pt x="210" y="560" on="0"/>
        <pt x="204" y="550" on="1"/>
        <pt x="196" y="539" on="0"/>
        <pt x="186" y="500" on="0"/>
        <pt x="181" y="477" on="1"/>
        <pt x="134" y="477" on="1"/>
        <pt x="175" y="675" on="1"/>
        <pt x="815" y="675" on="1"/>
      </contour>
      <contour>
        <pt x="83" y="209" on="1"/>
        <pt x="130" y="209" on="1"/>
        <pt x="126" y="183" on="0"/>
        <pt x="125" y="154" on="0"/>
        <pt x="125" y="151" on="1"/>
        <pt x="125" y="126" on="0"/>
        <pt x="135" y="117" on="0"/>
        <pt x="152" y="115" on="1"/>
        <pt x="161" y="114" on="0"/>
        <pt x="173" y="113" on="0"/>
        <pt x="185" y="112" on="0"/>
        <pt x="201" y="112" on="0"/>
        <pt x="214" y="112" on="1"/>
        <pt x="590" y="112" on="1"/>
        <pt x="599" y="112" on="0"/>
        <pt x="626" y="112" on="0"/>
        <pt x="653" y="115" on="0"/>
        <pt x="676" y="120" on="0"/>
        <pt x="679" y="124" on="1"/>
        <pt x="684" y="131" on="0"/>
        <pt x="693" y="156" on="0"/>
        <pt x="701" y="182" on="0"/>
        <pt x="705" y="205" on="0"/>
        <pt x="706" y="209" on="1"/>
        <pt x="753" y="209" on="1"/>
        <pt x="709" y="0" on="1"/>
        <pt x="57" y="0" on="1"/>
      </contour>
      <contour>
        <pt x="647" y="248" on="1"/>
        <pt x="600" y="248" on="1"/>
        <pt x="608" y="295" on="1"/>
        <pt x="256" y="295" on="1"/>
        <pt x="248" y="248" on="1"/>
        <pt x="201" y="248" on="1"/>
        <pt x="236" y="454" on="1"/>
        <pt x="283" y="454" on="1"/>
        <pt x="275" y="407" on="1"/>
        <pt x="627" y="407" on="1"/>
        <pt x="635" y="454" on="1"/>
        <pt x="682" y="454" on="1"/>
      </contour>
    </TTGlyph>
    <TTGlyph name="Y" xMin="126" yMin="0" xMax="963" yMax="686">
      <contour>
        <pt x="548" y="274" on="1"/>
        <pt x="510" y="47" on="1"/>
        <pt x="619" y="47" on="1"/>
        <pt x="610" y="0" on="1"/>
        <pt x="597" y="1" on="0"/>
        <pt x="550" y="2" on="0"/>
        <pt x="499" y="3" on="0"/>
        <pt x="450" y="3" on="0"/>
        <pt x="434" y="3" on="1"/>
        <pt x="419" y="3" on="0"/>
        <pt x="370" y="3" on="0"/>
        <pt x="318" y="2" on="0"/>
        <pt x="272" y="1" on="0"/>
        <pt x="258" y="0" on="1"/>
        <pt x="265" y="47" on="1"/>
        <pt x="374" y="47" on="1"/>
        <pt x="412" y="274" on="1"/>
        <pt x="223" y="639" on="1"/>
        <pt x="126" y="639" on="1"/>
        <pt x="134" y="686" on="1"/>
        <pt x="147" y="685" on="0"/>
        <pt x="190" y="684" on="0"/>
        <pt x="238" y="683" on="0"/>
        <pt x="283" y="683" on="0"/>
        <pt x="298" y="683" on="1"/>
        <pt x="315" y="683" on="0"/>
        <pt x="365" y="683" on="0"/>
        <pt x="417" y="684" on="0"/>
        <pt x="466" y="685" on="0"/>
        <pt x="481" y="686" on="1"/>
        <pt x="473" y="639" on="1"/>
        <pt x="388" y="639" on="1"/>
        <pt x="542" y="342" on="1"/>
        <pt x="784" y="628" on="1"/>
        <pt x="782" y="629" on="0"/>
        <pt x="782" y="631" on="0"/>
        <pt x="777" y="632" on="1"/>
        <pt x="770" y="635" on="0"/>
        <pt x="748" y="637" on="0"/>
        <pt x="727" y="639" on="0"/>
        <pt x="711" y="639" on="0"/>
        <pt x="709" y="639" on="1"/>
        <pt x="717" y="686" on="1"/>
        <pt x="746" y="684" on="0"/>
        <pt x="819" y="683" on="0"/>
        <pt x="849" y="683" on="1"/>
        <pt x="860" y="683" on="0"/>
        <pt x="888" y="684" on="0"/>
        <pt x="919" y="685" on="0"/>
        <pt x="950" y="686" on="0"/>
        <pt x="963" y="686" on="1"/>
        <pt x="955" y="639" on="1"/>
        <pt x="935" y="639" on="1"/>
        <pt x="921" y="639" on="0"/>
        <pt x="887" y="637" on="0"/>
        <pt x="879" y="636" on="1"/>
        <pt x="860" y="634" on="0"/>
        <pt x="850" y="629" on="0"/>
        <pt x="841" y="618" on="1"/>
      </contour>
    </TTGlyph>
    <TTGlyph name="Z" xMin="67" yMin="0" xMax="749" yMax="686">
      <contour>
        <pt x="239" y="51" on="1"/>
        <pt x="379" y="51" on="1"/>
        <pt x="457" y="51" on="0"/>
        <pt x="552" y="93" on="0"/>
        <pt x="608" y="161" on="0"/>
        <pt x="635" y="244" on="0"/>
        <pt x="645" y="284" on="1"/>
        <pt x="692" y="284" on="1"/>
        <pt x="627" y="0" on="1"/>
        <pt x="96" y="0" on="1"/>
        <pt x="83" y="0" on="0"/>
        <pt x="67" y="4" on="0"/>
        <pt x="67" y="16" on="1"/>
        <pt x="67" y="30" on="0"/>
        <pt x="74" y="43" on="0"/>
        <pt x="82" y="52" on="1"/>
        <pt x="579" y="639" on="1"/>
        <pt x="449" y="639" on="1"/>
        <pt x="402" y="639" on="0"/>
        <pt x="322" y="619" on="0"/>
        <pt x="259" y="574" on="0"/>
        <pt x="213" y="500" on="0"/>
        <pt x="201" y="445" on="1"/>
        <pt x="154" y="445" on="1"/>
        <pt x="206" y="686" on="1"/>
        <pt x="720" y="686" on="1"/>
        <pt x="731" y="686" on="0"/>
        <pt x="749" y="682" on="0"/>
        <pt x="749" y="671" on="1"/>
        <pt x="749" y="657" on="0"/>
        <pt x="741" y="643" on="0"/>
        <pt x="736" y="637" on="1"/>
      </contour>
    </TTGlyph>
    <TTGlyph name="a" xMin="49" yMin="-6" xMax="563" yMax="453">
      <contour>
        <pt x="481" y="0" on="1"/>
        <pt x="469" y="0" on="0"/>
        <pt x="436" y="3" on="0"/>
        <pt x="405" y="14" on="0"/>
        <pt x="384" y="37" on="0"/>
        <pt x="384" y="56" on="1"/>
        <pt x="384" y="64" on="0"/>
        <pt x="386" y="74" on="1"/>
        <pt x="385" y="73" on="0"/>
        <pt x="365" y="47" on="0"/>
        <pt x="326" y="18" on="0"/>
        <pt x="267" y="-6" on="0"/>
        <pt x="227" y="-6" on="1"/>
        <pt x="209" y="-6" on="0"/>
        <pt x="149" y="-1" on="0"/>
        <pt x="91" y="20" on="0"/>
        <pt x="49" y="60" on="0"/>
        <pt x="49" y="95" on="1"/>
        <pt x="49" y="118" on="0"/>
        <pt x="68" y="159" on="0"/>
        <pt x="102" y="194" on="0"/>
        <pt x="148" y="221" on="0"/>
        <pt x="175" y="230" on="1"/>
        <pt x="204" y="240" on="0"/>
        <pt x="252" y="252" on="0"/>
        <pt x="303" y="259" on="0"/>
        <pt x="362" y="263" on="0"/>
        <pt x="401" y="265" on="1"/>
        <pt x="404" y="282" on="0"/>
        <pt x="410" y="322" on="0"/>
        <pt x="410" y="333" on="1"/>
        <pt x="410" y="365" on="0"/>
        <pt x="388" y="399" on="0"/>
        <pt x="358" y="414" on="0"/>
        <pt x="327" y="417" on="0"/>
        <pt x="319" y="417" on="1"/>
        <pt x="306" y="417" on="0"/>
        <pt x="280" y="415" on="0"/>
        <pt x="258" y="413" on="0"/>
        <pt x="244" y="410" on="0"/>
        <pt x="244" y="409" on="1"/>
        <pt x="244" y="408" on="0"/>
        <pt x="247" y="404" on="0"/>
        <pt x="247" y="403" on="1"/>
        <pt x="258" y="389" on="0"/>
        <pt x="258" y="370" on="1"/>
        <pt x="258" y="338" on="0"/>
        <pt x="213" y="298" on="0"/>
        <pt x="187" y="298" on="1"/>
        <pt x="162" y="298" on="0"/>
        <pt x="131" y="328" on="0"/>
        <pt x="131" y="351" on="1"/>
        <pt x="131" y="389" on="0"/>
        <pt x="180" y="431" on="0"/>
        <pt x="245" y="450" on="0"/>
        <pt x="309" y="453" on="0"/>
        <pt x="324" y="453" on="1"/>
        <pt x="383" y="453" on="0"/>
        <pt x="459" y="429" on="0"/>
        <pt x="505" y="392" on="0"/>
        <pt x="523" y="346" on="0"/>
        <pt x="523" y="323" on="1"/>
        <pt x="523" y="314" on="0"/>
        <pt x="517" y="274" on="0"/>
        <pt x="514" y="258" on="1"/>
        <pt x="513" y="254" on="0"/>
        <pt x="510" y="235" on="0"/>
        <pt x="507" y="216" on="0"/>
        <pt x="504" y="199" on="0"/>
        <pt x="504" y="196" on="1"/>
        <pt x="503" y="190" on="0"/>
        <pt x="496" y="149" on="0"/>
        <pt x="488" y="104" on="0"/>
        <pt x="482" y="67" on="0"/>
        <pt x="482" y="65" on="1"/>
        <pt x="482" y="59" on="0"/>
        <pt x="497" y="51" on="0"/>
        <pt x="516" y="48" on="0"/>
        <pt x="535" y="47" on="0"/>
        <pt x="538" y="47" on="1"/>
        <pt x="544" y="47" on="0"/>
        <pt x="563" y="42" on="0"/>
        <pt x="563" y="28" on="1"/>
        <pt x="563" y="7" on="0"/>
        <pt x="543" y="0" on="0"/>
        <pt x="529" y="0" on="1"/>
      </contour>
      <contour>
        <pt x="396" y="234" on="1"/>
        <pt x="320" y="230" on="0"/>
        <pt x="229" y="195" on="0"/>
        <pt x="181" y="151" on="0"/>
        <pt x="166" y="107" on="0"/>
        <pt x="166" y="95" on="1"/>
        <pt x="166" y="65" on="0"/>
        <pt x="211" y="30" on="0"/>
        <pt x="243" y="30" on="1"/>
        <pt x="262" y="30" on="0"/>
        <pt x="314" y="45" on="0"/>
        <pt x="337" y="64" on="1"/>
        <pt x="363" y="86" on="0"/>
        <pt x="378" y="127" on="0"/>
        <pt x="382" y="150" on="1"/>
        <pt x="386" y="171" on="0"/>
        <pt x="392" y="213" on="0"/>
      </contour>
    </TTGlyph>
    <TTGlyph name="acute" xMin="329" yMin="509" xMax="565" yMax="704">
      <contour>
        <pt x="353" y="509" on="1"/>
        <pt x="329" y="546" on="1"/>
        <pt x="341" y="557" on="0"/>
        <pt x="378" y="595" on="0"/>
        <pt x="419" y="636" on="0"/>
        <pt x="457" y="673" on="0"/>
        <pt x="469" y="684" on="1"/>
        <pt x="479" y="692" on="0"/>
        <pt x="501" y="704" on="0"/>
        <pt x="514" y="704" on="1"/>
        <pt x="537" y="704" on="0"/>
        <pt x="565" y="670" on="0"/>
        <pt x="565" y="650" on="1"/>
        <pt x="565" y="637" on="0"/>
        <pt x="555" y="617" on="0"/>
        <pt x="540" y="603" on="0"/>
        <pt x="525" y="594" on="0"/>
        <pt x="519" y="591" on="1"/>
      </contour>
    </TTGlyph>
    <TTGlyph name="ae" xMin="53" yMin="-6" xMax="843" yMax="453">
      <contour>
        <pt x="509" y="218" on="1"/>
        <pt x="507" y="209" on="0"/>
        <pt x="503" y="177" on="0"/>
        <pt x="503" y="158" on="1"/>
        <pt x="503" y="148" on="0"/>
        <pt x="508" y="107" on="0"/>
        <pt x="531" y="65" on="0"/>
        <pt x="580" y="34" on="0"/>
        <pt x="624" y="34" on="1"/>
        <pt x="631" y="34" on="0"/>
        <pt x="665" y="38" on="0"/>
        <pt x="707" y="55" on="0"/>
        <pt x="752" y="89" on="0"/>
        <pt x="770" y="120" on="1"/>
        <pt x="775" y="128" on="0"/>
        <pt x="782" y="135" on="0"/>
        <pt x="794" y="135" on="1"/>
        <pt x="798" y="135" on="0"/>
        <pt x="817" y="131" on="0"/>
        <pt x="817" y="117" on="1"/>
        <pt x="817" y="111" on="0"/>
        <pt x="794" y="71" on="0"/>
        <pt x="744" y="28" on="0"/>
        <pt x="668" y="-6" on="0"/>
        <pt x="615" y="-6" on="1"/>
        <pt x="556" y="-6" on="0"/>
        <pt x="466" y="30" on="0"/>
        <pt x="438" y="59" on="1"/>
        <pt x="416" y="38" on="0"/>
        <pt x="360" y="12" on="0"/>
        <pt x="303" y="-2" on="0"/>
        <pt x="250" y="-6" on="0"/>
        <pt x="230" y="-6" on="1"/>
        <pt x="218" y="-6" on="0"/>
        <pt x="159" y="-3" on="0"/>
        <pt x="99" y="15" on="0"/>
        <pt x="53" y="54" on="0"/>
        <pt x="53" y="90" on="1"/>
        <pt x="53" y="127" on="0"/>
        <pt x="102" y="184" on="0"/>
        <pt x="189" y="224" on="0"/>
        <pt x="306" y="246" on="0"/>
        <pt x="374" y="247" on="1"/>
        <pt x="379" y="247" on="0"/>
        <pt x="393" y="248" on="0"/>
        <pt x="397" y="249" on="1"/>
        <pt x="399" y="249" on="0"/>
        <pt x="404" y="272" on="0"/>
        <pt x="408" y="300" on="0"/>
        <pt x="411" y="328" on="0"/>
        <pt x="411" y="333" on="1"/>
        <pt x="411" y="365" on="0"/>
        <pt x="388" y="399" on="0"/>
        <pt x="358" y="414" on="0"/>
        <pt x="327" y="417" on="0"/>
        <pt x="319" y="417" on="1"/>
        <pt x="299" y="417" on="0"/>
        <pt x="261" y="414" on="0"/>
        <pt x="242" y="410" on="1"/>
        <pt x="258" y="395" on="0"/>
        <pt x="258" y="370" on="1"/>
        <pt x="258" y="338" on="0"/>
        <pt x="213" y="298" on="0"/>
        <pt x="187" y="298" on="1"/>
        <pt x="162" y="298" on="0"/>
        <pt x="131" y="328" on="0"/>
        <pt x="131" y="351" on="1"/>
        <pt x="131" y="389" on="0"/>
        <pt x="180" y="431" on="0"/>
        <pt x="245" y="450" on="0"/>
        <pt x="310" y="453" on="0"/>
        <pt x="325" y="453" on="1"/>
        <pt x="369" y="453" on="0"/>
        <pt x="460" y="434" on="0"/>
        <pt x="495" y="398" on="1"/>
        <pt x="533" y="426" on="0"/>
        <pt x="623" y="453" on="0"/>
        <pt x="671" y="453" on="1"/>
        <pt x="718" y="453" on="0"/>
        <pt x="783" y="429" on="0"/>
        <pt x="824" y="386" on="0"/>
        <pt x="843" y="327" on="0"/>
        <pt x="843" y="293" on="1"/>
        <pt x="843" y="265" on="0"/>
        <pt x="838" y="234" on="0"/>
        <pt x="829" y="220" on="0"/>
        <pt x="815" y="218" on="0"/>
        <pt x="805" y="218" on="1"/>
      </contour>
      <contour>
        <pt x="744" y="251" on="1"/>
        <pt x="746" y="262" on="0"/>
        <pt x="750" y="294" on="0"/>
        <pt x="750" y="312" on="1"/>
        <pt x="750" y="329" on="0"/>
        <pt x="744" y="366" on="0"/>
        <pt x="728" y="397" on="0"/>
        <pt x="697" y="417" on="0"/>
        <pt x="671" y="417" on="1"/>
        <pt x="636" y="417" on="0"/>
        <pt x="582" y="388" on="0"/>
        <pt x="544" y="341" on="0"/>
        <pt x="520" y="282" on="0"/>
        <pt x="515" y="251" on="1"/>
      </contour>
      <contour>
        <pt x="394" y="214" on="1"/>
        <pt x="337" y="213" on="0"/>
        <pt x="253" y="190" on="0"/>
        <pt x="198" y="155" on="0"/>
        <pt x="170" y="112" on="0"/>
        <pt x="170" y="90" on="1"/>
        <pt x="170" y="65" on="0"/>
        <pt x="209" y="30" on="0"/>
        <pt x="244" y="30" on="1"/>
        <pt x="280" y="30" on="0"/>
        <pt x="337" y="52" on="0"/>
        <pt x="378" y="83" on="0"/>
        <pt x="399" y="118" on="0"/>
        <pt x="399" y="131" on="1"/>
        <pt x="399" y="133" on="0"/>
        <pt x="397" y="138" on="1"/>
        <pt x="394" y="153" on="0"/>
        <pt x="392" y="180" on="0"/>
        <pt x="392" y="187" on="1"/>
        <pt x="392" y="195" on="0"/>
        <pt x="393" y="208" on="0"/>
      </contour>
    </TTGlyph>
    <TTGlyph name="ampersand" xMin="70" yMin="-11" xMax="910" yMax="705">
      <contour>
        <pt x="902" y="397" on="1"/>
        <pt x="881" y="397" on="0"/>
        <pt x="830" y="395" on="0"/>
        <pt x="810" y="388" on="1"/>
        <pt x="758" y="327" on="0"/>
        <pt x="687" y="244" on="0"/>
        <pt x="630" y="183" on="0"/>
        <pt x="579" y="135" on="0"/>
        <pt x="547" y="108" on="1"/>
        <pt x="547" y="107" on="0"/>
        <pt x="567" y="85" on="0"/>
        <pt x="602" y="58" on="0"/>
        <pt x="649" y="36" on="0"/>
        <pt x="676" y="36" on="1"/>
        <pt x="694" y="36" on="0"/>
        <pt x="735" y="45" on="0"/>
        <pt x="771" y="65" on="0"/>
        <pt x="798" y="96" on="0"/>
        <pt x="802" y="118" on="1"/>
        <pt x="849" y="118" on="1"/>
        <pt x="844" y="89" on="0"/>
        <pt x="809" y="41" on="0"/>
        <pt x="760" y="7" on="0"/>
        <pt x="698" y="-11" on="0"/>
        <pt x="666" y="-11" on="1"/>
        <pt x="625" y="-11" on="0"/>
        <pt x="520" y="16" on="0"/>
        <pt x="466" y="52" on="1"/>
        <pt x="418" y="23" on="0"/>
        <pt x="314" y="-11" on="0"/>
        <pt x="258" y="-11" on="1"/>
        <pt x="223" y="-11" on="0"/>
        <pt x="155" y="5" on="0"/>
        <pt x="102" y="38" on="0"/>
        <pt x="70" y="87" on="0"/>
        <pt x="70" y="121" on="1"/>
        <pt x="70" y="145" on="0"/>
        <pt x="85" y="184" on="0"/>
        <pt x="107" y="213" on="0"/>
        <pt x="131" y="234" on="0"/>
        <pt x="140" y="240" on="1"/>
        <pt x="271" y="339" on="1"/>
        <pt x="259" y="386" on="0"/>
        <pt x="255" y="445" on="0"/>
        <pt x="255" y="461" on="1"/>
        <pt x="255" y="514" on="0"/>
        <pt x="273" y="588" on="0"/>
        <pt x="299" y="621" on="1"/>
        <pt x="329" y="660" on="0"/>
        <pt x="421" y="705" on="0"/>
        <pt x="466" y="705" on="1"/>
        <pt x="511" y="705" on="0"/>
        <pt x="559" y="643" on="0"/>
        <pt x="559" y="596" on="1"/>
        <pt x="559" y="581" on="0"/>
        <pt x="554" y="554" on="0"/>
        <pt x="539" y="524" on="0"/>
        <pt x="511" y="489" on="0"/>
        <pt x="487" y="466" on="1"/>
        <pt x="478" y="457" on="0"/>
        <pt x="421" y="406" on="0"/>
        <pt x="383" y="378" on="1"/>
        <pt x="394" y="337" on="0"/>
        <pt x="438" y="255" on="0"/>
        <pt x="483" y="187" on="0"/>
        <pt x="517" y="143" on="0"/>
        <pt x="519" y="141" on="1"/>
        <pt x="566" y="179" on="0"/>
        <pt x="676" y="296" on="0"/>
        <pt x="752" y="388" on="1"/>
        <pt x="734" y="394" on="0"/>
        <pt x="701" y="397" on="0"/>
        <pt x="682" y="397" on="1"/>
        <pt x="690" y="444" on="1"/>
        <pt x="698" y="444" on="0"/>
        <pt x="728" y="443" on="0"/>
        <pt x="762" y="442" on="0"/>
        <pt x="797" y="441" on="0"/>
        <pt x="811" y="441" on="1"/>
        <pt x="831" y="441" on="0"/>
        <pt x="886" y="442" on="0"/>
        <pt x="910" y="444" on="1"/>
      </contour>
      <contour>
        <pt x="373" y="416" on="1"/>
        <pt x="393" y="432" on="0"/>
        <pt x="445" y="477" on="0"/>
        <pt x="465" y="498" on="1"/>
        <pt x="481" y="515" on="0"/>
        <pt x="500" y="544" on="0"/>
        <pt x="510" y="568" on="0"/>
        <pt x="513" y="590" on="0"/>
        <pt x="513" y="601" on="1"/>
        <pt x="513" y="608" on="0"/>
        <pt x="510" y="631" on="0"/>
        <pt x="501" y="653" on="0"/>
        <pt x="483" y="669" on="0"/>
        <pt x="468" y="669" on="1"/>
        <pt x="441" y="669" on="0"/>
        <pt x="397" y="633" on="0"/>
        <pt x="384" y="610" on="1"/>
        <pt x="371" y="585" on="0"/>
        <pt x="365" y="522" on="0"/>
        <pt x="365" y="499" on="1"/>
        <pt x="365" y="488" on="0"/>
        <pt x="367" y="448" on="0"/>
      </contour>
      <contour>
        <pt x="283" y="302" on="1"/>
        <pt x="261" y="287" on="0"/>
        <pt x="230" y="247" on="0"/>
        <pt x="210" y="202" on="0"/>
        <pt x="202" y="155" on="0"/>
        <pt x="202" y="134" on="1"/>
        <pt x="202" y="36" on="0"/>
        <pt x="271" y="36" on="1"/>
        <pt x="305" y="36" on="0"/>
        <pt x="386" y="57" on="0"/>
        <pt x="429" y="80" on="1"/>
        <pt x="379" y="125" on="0"/>
        <pt x="304" y="242" on="0"/>
      </contour>
    </TTGlyph>
    <TTGlyph name="asterisk" xMin="146" yMin="306" xMax="604" yMax="750">
      <contour>
        <pt x="389" y="496" on="1"/>
        <pt x="389" y="360" on="1"/>
        <pt x="389" y="346" on="0"/>
        <pt x="386" y="331" on="0"/>
        <pt x="375" y="321" on="1"/>
        <pt x="366" y="312" on="0"/>
        <pt x="345" y="306" on="0"/>
        <pt x="338" y="306" on="1"/>
        <pt x="320" y="306" on="0"/>
        <pt x="300" y="326" on="0"/>
        <pt x="300" y="339" on="1"/>
        <pt x="300" y="346" on="0"/>
        <pt x="302" y="352" on="1"/>
        <pt x="350" y="496" on="1"/>
        <pt x="226" y="413" on="1"/>
        <pt x="216" y="406" on="0"/>
        <pt x="192" y="392" on="0"/>
        <pt x="184" y="392" on="1"/>
        <pt x="165" y="392" on="0"/>
        <pt x="146" y="418" on="0"/>
        <pt x="146" y="432" on="1"/>
        <pt x="146" y="440" on="0"/>
        <pt x="158" y="471" on="0"/>
        <pt x="183" y="479" on="1"/>
        <pt x="333" y="528" on="1"/>
        <pt x="203" y="576" on="1"/>
        <pt x="192" y="580" on="0"/>
        <pt x="176" y="592" on="0"/>
        <pt x="176" y="609" on="1"/>
        <pt x="176" y="630" on="0"/>
        <pt x="209" y="664" on="0"/>
        <pt x="229" y="664" on="1"/>
        <pt x="236" y="664" on="0"/>
        <pt x="243" y="661" on="0"/>
        <pt x="244" y="661" on="1"/>
        <pt x="361" y="560" on="1"/>
        <pt x="361" y="696" on="1"/>
        <pt x="361" y="710" on="0"/>
        <pt x="364" y="725" on="0"/>
        <pt x="375" y="735" on="1"/>
        <pt x="386" y="746" on="0"/>
        <pt x="409" y="750" on="0"/>
        <pt x="412" y="750" on="1"/>
        <pt x="430" y="750" on="0"/>
        <pt x="450" y="730" on="0"/>
        <pt x="450" y="717" on="1"/>
        <pt x="450" y="712" on="0"/>
        <pt x="446" y="699" on="1"/>
        <pt x="400" y="560" on="1"/>
        <pt x="539" y="653" on="1"/>
        <pt x="547" y="658" on="0"/>
        <pt x="558" y="664" on="0"/>
        <pt x="566" y="664" on="1"/>
        <pt x="585" y="664" on="0"/>
        <pt x="604" y="638" on="0"/>
        <pt x="604" y="624" on="1"/>
        <pt x="604" y="616" on="0"/>
        <pt x="592" y="585" on="0"/>
        <pt x="567" y="577" on="1"/>
        <pt x="417" y="528" on="1"/>
        <pt x="547" y="480" on="1"/>
        <pt x="558" y="476" on="0"/>
        <pt x="574" y="464" on="0"/>
        <pt x="574" y="447" on="1"/>
        <pt x="574" y="426" on="0"/>
        <pt x="541" y="392" on="0"/>
        <pt x="521" y="392" on="1"/>
        <pt x="514" y="392" on="0"/>
        <pt x="507" y="395" on="0"/>
        <pt x="506" y="395" on="1"/>
      </contour>
    </TTGlyph>
    <TTGlyph name="at" xMin="116" yMin="-6" xMax="892" yMax="700">
      <contour>
        <pt x="724" y="482" on="1"/>
        <pt x="737" y="482" on="0"/>
        <pt x="754" y="478" on="0"/>
        <pt x="754" y="466" on="1"/>
        <pt x="754" y="464" on="0"/>
        <pt x="748" y="427" on="0"/>
        <pt x="740" y="381" on="0"/>
        <pt x="733" y="340" on="0"/>
        <pt x="732" y="334" on="1"/>
        <pt x="731" y="327" on="0"/>
        <pt x="724" y="285" on="0"/>
        <pt x="716" y="239" on="0"/>
        <pt x="710" y="201" on="0"/>
        <pt x="710" y="198" on="1"/>
        <pt x="710" y="196" on="0"/>
        <pt x="711" y="185" on="0"/>
        <pt x="715" y="173" on="0"/>
        <pt x="725" y="164" on="0"/>
        <pt x="734" y="164" on="1"/>
        <pt x="758" y="164" on="0"/>
        <pt x="792" y="196" on="0"/>
        <pt x="817" y="245" on="0"/>
        <pt x="833" y="305" on="0"/>
        <pt x="842" y="360" on="0"/>
        <pt x="845" y="403" on="0"/>
        <pt x="845" y="411" on="1"/>
        <pt x="845" y="476" on="0"/>
        <pt x="801" y="572" on="0"/>
        <pt x="724" y="634" on="0"/>
        <pt x="619" y="664" on="0"/>
        <pt x="559" y="664" on="1"/>
        <pt x="460" y="664" on="0"/>
        <pt x="311" y="595" on="0"/>
        <pt x="212" y="486" on="0"/>
        <pt x="163" y="350" on="0"/>
        <pt x="163" y="283" on="1"/>
        <pt x="163" y="231" on="0"/>
        <pt x="196" y="138" on="0"/>
        <pt x="267" y="70" on="0"/>
        <pt x="377" y="30" on="0"/>
        <pt x="453" y="30" on="1"/>
        <pt x="497" y="30" on="0"/>
        <pt x="655" y="49" on="0"/>
        <pt x="755" y="86" on="1"/>
        <pt x="768" y="91" on="0"/>
        <pt x="778" y="93" on="0"/>
        <pt x="790" y="93" on="1"/>
        <pt x="814" y="93" on="1"/>
        <pt x="826" y="93" on="0"/>
        <pt x="842" y="90" on="0"/>
        <pt x="842" y="79" on="1"/>
        <pt x="842" y="70" on="0"/>
        <pt x="831" y="65" on="1"/>
        <pt x="813" y="58" on="0"/>
        <pt x="740" y="34" on="0"/>
        <pt x="640" y="11" on="0"/>
        <pt x="519" y="-6" on="0"/>
        <pt x="452" y="-6" on="1"/>
        <pt x="365" y="-6" on="0"/>
        <pt x="238" y="39" on="0"/>
        <pt x="155" y="118" on="0"/>
        <pt x="116" y="224" on="0"/>
        <pt x="116" y="284" on="1"/>
        <pt x="116" y="356" on="0"/>
        <pt x="171" y="504" on="0"/>
        <pt x="281" y="624" on="0"/>
        <pt x="449" y="700" on="0"/>
        <pt x="561" y="700" on="1"/>
        <pt x="632" y="700" on="0"/>
        <pt x="754" y="664" on="0"/>
        <pt x="842" y="591" on="0"/>
        <pt x="892" y="482" on="0"/>
        <pt x="892" y="410" on="1"/>
        <pt x="892" y="394" on="0"/>
        <pt x="887" y="340" on="0"/>
        <pt x="872" y="277" on="0"/>
        <pt x="848" y="213" on="0"/>
        <pt x="810" y="161" on="0"/>
        <pt x="758" y="128" on="0"/>
        <pt x="722" y="128" on="1"/>
        <pt x="715" y="128" on="0"/>
        <pt x="683" y="130" on="0"/>
        <pt x="647" y="139" on="0"/>
        <pt x="614" y="157" on="0"/>
        <pt x="604" y="173" on="1"/>
        <pt x="587" y="159" on="0"/>
        <pt x="518" y="128" on="0"/>
        <pt x="468" y="128" on="1"/>
        <pt x="427" y="128" on="0"/>
        <pt x="355" y="151" on="0"/>
        <pt x="302" y="196" on="0"/>
        <pt x="271" y="263" on="0"/>
        <pt x="271" y="308" on="1"/>
        <pt x="271" y="353" on="0"/>
        <pt x="305" y="445" on="0"/>
        <pt x="371" y="519" on="0"/>
        <pt x="471" y="566" on="0"/>
        <pt x="537" y="566" on="1"/>
        <pt x="556" y="566" on="0"/>
        <pt x="598" y="559" on="0"/>
        <pt x="638" y="540" on="0"/>
        <pt x="674" y="508" on="0"/>
        <pt x="686" y="482" on="1"/>
      </contour>
      <contour>
        <pt x="638" y="457" on="1"/>
        <pt x="639" y="466" on="0"/>
        <pt x="641" y="473" on="1"/>
        <pt x="630" y="492" on="0"/>
        <pt x="602" y="515" on="0"/>
        <pt x="573" y="527" on="0"/>
        <pt x="547" y="530" on="0"/>
        <pt x="538" y="530" on="1"/>
        <pt x="500" y="530" on="0"/>
        <pt x="442" y="484" on="0"/>
        <pt x="403" y="413" on="0"/>
        <pt x="383" y="327" on="0"/>
        <pt x="383" y="287" on="1"/>
        <pt x="383" y="263" on="0"/>
        <pt x="393" y="219" on="0"/>
        <pt x="414" y="185" on="0"/>
        <pt x="449" y="164" on="0"/>
        <pt x="473" y="164" on="1"/>
        <pt x="495" y="164" on="0"/>
        <pt x="557" y="183" on="0"/>
        <pt x="586" y="211" on="1"/>
        <pt x="596" y="220" on="0"/>
        <pt x="600" y="229" on="0"/>
        <pt x="602" y="240" on="1"/>
      </contour>
    </TTGlyph>
    <TTGlyph name="b" xMin="106" yMin="-6" xMax="641" yMax="694">
      <contour>
        <pt x="282" y="404" on="1"/>
        <pt x="314" y="424" on="0"/>
        <pt x="388" y="450" on="0"/>
        <pt x="433" y="450" on="1"/>
        <pt x="480" y="450" on="0"/>
        <pt x="557" y="424" on="0"/>
        <pt x="611" y="376" on="0"/>
        <pt x="641" y="307" on="0"/>
        <pt x="641" y="263" on="1"/>
        <pt x="641" y="212" on="0"/>
        <pt x="602" y="116" on="0"/>
        <pt x="528" y="40" on="0"/>
        <pt x="419" y="-6" on="0"/>
        <pt x="349" y="-6" on="1"/>
        <pt x="318" y="-6" on="0"/>
        <pt x="270" y="9" on="0"/>
        <pt x="237" y="30" on="0"/>
        <pt x="217" y="51" on="0"/>
        <pt x="213" y="57" on="1"/>
        <pt x="206" y="50" on="0"/>
        <pt x="200" y="45" on="0"/>
        <pt x="192" y="38" on="1"/>
        <pt x="172" y="20" on="0"/>
        <pt x="154" y="0" on="1"/>
        <pt x="106" y="0" on="1"/>
        <pt x="205" y="596" on="1"/>
        <pt x="207" y="608" on="0"/>
        <pt x="208" y="615" on="0"/>
        <pt x="208" y="618" on="1"/>
        <pt x="208" y="629" on="0"/>
        <pt x="197" y="636" on="0"/>
        <pt x="184" y="638" on="1"/>
        <pt x="176" y="639" on="0"/>
        <pt x="153" y="639" on="0"/>
        <pt x="143" y="639" on="1"/>
        <pt x="151" y="686" on="1"/>
        <pt x="330" y="694" on="1"/>
      </contour>
      <contour>
        <pt x="239" y="112" on="1"/>
        <pt x="237" y="104" on="0"/>
        <pt x="237" y="101" on="0"/>
        <pt x="237" y="100" on="1"/>
        <pt x="237" y="97" on="0"/>
        <pt x="249" y="74" on="0"/>
        <pt x="274" y="49" on="0"/>
        <pt x="313" y="30" on="0"/>
        <pt x="341" y="30" on="1"/>
        <pt x="382" y="30" on="0"/>
        <pt x="455" y="71" on="0"/>
        <pt x="476" y="109" on="1"/>
        <pt x="488" y="132" on="0"/>
        <pt x="505" y="197" on="0"/>
        <pt x="515" y="258" on="0"/>
        <pt x="519" y="305" on="0"/>
        <pt x="519" y="309" on="1"/>
        <pt x="519" y="316" on="0"/>
        <pt x="516" y="350" on="0"/>
        <pt x="498" y="386" on="0"/>
        <pt x="458" y="414" on="0"/>
        <pt x="421" y="414" on="1"/>
        <pt x="394" y="414" on="0"/>
        <pt x="316" y="387" on="0"/>
        <pt x="278" y="348" on="1"/>
      </contour>
    </TTGlyph>
    <TTGlyph name="bracketleft" xMin="86" yMin="-250" xMax="418" yMax="750">
      <contour>
        <pt x="158" y="-189" on="1"/>
        <pt x="261" y="-189" on="1"/>
        <pt x="251" y="-250" on="1"/>
        <pt x="86" y="-250" on="1"/>
        <pt x="253" y="750" on="1"/>
        <pt x="418" y="750" on="1"/>
        <pt x="408" y="689" on="1"/>
        <pt x="304" y="689" on="1"/>
      </contour>
    </TTGlyph>
    <TTGlyph name="bracketright" xMin="-17" yMin="-250" xMax="315" yMax="750">
      <contour>
        <pt x="148" y="-250" on="1"/>
        <pt x="-17" y="-250" on="1"/>
        <pt x="-7" y="-189" on="1"/>
        <pt x="98" y="-189" on="1"/>
        <pt x="244" y="689" on="1"/>
        <pt x="140" y="689" on="1"/>
        <pt x="150" y="750" on="1"/>
        <pt x="315" y="750" on="1"/>
      </contour>
    </TTGlyph>
    <TTGlyph name="breve" xMin="223" yMin="507" xMax="580" yMax="694">
      <contour>
        <pt x="580" y="694" on="1"/>
        <pt x="572" y="652" on="0"/>
        <pt x="531" y="583" on="0"/>
        <pt x="474" y="534" on="0"/>
        <pt x="406" y="507" on="0"/>
        <pt x="372" y="507" on="1"/>
        <pt x="339" y="507" on="0"/>
        <pt x="284" y="531" on="0"/>
        <pt x="245" y="572" on="0"/>
        <pt x="223" y="629" on="0"/>
        <pt x="223" y="662" on="1"/>
        <pt x="223" y="678" on="0"/>
        <pt x="226" y="694" on="1"/>
        <pt x="262" y="694" on="1"/>
        <pt x="260" y="688" on="0"/>
        <pt x="260" y="675" on="1"/>
        <pt x="260" y="629" on="0"/>
        <pt x="329" y="569" on="0"/>
        <pt x="382" y="569" on="1"/>
        <pt x="407" y="569" on="0"/>
        <pt x="459" y="585" on="0"/>
        <pt x="504" y="617" on="0"/>
        <pt x="538" y="664" on="0"/>
        <pt x="544" y="694" on="1"/>
      </contour>
    </TTGlyph>
    <TTGlyph name="c" xMin="72" yMin="-6" xMax="526" yMax="453">
      <contour>
        <pt x="427" y="408" on="1"/>
        <pt x="422" y="409" on="0"/>
        <pt x="392" y="413" on="0"/>
        <pt x="366" y="413" on="1"/>
        <pt x="334" y="413" on="0"/>
        <pt x="288" y="393" on="0"/>
        <pt x="257" y="367" on="0"/>
        <pt x="239" y="341" on="0"/>
        <pt x="236" y="334" on="1"/>
        <pt x="222" y="307" on="0"/>
        <pt x="206" y="245" on="0"/>
        <pt x="198" y="192" on="0"/>
        <pt x="196" y="156" on="0"/>
        <pt x="196" y="155" on="1"/>
        <pt x="196" y="122" on="0"/>
        <pt x="214" y="76" on="0"/>
        <pt x="245" y="47" on="0"/>
        <pt x="286" y="34" on="0"/>
        <pt x="309" y="34" on="1"/>
        <pt x="353" y="34" on="0"/>
        <pt x="426" y="77" on="0"/>
        <pt x="446" y="112" on="1"/>
        <pt x="454" y="126" on="0"/>
        <pt x="462" y="131" on="0"/>
        <pt x="474" y="131" on="1"/>
        <pt x="481" y="131" on="0"/>
        <pt x="497" y="128" on="0"/>
        <pt x="497" y="117" on="1"/>
        <pt x="497" y="114" on="0"/>
        <pt x="477" y="75" on="0"/>
        <pt x="429" y="30" on="0"/>
        <pt x="348" y="-6" on="0"/>
        <pt x="287" y="-6" on="1"/>
        <pt x="245" y="-6" on="0"/>
        <pt x="167" y="15" on="0"/>
        <pt x="107" y="61" on="0"/>
        <pt x="72" y="133" on="0"/>
        <pt x="72" y="183" on="1"/>
        <pt x="72" y="228" on="0"/>
        <pt x="106" y="324" on="0"/>
        <pt x="177" y="403" on="0"/>
        <pt x="288" y="453" on="0"/>
        <pt x="364" y="453" on="1"/>
        <pt x="394" y="453" on="0"/>
        <pt x="452" y="447" on="0"/>
        <pt x="498" y="429" on="0"/>
        <pt x="526" y="397" on="0"/>
        <pt x="526" y="372" on="1"/>
        <pt x="526" y="353" on="0"/>
        <pt x="512" y="325" on="0"/>
        <pt x="491" y="307" on="0"/>
        <pt x="466" y="298" on="0"/>
        <pt x="455" y="298" on="1"/>
        <pt x="430" y="298" on="0"/>
        <pt x="399" y="328" on="0"/>
        <pt x="399" y="351" on="1"/>
        <pt x="399" y="356" on="0"/>
        <pt x="407" y="393" on="0"/>
      </contour>
    </TTGlyph>
    <TTGlyph name="caron" xMin="235" yMin="518" xMax="542" yMax="653">
      <contour>
        <pt x="528" y="653" on="1"/>
        <pt x="542" y="611" on="1"/>
        <pt x="373" y="518" on="1"/>
        <pt x="235" y="611" on="1"/>
        <pt x="264" y="653" on="1"/>
        <pt x="387" y="600" on="1"/>
      </contour>
    </TTGlyph>
    <TTGlyph name="cedilla" xMin="101" yMin="-199" xMax="422" yMax="-11">
      <contour>
        <pt x="339" y="-30" on="1"/>
        <pt x="370" y="-35" on="0"/>
        <pt x="404" y="-53" on="0"/>
        <pt x="419" y="-73" on="0"/>
        <pt x="422" y="-92" on="0"/>
        <pt x="422" y="-99" on="1"/>
        <pt x="422" y="-124" on="0"/>
        <pt x="393" y="-158" on="0"/>
        <pt x="346" y="-180" on="0"/>
        <pt x="287" y="-193" on="0"/>
        <pt x="228" y="-198" on="0"/>
        <pt x="175" y="-199" on="0"/>
        <pt x="158" y="-199" on="1"/>
        <pt x="101" y="-199" on="1"/>
        <pt x="101" y="-196" on="1"/>
        <pt x="101" y="-195" on="0"/>
        <pt x="103" y="-186" on="0"/>
        <pt x="105" y="-175" on="0"/>
        <pt x="107" y="-165" on="0"/>
        <pt x="107" y="-163" on="1"/>
        <pt x="145" y="-163" on="1"/>
        <pt x="231" y="-163" on="0"/>
        <pt x="308" y="-133" on="0"/>
        <pt x="308" y="-104" on="1"/>
        <pt x="308" y="-88" on="0"/>
        <pt x="285" y="-70" on="0"/>
        <pt x="255" y="-62" on="0"/>
        <pt x="226" y="-60" on="0"/>
        <pt x="220" y="-60" on="1"/>
        <pt x="228" y="-11" on="1"/>
        <pt x="342" y="-11" on="1"/>
      </contour>
    </TTGlyph>
    <TTGlyph name="circumflex" xMin="225" yMin="529" xMax="538" yMax="694">
      <contour>
        <pt x="538" y="567" on="1"/>
        <pt x="504" y="530" on="1"/>
        <pt x="389" y="612" on="1"/>
        <pt x="246" y="529" on="1"/>
        <pt x="225" y="568" on="1"/>
        <pt x="403" y="694" on="1"/>
      </contour>
    </TTGlyph>
    <TTGlyph name="colon" xMin="93" yMin="0" xMax="299" yMax="444">
      <contour>
        <pt x="299" y="376" on="1"/>
        <pt x="299" y="359" on="0"/>
        <pt x="284" y="327" on="0"/>
        <pt x="260" y="303" on="0"/>
        <pt x="228" y="288" on="0"/>
        <pt x="210" y="288" on="1"/>
        <pt x="178" y="288" on="0"/>
        <pt x="141" y="328" on="0"/>
        <pt x="141" y="356" on="1"/>
        <pt x="141" y="373" on="0"/>
        <pt x="156" y="405" on="0"/>
        <pt x="180" y="429" on="0"/>
        <pt x="212" y="444" on="0"/>
        <pt x="230" y="444" on="1"/>
        <pt x="262" y="444" on="0"/>
        <pt x="299" y="404" on="0"/>
      </contour>
      <contour>
        <pt x="251" y="88" on="1"/>
        <pt x="251" y="71" on="0"/>
        <pt x="236" y="39" on="0"/>
        <pt x="212" y="15" on="0"/>
        <pt x="180" y="0" on="0"/>
        <pt x="162" y="0" on="1"/>
        <pt x="130" y="0" on="0"/>
        <pt x="93" y="40" on="0"/>
        <pt x="93" y="68" on="1"/>
        <pt x="93" y="85" on="0"/>
        <pt x="108" y="117" on="0"/>
        <pt x="132" y="141" on="0"/>
        <pt x="164" y="156" on="0"/>
        <pt x="182" y="156" on="1"/>
        <pt x="214" y="156" on="0"/>
        <pt x="251" y="116" on="0"/>
      </contour>
    </TTGlyph>
    <TTGlyph name="comma" xMin="82" yMin="-194" xMax="258" yMax="156">
      <contour>
        <pt x="216" y="18" on="1"/>
        <pt x="215" y="18" on="0"/>
        <pt x="186" y="0" on="0"/>
        <pt x="162" y="0" on="1"/>
        <pt x="130" y="0" on="0"/>
        <pt x="93" y="37" on="0"/>
        <pt x="93" y="67" on="1"/>
        <pt x="93" y="83" on="0"/>
        <pt x="105" y="115" on="0"/>
        <pt x="128" y="140" on="0"/>
        <pt x="161" y="156" on="0"/>
        <pt x="182" y="156" on="1"/>
        <pt x="202" y="156" on="0"/>
        <pt x="231" y="139" on="0"/>
        <pt x="249" y="112" on="0"/>
        <pt x="258" y="77" on="0"/>
        <pt x="258" y="59" on="1"/>
        <pt x="258" y="9" on="0"/>
        <pt x="215" y="-82" on="0"/>
        <pt x="160" y="-152" on="0"/>
        <pt x="109" y="-194" on="0"/>
        <pt x="100" y="-194" on="1"/>
        <pt x="93" y="-194" on="0"/>
        <pt x="82" y="-180" on="0"/>
        <pt x="82" y="-174" on="1"/>
        <pt x="82" y="-169" on="0"/>
        <pt x="87" y="-163" on="0"/>
        <pt x="94" y="-158" on="1"/>
        <pt x="139" y="-126" on="0"/>
        <pt x="202" y="-40" on="0"/>
      </contour>
    </TTGlyph>
    <TTGlyph name="d" xMin="72" yMin="-6" xMax="648" yMax="694">
      <contour>
        <pt x="546" y="81" on="1"/>
        <pt x="545" y="75" on="0"/>
        <pt x="544" y="70" on="0"/>
        <pt x="544" y="68" on="1"/>
        <pt x="544" y="52" on="0"/>
        <pt x="574" y="47" on="0"/>
        <pt x="609" y="47" on="1"/>
        <pt x="601" y="0" on="1"/>
        <pt x="417" y="-6" on="1"/>
        <pt x="424" y="41" on="1"/>
        <pt x="382" y="12" on="0"/>
        <pt x="308" y="-6" on="0"/>
        <pt x="279" y="-6" on="1"/>
        <pt x="242" y="-6" on="0"/>
        <pt x="168" y="13" on="0"/>
        <pt x="109" y="57" on="0"/>
        <pt x="72" y="129" on="0"/>
        <pt x="72" y="181" on="1"/>
        <pt x="72" y="237" on="0"/>
        <pt x="114" y="335" on="0"/>
        <pt x="190" y="408" on="0"/>
        <pt x="297" y="450" on="0"/>
        <pt x="362" y="450" on="1"/>
        <pt x="372" y="450" on="0"/>
        <pt x="401" y="448" on="0"/>
        <pt x="436" y="439" on="0"/>
        <pt x="473" y="420" on="0"/>
        <pt x="491" y="404" on="1"/>
        <pt x="523" y="596" on="1"/>
        <pt x="525" y="608" on="0"/>
        <pt x="526" y="615" on="0"/>
        <pt x="526" y="618" on="1"/>
        <pt x="526" y="629" on="0"/>
        <pt x="515" y="636" on="0"/>
        <pt x="502" y="638" on="1"/>
        <pt x="494" y="639" on="0"/>
        <pt x="471" y="639" on="0"/>
        <pt x="461" y="639" on="1"/>
        <pt x="469" y="686" on="1"/>
        <pt x="648" y="694" on="1"/>
      </contour>
      <contour>
        <pt x="477" y="355" on="1"/>
        <pt x="441" y="414" on="0"/>
        <pt x="371" y="414" on="1"/>
        <pt x="354" y="414" on="0"/>
        <pt x="317" y="406" on="0"/>
        <pt x="281" y="387" on="0"/>
        <pt x="248" y="357" on="0"/>
        <pt x="236" y="335" on="1"/>
        <pt x="224" y="313" on="0"/>
        <pt x="207" y="247" on="0"/>
        <pt x="197" y="186" on="0"/>
        <pt x="193" y="139" on="0"/>
        <pt x="193" y="135" on="1"/>
        <pt x="193" y="115" on="0"/>
        <pt x="203" y="77" on="0"/>
        <pt x="225" y="48" on="0"/>
        <pt x="262" y="30" on="0"/>
        <pt x="290" y="30" on="1"/>
        <pt x="310" y="30" on="0"/>
        <pt x="358" y="42" on="0"/>
        <pt x="383" y="59" on="1"/>
        <pt x="402" y="71" on="0"/>
        <pt x="434" y="99" on="0"/>
        <pt x="438" y="121" on="1"/>
      </contour>
    </TTGlyph>
    <TTGlyph name="dieresis" xMin="206" yMin="550" xMax="575" yMax="695">
      <contour>
        <pt x="353" y="631" on="1"/>
        <pt x="353" y="616" on="0"/>
        <pt x="340" y="587" on="0"/>
        <pt x="317" y="564" on="0"/>
        <pt x="288" y="550" on="0"/>
        <pt x="271" y="550" on="1"/>
        <pt x="240" y="550" on="0"/>
        <pt x="206" y="589" on="0"/>
        <pt x="206" y="614" on="1"/>
        <pt x="206" y="629" on="0"/>
        <pt x="219" y="659" on="0"/>
        <pt x="242" y="681" on="0"/>
        <pt x="272" y="695" on="0"/>
        <pt x="288" y="695" on="1"/>
        <pt x="320" y="695" on="0"/>
        <pt x="353" y="654" on="0"/>
      </contour>
      <contour>
        <pt x="575" y="631" on="1"/>
        <pt x="575" y="614" on="0"/>
        <pt x="561" y="585" on="0"/>
        <pt x="538" y="563" on="0"/>
        <pt x="508" y="550" on="0"/>
        <pt x="493" y="550" on="1"/>
        <pt x="467" y="550" on="0"/>
        <pt x="429" y="585" on="0"/>
        <pt x="429" y="614" on="1"/>
        <pt x="429" y="630" on="0"/>
        <pt x="443" y="659" on="0"/>
        <pt x="465" y="682" on="0"/>
        <pt x="495" y="695" on="0"/>
        <pt x="511" y="695" on="1"/>
        <pt x="535" y="695" on="0"/>
        <pt x="575" y="663" on="0"/>
      </contour>
    </TTGlyph>
    <TTGlyph name="dollar" xMin="92" yMin="-56" xMax="599" yMax="750">
      <contour>
        <pt x="382" y="428" on="1"/>
        <pt x="393" y="426" on="0"/>
        <pt x="421" y="419" on="0"/>
        <pt x="453" y="405" on="0"/>
        <pt x="486" y="385" on="0"/>
        <pt x="500" y="369" on="1"/>
        <pt x="517" y="349" on="0"/>
        <pt x="548" y="289" on="0"/>
        <pt x="548" y="243" on="1"/>
        <pt x="548" y="211" on="0"/>
        <pt x="524" y="129" on="0"/>
        <pt x="468" y="55" on="0"/>
        <pt x="377" y="0" on="0"/>
        <pt x="310" y="-5" on="1"/>
        <pt x="302" y="-56" on="1"/>
        <pt x="255" y="-56" on="1"/>
        <pt x="263" y="-5" on="1"/>
        <pt x="212" y="-1" on="0"/>
        <pt x="146" y="31" on="0"/>
        <pt x="107" y="76" on="0"/>
        <pt x="92" y="129" on="0"/>
        <pt x="92" y="154" on="1"/>
        <pt x="92" y="161" on="0"/>
        <pt x="95" y="194" on="0"/>
        <pt x="109" y="227" on="0"/>
        <pt x="139" y="252" on="0"/>
        <pt x="166" y="252" on="1"/>
        <pt x="171" y="252" on="0"/>
        <pt x="190" y="248" on="0"/>
        <pt x="208" y="237" on="0"/>
        <pt x="221" y="216" on="0"/>
        <pt x="221" y="198" on="1"/>
        <pt x="221" y="191" on="0"/>
        <pt x="216" y="167" on="0"/>
        <pt x="200" y="144" on="0"/>
        <pt x="169" y="127" on="0"/>
        <pt x="143" y="127" on="1"/>
        <pt x="149" y="103" on="0"/>
        <pt x="177" y="72" on="0"/>
        <pt x="212" y="53" on="0"/>
        <pt x="252" y="44" on="0"/>
        <pt x="271" y="42" on="1"/>
        <pt x="313" y="294" on="1"/>
        <pt x="287" y="299" on="0"/>
        <pt x="224" y="320" on="0"/>
        <pt x="192" y="352" on="1"/>
        <pt x="163" y="381" on="0"/>
        <pt x="144" y="447" on="0"/>
        <pt x="144" y="469" on="1"/>
        <pt x="144" y="500" on="0"/>
        <pt x="169" y="577" on="0"/>
        <pt x="226" y="646" on="0"/>
        <pt x="316" y="696" on="0"/>
        <pt x="381" y="699" on="1"/>
        <pt x="389" y="750" on="1"/>
        <pt x="436" y="750" on="1"/>
        <pt x="428" y="699" on="1"/>
        <pt x="459" y="697" on="0"/>
        <pt x="520" y="680" on="0"/>
        <pt x="569" y="645" on="0"/>
        <pt x="599" y="589" on="0"/>
        <pt x="599" y="549" on="1"/>
        <pt x="599" y="512" on="0"/>
        <pt x="566" y="456" on="0"/>
        <pt x="526" y="456" on="1"/>
        <pt x="518" y="456" on="0"/>
        <pt x="499" y="461" on="0"/>
        <pt x="482" y="473" on="0"/>
        <pt x="471" y="494" on="0"/>
        <pt x="471" y="509" on="1"/>
        <pt x="471" y="522" on="0"/>
        <pt x="480" y="547" on="0"/>
        <pt x="498" y="568" on="0"/>
        <pt x="527" y="581" on="0"/>
        <pt x="546" y="581" on="1"/>
        <pt x="533" y="618" on="0"/>
        <pt x="462" y="650" on="0"/>
        <pt x="420" y="652" on="1"/>
      </contour>
      <contour>
        <pt x="373" y="652" on="1"/>
        <pt x="336" y="648" on="0"/>
        <pt x="284" y="623" on="0"/>
        <pt x="250" y="588" on="0"/>
        <pt x="234" y="547" on="0"/>
        <pt x="234" y="529" on="1"/>
        <pt x="234" y="496" on="0"/>
        <pt x="286" y="447" on="0"/>
        <pt x="337" y="438" on="1"/>
      </contour>
      <contour>
        <pt x="318" y="43" on="1"/>
        <pt x="359" y="47" on="0"/>
        <pt x="413" y="80" on="0"/>
        <pt x="446" y="122" on="0"/>
        <pt x="459" y="166" on="0"/>
        <pt x="459" y="182" on="1"/>
        <pt x="459" y="193" on="0"/>
        <pt x="451" y="223" on="0"/>
        <pt x="430" y="253" on="0"/>
        <pt x="391" y="277" on="0"/>
        <pt x="359" y="283" on="1"/>
      </contour>
    </TTGlyph>
    <TTGlyph name="dotaccent" xMin="183" yMin="539" xMax="341" yMax="695">
      <contour>
        <pt x="341" y="626" on="1"/>
        <pt x="341" y="610" on="0"/>
        <pt x="327" y="579" on="0"/>
        <pt x="303" y="554" on="0"/>
        <pt x="271" y="539" on="0"/>
        <pt x="252" y="539" on="1"/>
        <pt x="223" y="539" on="0"/>
        <pt x="183" y="578" on="0"/>
        <pt x="183" y="607" on="1"/>
        <pt x="183" y="625" on="0"/>
        <pt x="198" y="657" on="0"/>
        <pt x="223" y="681" on="0"/>
        <pt x="255" y="695" on="0"/>
        <pt x="272" y="695" on="1"/>
        <pt x="302" y="695" on="0"/>
        <pt x="341" y="655" on="0"/>
      </contour>
    </TTGlyph>
    <TTGlyph name="dotlessi" xMin="47" yMin="0" xMax="299" yMax="450">
      <contour>
        <pt x="232" y="47" on="1"/>
        <pt x="294" y="47" on="1"/>
        <pt x="286" y="0" on="1"/>
        <pt x="274" y="0" on="0"/>
        <pt x="241" y="1" on="0"/>
        <pt x="207" y="2" on="0"/>
        <pt x="178" y="3" on="0"/>
        <pt x="169" y="3" on="1"/>
        <pt x="155" y="3" on="0"/>
        <pt x="121" y="2" on="0"/>
        <pt x="86" y="1" on="0"/>
        <pt x="56" y="0" on="0"/>
        <pt x="47" y="0" on="1"/>
        <pt x="54" y="47" on="1"/>
        <pt x="124" y="47" on="1"/>
        <pt x="176" y="363" on="1"/>
        <pt x="176" y="365" on="0"/>
        <pt x="178" y="373" on="0"/>
        <pt x="178" y="375" on="1"/>
        <pt x="178" y="390" on="0"/>
        <pt x="148" y="395" on="0"/>
        <pt x="116" y="395" on="1"/>
        <pt x="124" y="442" on="1"/>
        <pt x="299" y="450" on="1"/>
      </contour>
    </TTGlyph>
    <TTGlyph name="e" xMin="66" yMin="-6" xMax="538" yMax="453">
      <contour>
        <pt x="197" y="218" on="1"/>
        <pt x="192" y="191" on="0"/>
        <pt x="189" y="153" on="0"/>
        <pt x="189" y="148" on="1"/>
        <pt x="189" y="92" on="0"/>
        <pt x="249" y="34" on="0"/>
        <pt x="305" y="34" on="1"/>
        <pt x="312" y="34" on="0"/>
        <pt x="350" y="38" on="0"/>
        <pt x="397" y="54" on="0"/>
        <pt x="447" y="89" on="0"/>
        <pt x="465" y="120" on="1"/>
        <pt x="470" y="128" on="0"/>
        <pt x="479" y="135" on="0"/>
        <pt x="490" y="135" on="1"/>
        <pt x="494" y="135" on="0"/>
        <pt x="513" y="131" on="0"/>
        <pt x="513" y="117" on="1"/>
        <pt x="513" y="111" on="0"/>
        <pt x="489" y="71" on="0"/>
        <pt x="437" y="28" on="0"/>
        <pt x="354" y="-6" on="0"/>
        <pt x="295" y="-6" on="1"/>
        <pt x="242" y="-6" on="0"/>
        <pt x="157" y="21" on="0"/>
        <pt x="98" y="72" on="0"/>
        <pt x="66" y="143" on="0"/>
        <pt x="66" y="187" on="1"/>
        <pt x="66" y="232" on="0"/>
        <pt x="101" y="327" on="0"/>
        <pt x="172" y="404" on="0"/>
        <pt x="279" y="453" on="0"/>
        <pt x="351" y="453" on="1"/>
        <pt x="437" y="453" on="0"/>
        <pt x="538" y="374" on="0"/>
        <pt x="538" y="288" on="1"/>
        <pt x="538" y="262" on="0"/>
        <pt x="534" y="233" on="0"/>
        <pt x="525" y="220" on="0"/>
        <pt x="511" y="218" on="0"/>
        <pt x="501" y="218" on="1"/>
      </contour>
      <contour>
        <pt x="441" y="251" on="1"/>
        <pt x="442" y="258" on="0"/>
        <pt x="446" y="295" on="0"/>
        <pt x="446" y="306" on="1"/>
        <pt x="446" y="333" on="0"/>
        <pt x="431" y="385" on="0"/>
        <pt x="389" y="417" on="0"/>
        <pt x="352" y="417" on="1"/>
        <pt x="307" y="417" on="0"/>
        <pt x="251" y="374" on="0"/>
        <pt x="218" y="317" on="0"/>
        <pt x="204" y="263" on="0"/>
        <pt x="202" y="251" on="1"/>
      </contour>
    </TTGlyph>
    <TTGlyph name="eight" xMin="72" yMin="-11" xMax="581" yMax="655">
      <contour>
        <pt x="455" y="369" on="1"/>
        <pt x="474" y="357" on="0"/>
        <pt x="511" y="329" on="0"/>
        <pt x="541" y="293" on="0"/>
        <pt x="560" y="246" on="0"/>
        <pt x="560" y="214" on="1"/>
        <pt x="560" y="180" on="0"/>
        <pt x="531" y="102" on="0"/>
        <pt x="466" y="34" on="0"/>
        <pt x="361" y="-11" on="0"/>
        <pt x="286" y="-11" on="1"/>
        <pt x="239" y="-11" on="0"/>
        <pt x="161" y="7" on="0"/>
        <pt x="104" y="43" on="0"/>
        <pt x="72" y="97" on="0"/>
        <pt x="72" y="134" on="1"/>
        <pt x="72" y="183" on="0"/>
        <pt x="113" y="253" on="0"/>
        <pt x="167" y="299" on="0"/>
        <pt x="219" y="325" on="0"/>
        <pt x="231" y="329" on="1"/>
        <pt x="199" y="350" on="0"/>
        <pt x="158" y="413" on="0"/>
        <pt x="158" y="456" on="1"/>
        <pt x="158" y="488" on="0"/>
        <pt x="185" y="558" on="0"/>
        <pt x="242" y="617" on="0"/>
        <pt x="332" y="655" on="0"/>
        <pt x="396" y="655" on="1"/>
        <pt x="478" y="655" on="0"/>
        <pt x="581" y="593" on="0"/>
        <pt x="581" y="530" on="1"/>
        <pt x="581" y="496" on="0"/>
        <pt x="555" y="443" on="0"/>
        <pt x="517" y="404" on="0"/>
        <pt x="473" y="378" on="0"/>
      </contour>
      <contour>
        <pt x="413" y="395" on="1"/>
        <pt x="421" y="400" on="0"/>
        <pt x="452" y="421" on="0"/>
        <pt x="483" y="454" on="0"/>
        <pt x="506" y="500" on="0"/>
        <pt x="506" y="530" on="1"/>
        <pt x="506" y="571" on="0"/>
        <pt x="446" y="616" on="0"/>
        <pt x="390" y="616" on="1"/>
        <pt x="345" y="616" on="0"/>
        <pt x="288" y="597" on="0"/>
        <pt x="256" y="570" on="0"/>
        <pt x="244" y="539" on="0"/>
        <pt x="244" y="527" on="1"/>
        <pt x="244" y="499" on="0"/>
        <pt x="280" y="476" on="1"/>
      </contour>
      <contour>
        <pt x="275" y="302" on="1"/>
        <pt x="252" y="291" on="0"/>
        <pt x="210" y="257" on="0"/>
        <pt x="178" y="215" on="0"/>
        <pt x="159" y="164" on="0"/>
        <pt x="159" y="135" on="1"/>
        <pt x="159" y="105" on="0"/>
        <pt x="183" y="65" on="0"/>
        <pt x="220" y="42" on="0"/>
        <pt x="268" y="32" on="0"/>
        <pt x="292" y="32" on="1"/>
        <pt x="339" y="32" on="0"/>
        <pt x="404" y="53" on="0"/>
        <pt x="444" y="86" on="0"/>
        <pt x="463" y="127" on="0"/>
        <pt x="463" y="147" on="1"/>
        <pt x="463" y="162" on="0"/>
        <pt x="454" y="183" on="0"/>
        <pt x="435" y="202" on="0"/>
        <pt x="405" y="222" on="0"/>
        <pt x="383" y="235" on="1"/>
      </contour>
    </TTGlyph>
    <TTGlyph name="emdash" xMin="43" yMin="256" xMax="1198" yMax="292">
      <contour>
        <pt x="43" y="256" on="1"/>
        <pt x="49" y="292" on="1"/>
        <pt x="1198" y="292" on="1"/>
        <pt x="1192" y="256" on="1"/>
      </contour>
    </TTGlyph>
    <TTGlyph name="endash" xMin="43" yMin="256" xMax="623" yMax="292">
      <contour>
        <pt x="617" y="256" on="1"/>
        <pt x="43" y="256" on="1"/>
        <pt x="49" y="292" on="1"/>
        <pt x="623" y="292" on="1"/>
      </contour>
    </TTGlyph>
    <TTGlyph name="equal" xMin="87" yMin="108" xMax="889" yMax="393">
      <contour>
        <pt x="165" y="332" on="1"/>
        <pt x="161" y="332" on="0"/>
        <pt x="147" y="333" on="0"/>
        <pt x="134" y="339" on="0"/>
        <pt x="124" y="351" on="0"/>
        <pt x="124" y="362" on="1"/>
        <pt x="124" y="374" on="0"/>
        <pt x="134" y="386" on="0"/>
        <pt x="149" y="392" on="0"/>
        <pt x="165" y="393" on="0"/>
        <pt x="171" y="393" on="1"/>
        <pt x="843" y="393" on="1"/>
        <pt x="849" y="393" on="0"/>
        <pt x="864" y="392" on="0"/>
        <pt x="879" y="386" on="0"/>
        <pt x="889" y="374" on="0"/>
        <pt x="889" y="362" on="1"/>
        <pt x="889" y="351" on="0"/>
        <pt x="880" y="339" on="0"/>
        <pt x="867" y="333" on="0"/>
        <pt x="854" y="332" on="0"/>
        <pt x="849" y="332" on="1"/>
      </contour>
      <contour>
        <pt x="134" y="108" on="1"/>
        <pt x="128" y="108" on="0"/>
        <pt x="112" y="109" on="0"/>
        <pt x="97" y="115" on="0"/>
        <pt x="87" y="127" on="0"/>
        <pt x="87" y="139" on="1"/>
        <pt x="87" y="150" on="0"/>
        <pt x="96" y="162" on="0"/>
        <pt x="110" y="168" on="0"/>
        <pt x="124" y="169" on="0"/>
        <pt x="128" y="169" on="1"/>
        <pt x="812" y="169" on="1"/>
        <pt x="816" y="169" on="0"/>
        <pt x="830" y="168" on="0"/>
        <pt x="843" y="162" on="0"/>
        <pt x="852" y="150" on="0"/>
        <pt x="852" y="139" on="1"/>
        <pt x="852" y="127" on="0"/>
        <pt x="842" y="115" on="0"/>
        <pt x="827" y="109" on="0"/>
        <pt x="812" y="108" on="0"/>
        <pt x="806" y="108" on="1"/>
      </contour>
    </TTGlyph>
    <TTGlyph name="exclam" xMin="109" yMin="0" xMax="360" yMax="705">
      <contour>
        <pt x="241" y="244" on="1"/>
        <pt x="236" y="230" on="0"/>
        <pt x="226" y="226" on="0"/>
        <pt x="215" y="226" on="1"/>
        <pt x="198" y="226" on="0"/>
        <pt x="192" y="236" on="0"/>
        <pt x="192" y="258" on="1"/>
        <pt x="192" y="303" on="0"/>
        <pt x="196" y="392" on="0"/>
        <pt x="197" y="437" on="1"/>
        <pt x="198" y="483" on="0"/>
        <pt x="199" y="578" on="0"/>
        <pt x="201" y="624" on="1"/>
        <pt x="202" y="645" on="0"/>
        <pt x="220" y="676" on="0"/>
        <pt x="246" y="695" on="0"/>
        <pt x="277" y="705" on="0"/>
        <pt x="290" y="705" on="1"/>
        <pt x="319" y="705" on="0"/>
        <pt x="360" y="671" on="0"/>
        <pt x="360" y="642" on="1"/>
        <pt x="360" y="638" on="0"/>
        <pt x="358" y="626" on="0"/>
        <pt x="355" y="616" on="1"/>
      </contour>
      <contour>
        <pt x="267" y="88" on="1"/>
        <pt x="267" y="71" on="0"/>
        <pt x="253" y="39" on="0"/>
        <pt x="228" y="15" on="0"/>
        <pt x="196" y="0" on="0"/>
        <pt x="178" y="0" on="1"/>
        <pt x="147" y="0" on="0"/>
        <pt x="109" y="41" on="0"/>
        <pt x="109" y="68" on="1"/>
        <pt x="109" y="85" on="0"/>
        <pt x="123" y="117" on="0"/>
        <pt x="148" y="141" on="0"/>
        <pt x="180" y="156" on="0"/>
        <pt x="198" y="156" on="1"/>
        <pt x="229" y="156" on="0"/>
        <pt x="267" y="115" on="0"/>
      </contour>
    </TTGlyph>
    <TTGlyph name="exclamdown" xMin="73" yMin="-205" xMax="324" yMax="500">
      <contour>
        <pt x="324" y="432" on="1"/>
        <pt x="324" y="414" on="0"/>
        <pt x="309" y="382" on="0"/>
        <pt x="284" y="358" on="0"/>
        <pt x="253" y="344" on="0"/>
        <pt x="236" y="344" on="1"/>
        <pt x="204" y="344" on="0"/>
        <pt x="166" y="385" on="0"/>
        <pt x="166" y="412" on="1"/>
        <pt x="166" y="429" on="0"/>
        <pt x="181" y="461" on="0"/>
        <pt x="205" y="485" on="0"/>
        <pt x="237" y="500" on="0"/>
        <pt x="255" y="500" on="1"/>
        <pt x="284" y="500" on="0"/>
        <pt x="324" y="462" on="0"/>
      </contour>
      <contour>
        <pt x="192" y="254" on="1"/>
        <pt x="197" y="268" on="0"/>
        <pt x="206" y="274" on="0"/>
        <pt x="218" y="274" on="1"/>
        <pt x="229" y="274" on="0"/>
        <pt x="242" y="269" on="0"/>
        <pt x="242" y="254" on="1"/>
        <pt x="242" y="220" on="0"/>
        <pt x="239" y="151" on="0"/>
        <pt x="238" y="117" on="1"/>
        <pt x="237" y="79" on="0"/>
        <pt x="236" y="0" on="0"/>
        <pt x="234" y="-38" on="1"/>
        <pt x="234" y="-45" on="0"/>
        <pt x="233" y="-74" on="0"/>
        <pt x="233" y="-105" on="0"/>
        <pt x="232" y="-132" on="0"/>
        <pt x="231" y="-137" on="1"/>
        <pt x="224" y="-170" on="0"/>
        <pt x="171" y="-205" on="0"/>
        <pt x="143" y="-205" on="1"/>
        <pt x="112" y="-205" on="0"/>
        <pt x="73" y="-168" on="0"/>
        <pt x="73" y="-142" on="1"/>
        <pt x="73" y="-137" on="0"/>
        <pt x="76" y="-127" on="0"/>
        <pt x="79" y="-116" on="1"/>
      </contour>
    </TTGlyph>
    <TTGlyph name="f" xMin="48" yMin="0" xMax="540" yMax="700">
      <contour>
        <pt x="233" y="47" on="1"/>
        <pt x="320" y="47" on="1"/>
        <pt x="311" y="0" on="1"/>
        <pt x="282" y="2" on="0"/>
        <pt x="204" y="3" on="0"/>
        <pt x="174" y="3" on="1"/>
        <pt x="145" y="3" on="0"/>
        <pt x="71" y="1" on="0"/>
        <pt x="48" y="0" on="1"/>
        <pt x="55" y="47" on="1"/>
        <pt x="125" y="47" on="1"/>
        <pt x="183" y="397" on="1"/>
        <pt x="108" y="397" on="1"/>
        <pt x="116" y="444" on="1"/>
        <pt x="191" y="444" on="1"/>
        <pt x="208" y="550" on="1"/>
        <pt x="213" y="583" on="0"/>
        <pt x="251" y="638" on="0"/>
        <pt x="311" y="678" on="0"/>
        <pt x="390" y="700" on="0"/>
        <pt x="437" y="700" on="1"/>
        <pt x="465" y="700" on="0"/>
        <pt x="504" y="686" on="0"/>
        <pt x="529" y="664" on="0"/>
        <pt x="540" y="637" on="0"/>
        <pt x="540" y="623" on="1"/>
        <pt x="540" y="588" on="0"/>
        <pt x="494" y="551" on="0"/>
        <pt x="470" y="551" on="1"/>
        <pt x="451" y="551" on="0"/>
        <pt x="415" y="576" on="0"/>
        <pt x="415" y="604" on="1"/>
        <pt x="415" y="607" on="0"/>
        <pt x="417" y="620" on="0"/>
        <pt x="423" y="637" on="0"/>
        <pt x="436" y="655" on="0"/>
        <pt x="446" y="662" on="1"/>
        <pt x="443" y="664" on="0"/>
        <pt x="439" y="664" on="0"/>
        <pt x="433" y="664" on="1"/>
        <pt x="386" y="664" on="0"/>
        <pt x="321" y="603" on="0"/>
        <pt x="312" y="557" on="1"/>
        <pt x="293" y="444" on="1"/>
        <pt x="414" y="444" on="1"/>
        <pt x="406" y="397" on="1"/>
        <pt x="291" y="397" on="1"/>
      </contour>
    </TTGlyph>
    <TTGlyph name="f_f" xMin="37" yMin="0" xMax="849" yMax="700">
      <contour>
        <pt x="540" y="47" on="1"/>
        <pt x="627" y="47" on="1"/>
        <pt x="618" y="0" on="1"/>
        <pt x="589" y="2" on="0"/>
        <pt x="511" y="3" on="0"/>
        <pt x="481" y="3" on="1"/>
        <pt x="452" y="3" on="0"/>
        <pt x="378" y="1" on="0"/>
        <pt x="355" y="0" on="1"/>
        <pt x="362" y="47" on="1"/>
        <pt x="432" y="47" on="1"/>
        <pt x="490" y="397" on="1"/>
        <pt x="280" y="397" on="1"/>
        <pt x="222" y="47" on="1"/>
        <pt x="291" y="47" on="1"/>
        <pt x="283" y="0" on="1"/>
        <pt x="257" y="1" on="0"/>
        <pt x="192" y="3" on="0"/>
        <pt x="160" y="3" on="1"/>
        <pt x="146" y="3" on="0"/>
        <pt x="112" y="2" on="0"/>
        <pt x="77" y="1" on="0"/>
        <pt x="47" y="0" on="0"/>
        <pt x="37" y="0" on="1"/>
        <pt x="44" y="47" on="1"/>
        <pt x="114" y="47" on="1"/>
        <pt x="172" y="397" on="1"/>
        <pt x="97" y="397" on="1"/>
        <pt x="105" y="444" on="1"/>
        <pt x="180" y="444" on="1"/>
        <pt x="198" y="552" on="1"/>
        <pt x="204" y="586" on="0"/>
        <pt x="251" y="641" on="0"/>
        <pt x="326" y="679" on="0"/>
        <pt x="427" y="700" on="0"/>
        <pt x="485" y="700" on="1"/>
        <pt x="492" y="700" on="0"/>
        <pt x="519" y="699" on="0"/>
        <pt x="552" y="693" on="0"/>
        <pt x="586" y="679" on="0"/>
        <pt x="601" y="666" on="1"/>
        <pt x="633" y="684" on="0"/>
        <pt x="711" y="700" on="0"/>
        <pt x="746" y="700" on="1"/>
        <pt x="800" y="700" on="0"/>
        <pt x="849" y="652" on="0"/>
        <pt x="849" y="623" on="1"/>
        <pt x="849" y="588" on="0"/>
        <pt x="803" y="551" on="0"/>
        <pt x="779" y="551" on="1"/>
        <pt x="760" y="551" on="0"/>
        <pt x="724" y="576" on="0"/>
        <pt x="724" y="604" on="1"/>
        <pt x="724" y="607" on="0"/>
        <pt x="726" y="620" on="0"/>
        <pt x="732" y="637" on="0"/>
        <pt x="745" y="655" on="0"/>
        <pt x="755" y="662" on="1"/>
        <pt x="750" y="664" on="0"/>
        <pt x="741" y="664" on="1"/>
        <pt x="697" y="664" on="0"/>
        <pt x="629" y="607" on="0"/>
        <pt x="619" y="557" on="1"/>
        <pt x="600" y="444" on="1"/>
        <pt x="723" y="444" on="1"/>
        <pt x="715" y="397" on="1"/>
        <pt x="598" y="397" on="1"/>
      </contour>
      <contour>
        <pt x="498" y="444" on="1"/>
        <pt x="516" y="551" on="1"/>
        <pt x="506" y="559" on="0"/>
        <pt x="498" y="580" on="0"/>
        <pt x="498" y="591" on="1"/>
        <pt x="498" y="611" on="0"/>
        <pt x="520" y="646" on="0"/>
        <pt x="537" y="655" on="1"/>
        <pt x="519" y="662" on="0"/>
        <pt x="483" y="664" on="0"/>
        <pt x="478" y="664" on="1"/>
        <pt x="446" y="664" on="0"/>
        <pt x="385" y="649" on="0"/>
        <pt x="337" y="620" on="0"/>
        <pt x="304" y="575" on="0"/>
        <pt x="299" y="545" on="1"/>
        <pt x="282" y="444" on="1"/>
      </contour>
    </TTGlyph>
    <TTGlyph name="f_f_i" xMin="37" yMin="0" xMax="945" yMax="700">
      <contour>
        <pt x="859" y="47" on="1"/>
        <pt x="928" y="47" on="1"/>
        <pt x="920" y="0" on="1"/>
        <pt x="894" y="1" on="0"/>
        <pt x="829" y="3" on="0"/>
        <pt x="797" y="3" on="1"/>
        <pt x="783" y="3" on="0"/>
        <pt x="749" y="2" on="0"/>
        <pt x="714" y="1" on="0"/>
        <pt x="684" y="0" on="0"/>
        <pt x="674" y="0" on="1"/>
        <pt x="681" y="47" on="1"/>
        <pt x="751" y="47" on="1"/>
        <pt x="804" y="369" on="1"/>
        <pt x="804" y="371" on="0"/>
        <pt x="806" y="379" on="0"/>
        <pt x="806" y="381" on="1"/>
        <pt x="806" y="393" on="0"/>
        <pt x="792" y="397" on="0"/>
        <pt x="779" y="397" on="1"/>
        <pt x="599" y="397" on="1"/>
        <pt x="541" y="47" on="1"/>
        <pt x="610" y="47" on="1"/>
        <pt x="602" y="0" on="1"/>
        <pt x="576" y="1" on="0"/>
        <pt x="511" y="3" on="0"/>
        <pt x="479" y="3" on="1"/>
        <pt x="465" y="3" on="0"/>
        <pt x="431" y="2" on="0"/>
        <pt x="396" y="1" on="0"/>
        <pt x="366" y="0" on="0"/>
        <pt x="356" y="0" on="1"/>
        <pt x="363" y="47" on="1"/>
        <pt x="433" y="47" on="1"/>
        <pt x="491" y="397" on="1"/>
        <pt x="280" y="397" on="1"/>
        <pt x="222" y="47" on="1"/>
        <pt x="291" y="47" on="1"/>
        <pt x="283" y="0" on="1"/>
        <pt x="257" y="1" on="0"/>
        <pt x="192" y="3" on="0"/>
        <pt x="160" y="3" on="1"/>
        <pt x="146" y="3" on="0"/>
        <pt x="112" y="2" on="0"/>
        <pt x="77" y="1" on="0"/>
        <pt x="47" y="0" on="0"/>
        <pt x="37" y="0" on="1"/>
        <pt x="44" y="47" on="1"/>
        <pt x="114" y="47" on="1"/>
        <pt x="172" y="397" on="1"/>
        <pt x="97" y="397" on="1"/>
        <pt x="105" y="444" on="1"/>
        <pt x="180" y="444" on="1"/>
        <pt x="197" y="549" on="1"/>
        <pt x="203" y="586" on="0"/>
        <pt x="253" y="642" on="0"/>
        <pt x="330" y="680" on="0"/>
        <pt x="429" y="700" on="0"/>
        <pt x="485" y="700" on="1"/>
        <pt x="494" y="700" on="0"/>
        <pt x="521" y="699" on="0"/>
        <pt x="553" y="690" on="0"/>
        <pt x="587" y="673" on="0"/>
        <pt x="601" y="656" on="1"/>
        <pt x="631" y="673" on="0"/>
        <pt x="734" y="700" on="0"/>
        <pt x="807" y="700" on="1"/>
        <pt x="844" y="700" on="0"/>
        <pt x="897" y="682" on="0"/>
        <pt x="930" y="653" on="0"/>
        <pt x="945" y="617" on="0"/>
        <pt x="945" y="598" on="1"/>
        <pt x="945" y="575" on="0"/>
        <pt x="929" y="544" on="0"/>
        <pt x="907" y="526" on="0"/>
        <pt x="881" y="518" on="0"/>
        <pt x="871" y="518" on="1"/>
        <pt x="855" y="518" on="0"/>
        <pt x="832" y="529" on="0"/>
        <pt x="818" y="545" on="0"/>
        <pt x="812" y="564" on="0"/>
        <pt x="812" y="573" on="1"/>
        <pt x="812" y="593" on="0"/>
        <pt x="838" y="638" on="0"/>
        <pt x="869" y="647" on="1"/>
        <pt x="859" y="653" on="0"/>
        <pt x="837" y="660" on="0"/>
        <pt x="818" y="663" on="0"/>
        <pt x="803" y="664" on="0"/>
        <pt x="800" y="664" on="1"/>
        <pt x="725" y="664" on="0"/>
        <pt x="626" y="598" on="0"/>
        <pt x="618" y="546" on="1"/>
        <pt x="601" y="444" on="1"/>
        <pt x="748" y="444" on="1"/>
        <pt x="748" y="447" on="0"/>
        <pt x="749" y="448" on="1"/>
        <pt x="927" y="454" on="1"/>
      </contour>
      <contour>
        <pt x="499" y="444" on="1"/>
        <pt x="513" y="527" on="1"/>
        <pt x="499" y="535" on="0"/>
        <pt x="489" y="560" on="0"/>
        <pt x="489" y="574" on="1"/>
        <pt x="489" y="601" on="0"/>
        <pt x="521" y="640" on="0"/>
        <pt x="546" y="647" on="1"/>
        <pt x="525" y="660" on="0"/>
        <pt x="486" y="664" on="0"/>
        <pt x="478" y="664" on="1"/>
        <pt x="448" y="664" on="0"/>
        <pt x="388" y="650" on="0"/>
        <pt x="339" y="622" on="0"/>
        <pt x="304" y="577" on="0"/>
        <pt x="299" y="545" on="1"/>
        <pt x="282" y="444" on="1"/>
      </contour>
    </TTGlyph>
    <TTGlyph name="f_f_l" xMin="37" yMin="0" xMax="967" yMax="700">
      <contour>
        <pt x="859" y="47" on="1"/>
        <pt x="928" y="47" on="1"/>
        <pt x="920" y="0" on="1"/>
        <pt x="894" y="1" on="0"/>
        <pt x="829" y="3" on="0"/>
        <pt x="797" y="3" on="1"/>
        <pt x="783" y="3" on="0"/>
        <pt x="749" y="2" on="0"/>
        <pt x="714" y="1" on="0"/>
        <pt x="684" y="0" on="0"/>
        <pt x="674" y="0" on="1"/>
        <pt x="681" y="47" on="1"/>
        <pt x="751" y="47" on="1"/>
        <pt x="809" y="397" on="1"/>
        <pt x="599" y="397" on="1"/>
        <pt x="541" y="47" on="1"/>
        <pt x="610" y="47" on="1"/>
        <pt x="602" y="0" on="1"/>
        <pt x="576" y="1" on="0"/>
        <pt x="511" y="3" on="0"/>
        <pt x="479" y="3" on="1"/>
        <pt x="465" y="3" on="0"/>
        <pt x="431" y="2" on="0"/>
        <pt x="396" y="1" on="0"/>
        <pt x="366" y="0" on="0"/>
        <pt x="356" y="0" on="1"/>
        <pt x="363" y="47" on="1"/>
        <pt x="433" y="47" on="1"/>
        <pt x="491" y="397" on="1"/>
        <pt x="280" y="397" on="1"/>
        <pt x="222" y="47" on="1"/>
        <pt x="291" y="47" on="1"/>
        <pt x="283" y="0" on="1"/>
        <pt x="257" y="1" on="0"/>
        <pt x="192" y="3" on="0"/>
        <pt x="160" y="3" on="1"/>
        <pt x="146" y="3" on="0"/>
        <pt x="112" y="2" on="0"/>
        <pt x="77" y="1" on="0"/>
        <pt x="47" y="0" on="0"/>
        <pt x="37" y="0" on="1"/>
        <pt x="44" y="47" on="1"/>
        <pt x="114" y="47" on="1"/>
        <pt x="172" y="397" on="1"/>
        <pt x="97" y="397" on="1"/>
        <pt x="105" y="444" on="1"/>
        <pt x="180" y="444" on="1"/>
        <pt x="197" y="549" on="1"/>
        <pt x="203" y="585" on="0"/>
        <pt x="252" y="641" on="0"/>
        <pt x="328" y="680" on="0"/>
        <pt x="429" y="700" on="0"/>
        <pt x="486" y="700" on="1"/>
        <pt x="494" y="700" on="0"/>
        <pt x="524" y="699" on="0"/>
        <pt x="558" y="691" on="0"/>
        <pt x="594" y="675" on="0"/>
        <pt x="607" y="660" on="1"/>
        <pt x="653" y="683" on="0"/>
        <pt x="755" y="700" on="0"/>
        <pt x="806" y="700" on="1"/>
        <pt x="823" y="700" on="0"/>
        <pt x="865" y="697" on="0"/>
        <pt x="890" y="688" on="1"/>
        <pt x="967" y="694" on="1"/>
      </contour>
      <contour>
        <pt x="517" y="552" on="1"/>
        <pt x="504" y="562" on="0"/>
        <pt x="500" y="585" on="0"/>
        <pt x="500" y="591" on="1"/>
        <pt x="500" y="606" on="0"/>
        <pt x="509" y="628" on="0"/>
        <pt x="522" y="644" on="0"/>
        <pt x="535" y="653" on="0"/>
        <pt x="539" y="655" on="1"/>
        <pt x="525" y="660" on="0"/>
        <pt x="493" y="664" on="0"/>
        <pt x="479" y="664" on="1"/>
        <pt x="446" y="664" on="0"/>
        <pt x="386" y="649" on="0"/>
        <pt x="337" y="620" on="0"/>
        <pt x="304" y="575" on="0"/>
        <pt x="299" y="545" on="1"/>
        <pt x="282" y="444" on="1"/>
        <pt x="499" y="444" on="1"/>
      </contour>
      <contour>
        <pt x="837" y="565" on="1"/>
        <pt x="824" y="576" on="0"/>
        <pt x="820" y="598" on="0"/>
        <pt x="820" y="604" on="1"/>
        <pt x="820" y="632" on="0"/>
        <pt x="840" y="654" on="1"/>
        <pt x="845" y="659" on="1"/>
        <pt x="845" y="663" on="0"/>
        <pt x="814" y="664" on="0"/>
        <pt x="800" y="664" on="1"/>
        <pt x="726" y="664" on="0"/>
        <pt x="627" y="602" on="0"/>
        <pt x="618" y="545" on="1"/>
        <pt x="601" y="444" on="1"/>
        <pt x="817" y="444" on="1"/>
      </contour>
    </TTGlyph>
    <TTGlyph name="fi" xMin="37" yMin="0" xMax="626" yMax="700">
      <contour>
        <pt x="540" y="47" on="1"/>
        <pt x="609" y="47" on="1"/>
        <pt x="601" y="0" on="1"/>
        <pt x="575" y="1" on="0"/>
        <pt x="510" y="3" on="0"/>
        <pt x="478" y="3" on="1"/>
        <pt x="464" y="3" on="0"/>
        <pt x="430" y="2" on="0"/>
        <pt x="395" y="1" on="0"/>
        <pt x="365" y="0" on="0"/>
        <pt x="355" y="0" on="1"/>
        <pt x="362" y="47" on="1"/>
        <pt x="432" y="47" on="1"/>
        <pt x="485" y="369" on="1"/>
        <pt x="485" y="371" on="0"/>
        <pt x="487" y="379" on="0"/>
        <pt x="487" y="381" on="1"/>
        <pt x="487" y="393" on="0"/>
        <pt x="473" y="397" on="0"/>
        <pt x="460" y="397" on="1"/>
        <pt x="280" y="397" on="1"/>
        <pt x="222" y="47" on="1"/>
        <pt x="291" y="47" on="1"/>
        <pt x="283" y="0" on="1"/>
        <pt x="257" y="1" on="0"/>
        <pt x="192" y="3" on="0"/>
        <pt x="160" y="3" on="1"/>
        <pt x="146" y="3" on="0"/>
        <pt x="112" y="2" on="0"/>
        <pt x="77" y="1" on="0"/>
        <pt x="47" y="0" on="0"/>
        <pt x="37" y="0" on="1"/>
        <pt x="44" y="47" on="1"/>
        <pt x="114" y="47" on="1"/>
        <pt x="172" y="397" on="1"/>
        <pt x="97" y="397" on="1"/>
        <pt x="105" y="444" on="1"/>
        <pt x="180" y="444" on="1"/>
        <pt x="197" y="549" on="1"/>
        <pt x="203" y="586" on="0"/>
        <pt x="254" y="643" on="0"/>
        <pt x="333" y="681" on="0"/>
        <pt x="433" y="700" on="0"/>
        <pt x="488" y="700" on="1"/>
        <pt x="525" y="700" on="0"/>
        <pt x="578" y="682" on="0"/>
        <pt x="611" y="653" on="0"/>
        <pt x="626" y="617" on="0"/>
        <pt x="626" y="598" on="1"/>
        <pt x="626" y="575" on="0"/>
        <pt x="610" y="544" on="0"/>
        <pt x="588" y="526" on="0"/>
        <pt x="562" y="518" on="0"/>
        <pt x="552" y="518" on="1"/>
        <pt x="536" y="518" on="0"/>
        <pt x="513" y="529" on="0"/>
        <pt x="499" y="545" on="0"/>
        <pt x="493" y="564" on="0"/>
        <pt x="493" y="573" on="1"/>
        <pt x="493" y="593" on="0"/>
        <pt x="519" y="638" on="0"/>
        <pt x="550" y="647" on="1"/>
        <pt x="540" y="653" on="0"/>
        <pt x="518" y="660" on="0"/>
        <pt x="499" y="663" on="0"/>
        <pt x="484" y="664" on="0"/>
        <pt x="481" y="664" on="1"/>
        <pt x="406" y="664" on="0"/>
        <pt x="307" y="598" on="0"/>
        <pt x="299" y="546" on="1"/>
        <pt x="282" y="444" on="1"/>
        <pt x="429" y="444" on="1"/>
        <pt x="429" y="447" on="0"/>
        <pt x="430" y="448" on="1"/>
        <pt x="608" y="454" on="1"/>
      </contour>
    </TTGlyph>
    <TTGlyph name="five" xMin="82" yMin="-11" xMax="579" yMax="655">
      <contour>
        <pt x="224" y="376" on="1"/>
        <pt x="266" y="399" on="0"/>
        <pt x="335" y="409" on="0"/>
        <pt x="355" y="409" on="1"/>
        <pt x="405" y="409" on="0"/>
        <pt x="480" y="383" on="0"/>
        <pt x="530" y="336" on="0"/>
        <pt x="554" y="273" on="0"/>
        <pt x="554" y="237" on="1"/>
        <pt x="554" y="189" on="0"/>
        <pt x="514" y="99" on="0"/>
        <pt x="439" y="30" on="0"/>
        <pt x="329" y="-11" on="0"/>
        <pt x="259" y="-11" on="1"/>
        <pt x="219" y="-11" on="0"/>
        <pt x="153" y="12" on="0"/>
        <pt x="107" y="53" on="0"/>
        <pt x="82" y="107" on="0"/>
        <pt x="82" y="138" on="1"/>
        <pt x="82" y="171" on="0"/>
        <pt x="104" y="208" on="0"/>
        <pt x="132" y="226" on="0"/>
        <pt x="157" y="229" on="0"/>
        <pt x="160" y="229" on="1"/>
        <pt x="169" y="229" on="0"/>
        <pt x="189" y="223" on="0"/>
        <pt x="207" y="210" on="0"/>
        <pt x="219" y="188" on="0"/>
        <pt x="219" y="172" on="1"/>
        <pt x="219" y="161" on="0"/>
        <pt x="211" y="134" on="0"/>
        <pt x="193" y="111" on="0"/>
        <pt x="163" y="95" on="0"/>
        <pt x="140" y="94" on="1"/>
        <pt x="152" y="73" on="0"/>
        <pt x="185" y="48" on="0"/>
        <pt x="219" y="35" on="0"/>
        <pt x="249" y="32" on="0"/>
        <pt x="258" y="32" on="1"/>
        <pt x="276" y="32" on="0"/>
        <pt x="315" y="40" on="0"/>
        <pt x="350" y="61" on="0"/>
        <pt x="381" y="97" on="0"/>
        <pt x="391" y="124" on="1"/>
        <pt x="396" y="138" on="0"/>
        <pt x="407" y="188" on="0"/>
        <pt x="415" y="241" on="0"/>
        <pt x="420" y="287" on="0"/>
        <pt x="420" y="298" on="1"/>
        <pt x="420" y="328" on="0"/>
        <pt x="390" y="373" on="0"/>
        <pt x="351" y="373" on="1"/>
        <pt x="309" y="373" on="0"/>
        <pt x="236" y="346" on="0"/>
        <pt x="207" y="317" on="1"/>
        <pt x="200" y="309" on="0"/>
        <pt x="192" y="305" on="0"/>
        <pt x="184" y="305" on="1"/>
        <pt x="170" y="305" on="0"/>
        <pt x="162" y="317" on="0"/>
        <pt x="162" y="325" on="1"/>
        <pt x="162" y="327" on="0"/>
        <pt x="163" y="334" on="0"/>
        <pt x="165" y="346" on="1"/>
        <pt x="212" y="631" on="1"/>
        <pt x="214" y="645" on="0"/>
        <pt x="221" y="655" on="0"/>
        <pt x="229" y="655" on="1"/>
        <pt x="231" y="655" on="0"/>
        <pt x="237" y="653" on="0"/>
        <pt x="245" y="649" on="1"/>
        <pt x="286" y="633" on="0"/>
        <pt x="363" y="623" on="0"/>
        <pt x="392" y="623" on="1"/>
        <pt x="440" y="623" on="0"/>
        <pt x="523" y="641" on="0"/>
        <pt x="549" y="650" on="1"/>
        <pt x="557" y="654" on="0"/>
        <pt x="562" y="655" on="0"/>
        <pt x="564" y="655" on="1"/>
        <pt x="571" y="655" on="0"/>
        <pt x="579" y="646" on="0"/>
        <pt x="579" y="640" on="1"/>
        <pt x="579" y="629" on="0"/>
        <pt x="556" y="601" on="0"/>
        <pt x="525" y="574" on="0"/>
        <pt x="493" y="552" on="0"/>
        <pt x="485" y="547" on="1"/>
        <pt x="434" y="516" on="0"/>
        <pt x="345" y="499" on="0"/>
        <pt x="320" y="499" on="1"/>
        <pt x="294" y="499" on="0"/>
        <pt x="250" y="506" on="0"/>
        <pt x="245" y="507" on="1"/>
      </contour>
    </TTGlyph>
    <TTGlyph name="fl" xMin="37" yMin="0" xMax="648" yMax="700">
      <contour>
        <pt x="540" y="47" on="1"/>
        <pt x="609" y="47" on="1"/>
        <pt x="601" y="0" on="1"/>
        <pt x="575" y="1" on="0"/>
        <pt x="510" y="3" on="0"/>
        <pt x="478" y="3" on="1"/>
        <pt x="464" y="3" on="0"/>
        <pt x="430" y="2" on="0"/>
        <pt x="395" y="1" on="0"/>
        <pt x="365" y="0" on="0"/>
        <pt x="355" y="0" on="1"/>
        <pt x="362" y="47" on="1"/>
        <pt x="432" y="47" on="1"/>
        <pt x="490" y="397" on="1"/>
        <pt x="280" y="397" on="1"/>
        <pt x="222" y="47" on="1"/>
        <pt x="291" y="47" on="1"/>
        <pt x="283" y="0" on="1"/>
        <pt x="257" y="1" on="0"/>
        <pt x="192" y="3" on="0"/>
        <pt x="160" y="3" on="1"/>
        <pt x="146" y="3" on="0"/>
        <pt x="112" y="2" on="0"/>
        <pt x="77" y="1" on="0"/>
        <pt x="47" y="0" on="0"/>
        <pt x="37" y="0" on="1"/>
        <pt x="44" y="47" on="1"/>
        <pt x="114" y="47" on="1"/>
        <pt x="172" y="397" on="1"/>
        <pt x="97" y="397" on="1"/>
        <pt x="105" y="444" on="1"/>
        <pt x="180" y="444" on="1"/>
        <pt x="198" y="552" on="1"/>
        <pt x="204" y="585" on="0"/>
        <pt x="250" y="640" on="0"/>
        <pt x="325" y="679" on="0"/>
        <pt x="426" y="700" on="0"/>
        <pt x="487" y="700" on="1"/>
        <pt x="504" y="700" on="0"/>
        <pt x="546" y="697" on="0"/>
        <pt x="571" y="688" on="1"/>
        <pt x="648" y="694" on="1"/>
      </contour>
      <contour>
        <pt x="498" y="444" on="1"/>
        <pt x="518" y="565" on="1"/>
        <pt x="505" y="576" on="0"/>
        <pt x="501" y="598" on="0"/>
        <pt x="501" y="604" on="1"/>
        <pt x="501" y="632" on="0"/>
        <pt x="521" y="654" on="1"/>
        <pt x="526" y="659" on="1"/>
        <pt x="526" y="663" on="0"/>
        <pt x="495" y="664" on="0"/>
        <pt x="481" y="664" on="1"/>
        <pt x="407" y="664" on="0"/>
        <pt x="308" y="602" on="0"/>
        <pt x="299" y="545" on="1"/>
        <pt x="282" y="444" on="1"/>
      </contour>
    </TTGlyph>
    <TTGlyph name="four" xMin="58" yMin="0" xMax="576" yMax="656">
      <contour>
        <pt x="453" y="47" on="1"/>
        <pt x="550" y="47" on="1"/>
        <pt x="542" y="0" on="1"/>
        <pt x="529" y="1" on="0"/>
        <pt x="486" y="2" on="0"/>
        <pt x="440" y="3" on="0"/>
        <pt x="395" y="3" on="0"/>
        <pt x="380" y="3" on="1"/>
        <pt x="364" y="3" on="0"/>
        <pt x="317" y="3" on="0"/>
        <pt x="267" y="2" on="0"/>
        <pt x="222" y="1" on="0"/>
        <pt x="208" y="0" on="1"/>
        <pt x="216" y="47" on="1"/>
        <pt x="328" y="47" on="1"/>
        <pt x="346" y="156" on="1"/>
        <pt x="58" y="156" on="1"/>
        <pt x="66" y="204" on="1"/>
        <pt x="491" y="643" on="1"/>
        <pt x="499" y="652" on="0"/>
        <pt x="509" y="656" on="0"/>
        <pt x="524" y="656" on="1"/>
        <pt x="533" y="656" on="0"/>
        <pt x="551" y="652" on="0"/>
        <pt x="551" y="641" on="1"/>
        <pt x="550" y="627" on="1"/>
        <pt x="479" y="203" on="1"/>
        <pt x="576" y="203" on="1"/>
        <pt x="568" y="156" on="1"/>
        <pt x="471" y="156" on="1"/>
      </contour>
      <contour>
        <pt x="118" y="203" on="1"/>
        <pt x="365" y="203" on="1"/>
        <pt x="417" y="513" on="1"/>
      </contour>
    </TTGlyph>
    <TTGlyph name="g" xMin="19" yMin="-201" xMax="625" yMax="455">
      <contour>
        <pt x="276" y="83" on="1"/>
        <pt x="320" y="83" on="0"/>
        <pt x="410" y="79" on="0"/>
        <pt x="485" y="54" on="0"/>
        <pt x="532" y="1" on="0"/>
        <pt x="532" y="-49" on="1"/>
        <pt x="532" y="-94" on="0"/>
        <pt x="481" y="-153" on="0"/>
        <pt x="400" y="-187" on="0"/>
        <pt x="303" y="-201" on="0"/>
        <pt x="256" y="-201" on="1"/>
        <pt x="188" y="-201" on="0"/>
        <pt x="97" y="-180" on="0"/>
        <pt x="42" y="-147" on="0"/>
        <pt x="19" y="-106" on="0"/>
        <pt x="19" y="-85" on="1"/>
        <pt x="19" y="-63" on="0"/>
        <pt x="39" y="-30" on="0"/>
        <pt x="69" y="-6" on="0"/>
        <pt x="104" y="9" on="0"/>
        <pt x="120" y="12" on="1"/>
        <pt x="99" y="35" on="0"/>
        <pt x="91" y="77" on="0"/>
        <pt x="91" y="88" on="1"/>
        <pt x="91" y="121" on="0"/>
        <pt x="119" y="176" on="0"/>
        <pt x="140" y="198" on="1"/>
        <pt x="139" y="200" on="0"/>
        <pt x="127" y="212" on="0"/>
        <pt x="115" y="233" on="0"/>
        <pt x="105" y="264" on="0"/>
        <pt x="105" y="283" on="1"/>
        <pt x="105" y="312" on="0"/>
        <pt x="132" y="372" on="0"/>
        <pt x="186" y="420" on="0"/>
        <pt x="270" y="450" on="0"/>
        <pt x="327" y="450" on="1"/>
        <pt x="363" y="450" on="0"/>
        <pt x="432" y="435" on="0"/>
        <pt x="457" y="417" on="1"/>
        <pt x="477" y="431" on="0"/>
        <pt x="514" y="447" on="0"/>
        <pt x="545" y="454" on="0"/>
        <pt x="566" y="455" on="0"/>
        <pt x="568" y="455" on="1"/>
        <pt x="586" y="455" on="0"/>
        <pt x="609" y="443" on="0"/>
        <pt x="621" y="426" on="0"/>
        <pt x="625" y="409" on="0"/>
        <pt x="625" y="404" on="1"/>
        <pt x="625" y="386" on="0"/>
        <pt x="600" y="354" on="0"/>
        <pt x="576" y="354" on="1"/>
        <pt x="561" y="354" on="0"/>
        <pt x="538" y="372" on="0"/>
        <pt x="538" y="391" on="1"/>
        <pt x="538" y="407" on="0"/>
        <pt x="545" y="417" on="1"/>
        <pt x="531" y="415" on="0"/>
        <pt x="502" y="407" on="0"/>
        <pt x="480" y="396" on="1"/>
        <pt x="494" y="378" on="0"/>
        <pt x="506" y="338" on="0"/>
        <pt x="506" y="321" on="1"/>
        <pt x="506" y="294" on="0"/>
        <pt x="481" y="235" on="0"/>
        <pt x="427" y="186" on="0"/>
        <pt x="342" y="154" on="0"/>
        <pt x="283" y="154" on="1"/>
        <pt x="251" y="154" on="0"/>
        <pt x="189" y="166" on="0"/>
        <pt x="165" y="180" on="1"/>
        <pt x="160" y="174" on="0"/>
        <pt x="147" y="150" on="0"/>
        <pt x="147" y="134" on="1"/>
        <pt x="147" y="115" on="0"/>
        <pt x="162" y="94" on="0"/>
        <pt x="182" y="85" on="0"/>
        <pt x="203" y="83" on="0"/>
        <pt x="210" y="83" on="1"/>
      </contour>
      <contour>
        <pt x="285" y="190" on="1"/>
        <pt x="317" y="190" on="0"/>
        <pt x="364" y="217" on="0"/>
        <pt x="375" y="237" on="1"/>
        <pt x="383" y="252" on="0"/>
        <pt x="392" y="290" on="0"/>
        <pt x="397" y="325" on="0"/>
        <pt x="399" y="350" on="0"/>
        <pt x="399" y="351" on="1"/>
        <pt x="399" y="371" on="0"/>
        <pt x="386" y="395" on="0"/>
        <pt x="365" y="409" on="0"/>
        <pt x="339" y="414" on="0"/>
        <pt x="326" y="414" on="1"/>
        <pt x="305" y="414" on="0"/>
        <pt x="254" y="396" on="0"/>
        <pt x="237" y="370" on="1"/>
        <pt x="231" y="359" on="0"/>
        <pt x="221" y="324" on="0"/>
        <pt x="215" y="289" on="0"/>
        <pt x="212" y="259" on="0"/>
        <pt x="212" y="253" on="1"/>
        <pt x="212" y="246" on="0"/>
        <pt x="215" y="224" on="0"/>
        <pt x="229" y="204" on="0"/>
        <pt x="258" y="190" on="0"/>
      </contour>
      <contour>
        <pt x="196" y="-13" on="1"/>
        <pt x="163" y="-13" on="0"/>
        <pt x="126" y="-33" on="0"/>
        <pt x="109" y="-59" on="0"/>
        <pt x="105" y="-83" on="0"/>
        <pt x="105" y="-86" on="1"/>
        <pt x="105" y="-119" on="0"/>
        <pt x="179" y="-165" on="0"/>
        <pt x="257" y="-165" on="1"/>
        <pt x="310" y="-165" on="0"/>
        <pt x="382" y="-144" on="0"/>
        <pt x="425" y="-113" on="0"/>
        <pt x="444" y="-79" on="0"/>
        <pt x="444" y="-65" on="1"/>
        <pt x="444" y="-46" on="0"/>
        <pt x="411" y="-24" on="0"/>
        <pt x="368" y="-15" on="0"/>
        <pt x="324" y="-13" on="0"/>
        <pt x="312" y="-13" on="1"/>
      </contour>
    </TTGlyph>
    <TTGlyph name="germandbls" xMin="37" yMin="-6" xMax="627" yMax="700">
      <contour>
        <pt x="478" y="422" on="1"/>
        <pt x="520" y="404" on="0"/>
        <pt x="568" y="352" on="0"/>
        <pt x="592" y="296" on="0"/>
        <pt x="598" y="245" on="0"/>
        <pt x="598" y="228" on="1"/>
        <pt x="598" y="164" on="0"/>
        <pt x="553" y="74" on="0"/>
        <pt x="482" y="19" on="0"/>
        <pt x="397" y="-6" on="0"/>
        <pt x="356" y="-6" on="1"/>
        <pt x="308" y="-6" on="0"/>
        <pt x="260" y="39" on="0"/>
        <pt x="260" y="70" on="1"/>
        <pt x="260" y="90" on="0"/>
        <pt x="274" y="113" on="0"/>
        <pt x="293" y="127" on="0"/>
        <pt x="312" y="131" on="0"/>
        <pt x="316" y="131" on="1"/>
        <pt x="334" y="131" on="0"/>
        <pt x="361" y="107" on="0"/>
        <pt x="361" y="88" on="1"/>
        <pt x="361" y="67" on="0"/>
        <pt x="337" y="41" on="0"/>
        <pt x="329" y="36" on="1"/>
        <pt x="341" y="30" on="0"/>
        <pt x="354" y="30" on="1"/>
        <pt x="387" y="30" on="0"/>
        <pt x="431" y="62" on="0"/>
        <pt x="460" y="112" on="0"/>
        <pt x="476" y="169" on="0"/>
        <pt x="483" y="221" on="0"/>
        <pt x="484" y="257" on="0"/>
        <pt x="484" y="260" on="1"/>
        <pt x="484" y="312" on="0"/>
        <pt x="455" y="371" on="0"/>
        <pt x="415" y="400" on="0"/>
        <pt x="374" y="407" on="0"/>
        <pt x="362" y="408" on="1"/>
        <pt x="354" y="409" on="0"/>
        <pt x="349" y="419" on="0"/>
        <pt x="349" y="422" on="1"/>
        <pt x="349" y="438" on="0"/>
        <pt x="361" y="443" on="0"/>
        <pt x="372" y="444" on="1"/>
        <pt x="432" y="448" on="0"/>
        <pt x="511" y="521" on="0"/>
        <pt x="511" y="595" on="1"/>
        <pt x="511" y="619" on="0"/>
        <pt x="493" y="647" on="0"/>
        <pt x="468" y="660" on="0"/>
        <pt x="440" y="664" on="0"/>
        <pt x="429" y="664" on="1"/>
        <pt x="414" y="664" on="0"/>
        <pt x="377" y="657" on="0"/>
        <pt x="342" y="636" on="0"/>
        <pt x="314" y="596" on="0"/>
        <pt x="308" y="563" on="1"/>
        <pt x="214" y="0" on="1"/>
        <pt x="194" y="2" on="0"/>
        <pt x="170" y="3" on="0"/>
        <pt x="149" y="3" on="1"/>
        <pt x="139" y="3" on="0"/>
        <pt x="106" y="2" on="0"/>
        <pt x="73" y="1" on="0"/>
        <pt x="44" y="0" on="0"/>
        <pt x="37" y="0" on="1"/>
        <pt x="44" y="47" on="1"/>
        <pt x="114" y="47" on="1"/>
        <pt x="172" y="397" on="1"/>
        <pt x="103" y="397" on="1"/>
        <pt x="110" y="444" on="1"/>
        <pt x="180" y="444" on="1"/>
        <pt x="198" y="557" on="1"/>
        <pt x="209" y="625" on="0"/>
        <pt x="333" y="700" on="0"/>
        <pt x="431" y="700" on="1"/>
        <pt x="491" y="700" on="0"/>
        <pt x="567" y="676" on="0"/>
        <pt x="610" y="640" on="0"/>
        <pt x="627" y="597" on="0"/>
        <pt x="627" y="578" on="1"/>
        <pt x="627" y="565" on="0"/>
        <pt x="616" y="523" on="0"/>
        <pt x="584" y="479" on="0"/>
        <pt x="526" y="437" on="0"/>
      </contour>
    </TTGlyph>
    <TTGlyph name="grave" xMin="223" yMin="509" xMax="427" yMax="704">
      <contour>
        <pt x="250" y="591" on="1"/>
        <pt x="223" y="607" on="0"/>
        <pt x="223" y="633" on="1"/>
        <pt x="223" y="646" on="0"/>
        <pt x="236" y="672" on="0"/>
        <pt x="256" y="692" on="0"/>
        <pt x="282" y="704" on="0"/>
        <pt x="294" y="704" on="1"/>
        <pt x="308" y="704" on="0"/>
        <pt x="326" y="692" on="0"/>
        <pt x="330" y="687" on="1"/>
        <pt x="427" y="545" on="1"/>
        <pt x="391" y="509" on="1"/>
      </contour>
    </TTGlyph>
    <TTGlyph name="h" xMin="45" yMin="0" xMax="623" yMax="694">
      <contour>
        <pt x="554" y="47" on="1"/>
        <pt x="623" y="47" on="1"/>
        <pt x="615" y="0" on="1"/>
        <pt x="605" y="0" on="0"/>
        <pt x="573" y="1" on="0"/>
        <pt x="539" y="2" on="0"/>
        <pt x="504" y="3" on="0"/>
        <pt x="489" y="3" on="1"/>
        <pt x="477" y="3" on="0"/>
        <pt x="444" y="3" on="0"/>
        <pt x="409" y="2" on="0"/>
        <pt x="375" y="1" on="0"/>
        <pt x="363" y="0" on="1"/>
        <pt x="370" y="47" on="1"/>
        <pt x="440" y="47" on="1"/>
        <pt x="487" y="331" on="1"/>
        <pt x="489" y="340" on="0"/>
        <pt x="489" y="353" on="0"/>
        <pt x="489" y="361" on="1"/>
        <pt x="489" y="384" on="0"/>
        <pt x="474" y="414" on="0"/>
        <pt x="448" y="414" on="1"/>
        <pt x="420" y="414" on="0"/>
        <pt x="364" y="393" on="0"/>
        <pt x="316" y="354" on="0"/>
        <pt x="281" y="302" on="0"/>
        <pt x="273" y="270" on="1"/>
        <pt x="273" y="267" on="0"/>
        <pt x="265" y="218" on="0"/>
        <pt x="253" y="150" on="0"/>
        <pt x="241" y="76" on="0"/>
        <pt x="236" y="47" on="1"/>
        <pt x="305" y="47" on="1"/>
        <pt x="297" y="0" on="1"/>
        <pt x="287" y="0" on="0"/>
        <pt x="255" y="1" on="0"/>
        <pt x="221" y="2" on="0"/>
        <pt x="186" y="3" on="0"/>
        <pt x="171" y="3" on="1"/>
        <pt x="159" y="3" on="0"/>
        <pt x="126" y="3" on="0"/>
        <pt x="91" y="2" on="0"/>
        <pt x="57" y="1" on="0"/>
        <pt x="45" y="0" on="1"/>
        <pt x="52" y="47" on="1"/>
        <pt x="122" y="47" on="1"/>
        <pt x="213" y="596" on="1"/>
        <pt x="215" y="608" on="0"/>
        <pt x="216" y="615" on="0"/>
        <pt x="216" y="618" on="1"/>
        <pt x="216" y="629" on="0"/>
        <pt x="205" y="636" on="0"/>
        <pt x="192" y="638" on="1"/>
        <pt x="184" y="639" on="0"/>
        <pt x="161" y="639" on="0"/>
        <pt x="151" y="639" on="1"/>
        <pt x="159" y="686" on="1"/>
        <pt x="338" y="694" on="1"/>
        <pt x="282" y="357" on="1"/>
        <pt x="283" y="357" on="1"/>
        <pt x="290" y="366" on="0"/>
        <pt x="319" y="398" on="0"/>
        <pt x="364" y="428" on="0"/>
        <pt x="426" y="450" on="0"/>
        <pt x="465" y="450" on="1"/>
        <pt x="505" y="450" on="0"/>
        <pt x="557" y="434" on="0"/>
        <pt x="588" y="405" on="0"/>
        <pt x="600" y="365" on="0"/>
        <pt x="600" y="342" on="1"/>
        <pt x="600" y="331" on="0"/>
        <pt x="599" y="319" on="0"/>
        <pt x="597" y="305" on="1"/>
      </contour>
    </TTGlyph>
    <TTGlyph name="hungarumlaut" xMin="230" yMin="515" xMax="599" yMax="710">
      <contour>
        <pt x="265" y="515" on="1"/>
        <pt x="230" y="540" on="1"/>
        <pt x="291" y="665" on="1"/>
        <pt x="299" y="681" on="0"/>
        <pt x="327" y="710" on="0"/>
        <pt x="351" y="710" on="1"/>
        <pt x="369" y="710" on="0"/>
        <pt x="407" y="684" on="0"/>
        <pt x="407" y="657" on="1"/>
        <pt x="407" y="637" on="0"/>
        <pt x="385" y="612" on="0"/>
        <pt x="377" y="606" on="1"/>
      </contour>
      <contour>
        <pt x="483" y="665" on="1"/>
        <pt x="491" y="681" on="0"/>
        <pt x="519" y="710" on="0"/>
        <pt x="543" y="710" on="1"/>
        <pt x="561" y="710" on="0"/>
        <pt x="599" y="684" on="0"/>
        <pt x="599" y="657" on="1"/>
        <pt x="599" y="637" on="0"/>
        <pt x="577" y="612" on="0"/>
        <pt x="569" y="606" on="1"/>
        <pt x="457" y="515" on="1"/>
        <pt x="422" y="540" on="1"/>
      </contour>
    </TTGlyph>
    <TTGlyph name="hyphen" xMin="42" yMin="174" xMax="363" yMax="271">
      <contour>
        <pt x="347" y="174" on="1"/>
        <pt x="42" y="174" on="1"/>
        <pt x="58" y="271" on="1"/>
        <pt x="363" y="271" on="1"/>
      </contour>
    </TTGlyph>
    <TTGlyph name="i" xMin="47" yMin="0" xMax="338" yMax="695">
      <contour>
        <pt x="338" y="627" on="1"/>
        <pt x="338" y="611" on="0"/>
        <pt x="324" y="579" on="0"/>
        <pt x="300" y="554" on="0"/>
        <pt x="267" y="539" on="0"/>
        <pt x="249" y="539" on="1"/>
        <pt x="218" y="539" on="0"/>
        <pt x="180" y="580" on="0"/>
        <pt x="180" y="607" on="1"/>
        <pt x="180" y="624" on="0"/>
        <pt x="195" y="656" on="0"/>
        <pt x="219" y="680" on="0"/>
        <pt x="251" y="695" on="0"/>
        <pt x="269" y="695" on="1"/>
        <pt x="300" y="695" on="0"/>
        <pt x="338" y="654" on="0"/>
      </contour>
      <contour>
        <pt x="299" y="450" on="1"/>
        <pt x="232" y="47" on="1"/>
        <pt x="294" y="47" on="1"/>
        <pt x="286" y="0" on="1"/>
        <pt x="274" y="0" on="0"/>
        <pt x="241" y="1" on="0"/>
        <pt x="207" y="2" on="0"/>
        <pt x="178" y="3" on="0"/>
        <pt x="169" y="3" on="1"/>
        <pt x="155" y="3" on="0"/>
        <pt x="121" y="2" on="0"/>
        <pt x="86" y="1" on="0"/>
        <pt x="56" y="0" on="0"/>
        <pt x="47" y="0" on="1"/>
        <pt x="54" y="47" on="1"/>
        <pt x="124" y="47" on="1"/>
        <pt x="176" y="363" on="1"/>
        <pt x="176" y="365" on="0"/>
        <pt x="178" y="373" on="0"/>
        <pt x="178" y="375" on="1"/>
        <pt x="178" y="390" on="0"/>
        <pt x="148" y="395" on="0"/>
        <pt x="116" y="395" on="1"/>
        <pt x="124" y="442" on="1"/>
      </contour>
    </TTGlyph>
    <TTGlyph name="j" xMin="-75" yMin="-200" xMax="371" yMax="695">
      <contour>
        <pt x="371" y="626" on="1"/>
        <pt x="371" y="610" on="0"/>
        <pt x="357" y="579" on="0"/>
        <pt x="333" y="554" on="0"/>
        <pt x="301" y="539" on="0"/>
        <pt x="282" y="539" on="1"/>
        <pt x="253" y="539" on="0"/>
        <pt x="213" y="578" on="0"/>
        <pt x="213" y="607" on="1"/>
        <pt x="213" y="625" on="0"/>
        <pt x="228" y="657" on="0"/>
        <pt x="253" y="681" on="0"/>
        <pt x="285" y="695" on="0"/>
        <pt x="302" y="695" on="1"/>
        <pt x="332" y="695" on="0"/>
        <pt x="371" y="655" on="0"/>
      </contour>
      <contour>
        <pt x="342" y="450" on="1"/>
        <pt x="260" y="-46" on="1"/>
        <pt x="254" y="-82" on="0"/>
        <pt x="215" y="-139" on="0"/>
        <pt x="159" y="-179" on="0"/>
        <pt x="91" y="-200" on="0"/>
        <pt x="56" y="-200" on="1"/>
        <pt x="29" y="-200" on="0"/>
        <pt x="-18" y="-190" on="0"/>
        <pt x="-54" y="-170" on="0"/>
        <pt x="-75" y="-139" on="0"/>
        <pt x="-75" y="-118" on="1"/>
        <pt x="-75" y="-89" on="0"/>
        <pt x="-35" y="-46" on="0"/>
        <pt x="-4" y="-46" on="1"/>
        <pt x="23" y="-46" on="0"/>
        <pt x="52" y="-79" on="0"/>
        <pt x="52" y="-100" on="1"/>
        <pt x="52" y="-117" on="0"/>
        <pt x="37" y="-146" on="0"/>
        <pt x="28" y="-153" on="1"/>
        <pt x="26" y="-155" on="0"/>
        <pt x="21" y="-158" on="0"/>
        <pt x="21" y="-159" on="1"/>
        <pt x="21" y="-160" on="0"/>
        <pt x="30" y="-162" on="0"/>
        <pt x="41" y="-163" on="0"/>
        <pt x="52" y="-164" on="0"/>
        <pt x="54" y="-164" on="1"/>
        <pt x="78" y="-164" on="0"/>
        <pt x="113" y="-137" on="0"/>
        <pt x="136" y="-99" on="0"/>
        <pt x="149" y="-59" on="0"/>
        <pt x="151" y="-46" on="1"/>
        <pt x="218" y="356" on="1"/>
        <pt x="221" y="373" on="0"/>
        <pt x="221" y="374" on="1"/>
        <pt x="221" y="387" on="0"/>
        <pt x="204" y="392" on="0"/>
        <pt x="193" y="394" on="1"/>
        <pt x="185" y="395" on="0"/>
        <pt x="158" y="395" on="0"/>
        <pt x="149" y="395" on="1"/>
        <pt x="156" y="442" on="1"/>
      </contour>
    </TTGlyph>
    <TTGlyph name="k" xMin="37" yMin="0" xMax="636" yMax="694">
      <contour>
        <pt x="523" y="66" on="1"/>
        <pt x="529" y="57" on="0"/>
        <pt x="537" y="50" on="0"/>
        <pt x="550" y="48" on="1"/>
        <pt x="558" y="47" on="0"/>
        <pt x="578" y="47" on="0"/>
        <pt x="594" y="47" on="1"/>
        <pt x="587" y="0" on="1"/>
        <pt x="535" y="3" on="0"/>
        <pt x="484" y="3" on="1"/>
        <pt x="483" y="3" on="0"/>
        <pt x="453" y="3" on="0"/>
        <pt x="414" y="2" on="0"/>
        <pt x="373" y="1" on="0"/>
        <pt x="361" y="0" on="1"/>
        <pt x="369" y="47" on="1"/>
        <pt x="378" y="47" on="0"/>
        <pt x="402" y="49" on="0"/>
        <pt x="402" y="57" on="1"/>
        <pt x="402" y="58" on="0"/>
        <pt x="397" y="66" on="0"/>
        <pt x="396" y="68" on="1"/>
        <pt x="301" y="218" on="1"/>
        <pt x="238" y="174" on="1"/>
        <pt x="217" y="47" on="1"/>
        <pt x="286" y="47" on="1"/>
        <pt x="278" y="0" on="1"/>
        <pt x="250" y="1" on="0"/>
        <pt x="185" y="3" on="0"/>
        <pt x="158" y="3" on="1"/>
        <pt x="127" y="3" on="0"/>
        <pt x="62" y="1" on="0"/>
        <pt x="37" y="0" on="1"/>
        <pt x="44" y="47" on="1"/>
        <pt x="114" y="47" on="1"/>
        <pt x="205" y="596" on="1"/>
        <pt x="207" y="608" on="0"/>
        <pt x="208" y="615" on="0"/>
        <pt x="208" y="618" on="1"/>
        <pt x="208" y="629" on="0"/>
        <pt x="197" y="636" on="0"/>
        <pt x="184" y="638" on="1"/>
        <pt x="176" y="639" on="0"/>
        <pt x="153" y="639" on="0"/>
        <pt x="143" y="639" on="1"/>
        <pt x="151" y="686" on="1"/>
        <pt x="330" y="694" on="1"/>
        <pt x="254" y="238" on="1"/>
        <pt x="457" y="378" on="1"/>
        <pt x="460" y="380" on="0"/>
        <pt x="466" y="385" on="0"/>
        <pt x="466" y="387" on="1"/>
        <pt x="466" y="391" on="0"/>
        <pt x="457" y="396" on="0"/>
        <pt x="445" y="398" on="0"/>
        <pt x="435" y="398" on="0"/>
        <pt x="435" y="398" on="1"/>
        <pt x="443" y="444" on="1"/>
        <pt x="452" y="444" on="0"/>
        <pt x="484" y="443" on="0"/>
        <pt x="518" y="442" on="0"/>
        <pt x="548" y="441" on="0"/>
        <pt x="557" y="441" on="1"/>
        <pt x="576" y="441" on="0"/>
        <pt x="618" y="442" on="0"/>
        <pt x="636" y="444" on="1"/>
        <pt x="628" y="397" on="1"/>
        <pt x="587" y="397" on="0"/>
        <pt x="549" y="390" on="0"/>
        <pt x="535" y="380" on="1"/>
        <pt x="388" y="278" on="1"/>
      </contour>
    </TTGlyph>
    <TTGlyph name="l" xMin="47" yMin="0" xMax="340" yMax="694">
      <contour>
        <pt x="232" y="47" on="1"/>
        <pt x="301" y="47" on="1"/>
        <pt x="293" y="0" on="1"/>
        <pt x="267" y="1" on="0"/>
        <pt x="202" y="3" on="0"/>
        <pt x="170" y="3" on="1"/>
        <pt x="156" y="3" on="0"/>
        <pt x="122" y="2" on="0"/>
        <pt x="87" y="1" on="0"/>
        <pt x="57" y="0" on="0"/>
        <pt x="47" y="0" on="1"/>
        <pt x="54" y="47" on="1"/>
        <pt x="124" y="47" on="1"/>
        <pt x="215" y="596" on="1"/>
        <pt x="217" y="608" on="0"/>
        <pt x="218" y="615" on="0"/>
        <pt x="218" y="618" on="1"/>
        <pt x="218" y="629" on="0"/>
        <pt x="207" y="636" on="0"/>
        <pt x="194" y="638" on="1"/>
        <pt x="186" y="639" on="0"/>
        <pt x="163" y="639" on="0"/>
        <pt x="153" y="639" on="1"/>
        <pt x="161" y="686" on="1"/>
        <pt x="340" y="694" on="1"/>
      </contour>
    </TTGlyph>
    <TTGlyph name="m" xMin="45" yMin="0" xMax="943" yMax="450">
      <contour>
        <pt x="874" y="47" on="1"/>
        <pt x="943" y="47" on="1"/>
        <pt x="935" y="0" on="1"/>
        <pt x="925" y="0" on="0"/>
        <pt x="893" y="1" on="0"/>
        <pt x="859" y="2" on="0"/>
        <pt x="824" y="3" on="0"/>
        <pt x="809" y="3" on="1"/>
        <pt x="797" y="3" on="0"/>
        <pt x="764" y="3" on="0"/>
        <pt x="729" y="2" on="0"/>
        <pt x="695" y="1" on="0"/>
        <pt x="683" y="0" on="1"/>
        <pt x="690" y="47" on="1"/>
        <pt x="760" y="47" on="1"/>
        <pt x="807" y="331" on="1"/>
        <pt x="809" y="340" on="0"/>
        <pt x="809" y="352" on="0"/>
        <pt x="809" y="360" on="1"/>
        <pt x="809" y="386" on="0"/>
        <pt x="793" y="414" on="0"/>
        <pt x="767" y="414" on="1"/>
        <pt x="740" y="414" on="0"/>
        <pt x="684" y="393" on="0"/>
        <pt x="636" y="355" on="0"/>
        <pt x="600" y="302" on="0"/>
        <pt x="592" y="270" on="1"/>
        <pt x="592" y="267" on="0"/>
        <pt x="584" y="218" on="0"/>
        <pt x="572" y="150" on="0"/>
        <pt x="560" y="76" on="0"/>
        <pt x="555" y="47" on="1"/>
        <pt x="624" y="47" on="1"/>
        <pt x="616" y="0" on="1"/>
        <pt x="606" y="0" on="0"/>
        <pt x="574" y="1" on="0"/>
        <pt x="540" y="2" on="0"/>
        <pt x="505" y="3" on="0"/>
        <pt x="490" y="3" on="1"/>
        <pt x="478" y="3" on="0"/>
        <pt x="445" y="3" on="0"/>
        <pt x="410" y="2" on="0"/>
        <pt x="376" y="1" on="0"/>
        <pt x="364" y="0" on="1"/>
        <pt x="371" y="47" on="1"/>
        <pt x="441" y="47" on="1"/>
        <pt x="488" y="331" on="1"/>
        <pt x="490" y="340" on="0"/>
        <pt x="490" y="352" on="0"/>
        <pt x="490" y="360" on="1"/>
        <pt x="490" y="386" on="0"/>
        <pt x="474" y="414" on="0"/>
        <pt x="448" y="414" on="1"/>
        <pt x="421" y="414" on="0"/>
        <pt x="365" y="393" on="0"/>
        <pt x="317" y="355" on="0"/>
        <pt x="281" y="302" on="0"/>
        <pt x="273" y="270" on="1"/>
        <pt x="273" y="267" on="0"/>
        <pt x="265" y="218" on="0"/>
        <pt x="253" y="150" on="0"/>
        <pt x="241" y="76" on="0"/>
        <pt x="236" y="47" on="1"/>
        <pt x="305" y="47" on="1"/>
        <pt x="297" y="0" on="1"/>
        <pt x="287" y="0" on="0"/>
        <pt x="255" y="1" on="0"/>
        <pt x="221" y="2" on="0"/>
        <pt x="186" y="3" on="0"/>
        <pt x="171" y="3" on="1"/>
        <pt x="159" y="3" on="0"/>
        <pt x="126" y="3" on="0"/>
        <pt x="91" y="2" on="0"/>
        <pt x="57" y="1" on="0"/>
        <pt x="45" y="0" on="1"/>
        <pt x="52" y="47" on="1"/>
        <pt x="122" y="47" on="1"/>
        <pt x="174" y="362" on="1"/>
        <pt x="176" y="370" on="0"/>
        <pt x="176" y="373" on="0"/>
        <pt x="176" y="375" on="1"/>
        <pt x="176" y="390" on="0"/>
        <pt x="144" y="395" on="0"/>
        <pt x="110" y="395" on="1"/>
        <pt x="118" y="442" on="1"/>
        <pt x="292" y="450" on="1"/>
        <pt x="275" y="347" on="1"/>
        <pt x="276" y="347" on="1"/>
        <pt x="278" y="349" on="0"/>
        <pt x="302" y="382" on="0"/>
        <pt x="349" y="420" on="0"/>
        <pt x="419" y="450" on="0"/>
        <pt x="465" y="450" on="1"/>
        <pt x="504" y="450" on="0"/>
        <pt x="555" y="435" on="0"/>
        <pt x="586" y="409" on="0"/>
        <pt x="599" y="375" on="0"/>
        <pt x="601" y="355" on="1"/>
        <pt x="603" y="358" on="0"/>
        <pt x="628" y="388" on="0"/>
        <pt x="673" y="422" on="0"/>
        <pt x="740" y="450" on="0"/>
        <pt x="784" y="450" on="1"/>
        <pt x="825" y="450" on="0"/>
        <pt x="877" y="434" on="0"/>
        <pt x="908" y="405" on="0"/>
        <pt x="920" y="365" on="0"/>
        <pt x="920" y="342" on="1"/>
        <pt x="920" y="331" on="0"/>
        <pt x="919" y="319" on="0"/>
        <pt x="917" y="305" on="1"/>
      </contour>
    </TTGlyph>
    <TTGlyph name="macron" xMin="173" yMin="555" xMax="595" yMax="607">
      <contour>
        <pt x="587" y="555" on="1"/>
        <pt x="173" y="555" on="1"/>
        <pt x="181" y="607" on="1"/>
        <pt x="595" y="607" on="1"/>
      </contour>
    </TTGlyph>
    <TTGlyph name="n" xMin="45" yMin="0" xMax="623" yMax="450">
      <contour>
        <pt x="554" y="47" on="1"/>
        <pt x="623" y="47" on="1"/>
        <pt x="615" y="0" on="1"/>
        <pt x="605" y="0" on="0"/>
        <pt x="573" y="1" on="0"/>
        <pt x="539" y="2" on="0"/>
        <pt x="504" y="3" on="0"/>
        <pt x="489" y="3" on="1"/>
        <pt x="477" y="3" on="0"/>
        <pt x="444" y="3" on="0"/>
        <pt x="409" y="2" on="0"/>
        <pt x="375" y="1" on="0"/>
        <pt x="363" y="0" on="1"/>
        <pt x="370" y="47" on="1"/>
        <pt x="440" y="47" on="1"/>
        <pt x="487" y="331" on="1"/>
        <pt x="489" y="340" on="0"/>
        <pt x="489" y="353" on="0"/>
        <pt x="489" y="361" on="1"/>
        <pt x="489" y="384" on="0"/>
        <pt x="474" y="414" on="0"/>
        <pt x="448" y="414" on="1"/>
        <pt x="420" y="414" on="0"/>
        <pt x="364" y="393" on="0"/>
        <pt x="316" y="354" on="0"/>
        <pt x="281" y="302" on="0"/>
        <pt x="273" y="270" on="1"/>
        <pt x="273" y="267" on="0"/>
        <pt x="265" y="218" on="0"/>
        <pt x="253" y="150" on="0"/>
        <pt x="241" y="76" on="0"/>
        <pt x="236" y="47" on="1"/>
        <pt x="305" y="47" on="1"/>
        <pt x="297" y="0" on="1"/>
        <pt x="287" y="0" on="0"/>
        <pt x="255" y="1" on="0"/>
        <pt x="221" y="2" on="0"/>
        <pt x="186" y="3" on="0"/>
        <pt x="171" y="3" on="1"/>
        <pt x="159" y="3" on="0"/>
        <pt x="126" y="3" on="0"/>
        <pt x="91" y="2" on="0"/>
        <pt x="57" y="1" on="0"/>
        <pt x="45" y="0" on="1"/>
        <pt x="52" y="47" on="1"/>
        <pt x="122" y="47" on="1"/>
        <pt x="174" y="362" on="1"/>
        <pt x="176" y="370" on="0"/>
        <pt x="176" y="373" on="0"/>
        <pt x="176" y="375" on="1"/>
        <pt x="176" y="390" on="0"/>
        <pt x="144" y="395" on="0"/>
        <pt x="110" y="395" on="1"/>
        <pt x="118" y="442" on="1"/>
        <pt x="292" y="450" on="1"/>
        <pt x="275" y="347" on="1"/>
        <pt x="276" y="347" on="1"/>
        <pt x="287" y="363" on="0"/>
        <pt x="320" y="399" on="0"/>
        <pt x="367" y="430" on="0"/>
        <pt x="428" y="450" on="0"/>
        <pt x="465" y="450" on="1"/>
        <pt x="505" y="450" on="0"/>
        <pt x="557" y="434" on="0"/>
        <pt x="588" y="405" on="0"/>
        <pt x="600" y="365" on="0"/>
        <pt x="600" y="342" on="1"/>
        <pt x="600" y="331" on="0"/>
        <pt x="599" y="319" on="0"/>
        <pt x="597" y="305" on="1"/>
      </contour>
    </TTGlyph>
    <TTGlyph name="nine" xMin="95" yMin="-11" xMax="591" yMax="655">
      <contour>
        <pt x="440" y="301" on="1"/>
        <pt x="421" y="273" on="0"/>
        <pt x="382" y="243" on="0"/>
        <pt x="346" y="229" on="0"/>
        <pt x="318" y="227" on="0"/>
        <pt x="310" y="227" on="1"/>
        <pt x="256" y="227" on="0"/>
        <pt x="182" y="259" on="0"/>
        <pt x="137" y="309" on="0"/>
        <pt x="117" y="369" on="0"/>
        <pt x="117" y="396" on="1"/>
        <pt x="117" y="451" on="0"/>
        <pt x="157" y="546" on="0"/>
        <pt x="230" y="615" on="0"/>
        <pt x="333" y="655" on="0"/>
        <pt x="396" y="655" on="1"/>
        <pt x="496" y="655" on="0"/>
        <pt x="591" y="538" on="0"/>
        <pt x="591" y="436" on="1"/>
        <pt x="591" y="418" on="0"/>
        <pt x="586" y="349" on="0"/>
        <pt x="568" y="263" on="0"/>
        <pt x="531" y="167" on="0"/>
        <pt x="499" y="122" on="1"/>
        <pt x="480" y="95" on="0"/>
        <pt x="425" y="47" on="0"/>
        <pt x="359" y="10" on="0"/>
        <pt x="282" y="-11" on="0"/>
        <pt x="240" y="-11" on="1"/>
        <pt x="213" y="-11" on="0"/>
        <pt x="160" y="0" on="0"/>
        <pt x="120" y="25" on="0"/>
        <pt x="95" y="66" on="0"/>
        <pt x="95" y="96" on="1"/>
        <pt x="95" y="121" on="0"/>
        <pt x="110" y="153" on="0"/>
        <pt x="131" y="171" on="0"/>
        <pt x="157" y="178" on="0"/>
        <pt x="167" y="178" on="1"/>
        <pt x="193" y="178" on="0"/>
        <pt x="222" y="148" on="0"/>
        <pt x="222" y="125" on="1"/>
        <pt x="222" y="97" on="0"/>
        <pt x="188" y="59" on="0"/>
        <pt x="162" y="54" on="1"/>
        <pt x="181" y="39" on="0"/>
        <pt x="227" y="32" on="0"/>
        <pt x="240" y="32" on="1"/>
        <pt x="282" y="32" on="0"/>
        <pt x="348" y="69" on="0"/>
        <pt x="370" y="95" on="1"/>
        <pt x="401" y="133" on="0"/>
        <pt x="429" y="240" on="0"/>
      </contour>
      <contour>
        <pt x="320" y="263" on="1"/>
        <pt x="360" y="263" on="0"/>
        <pt x="417" y="313" on="0"/>
        <pt x="454" y="391" on="0"/>
        <pt x="471" y="487" on="0"/>
        <pt x="471" y="532" on="1"/>
        <pt x="471" y="567" on="0"/>
        <pt x="432" y="616" on="0"/>
        <pt x="395" y="616" on="1"/>
        <pt x="353" y="616" on="0"/>
        <pt x="293" y="576" on="0"/>
        <pt x="279" y="538" on="1"/>
        <pt x="274" y="523" on="0"/>
        <pt x="262" y="466" on="0"/>
        <pt x="252" y="405" on="0"/>
        <pt x="245" y="350" on="0"/>
        <pt x="245" y="336" on="1"/>
        <pt x="245" y="329" on="0"/>
        <pt x="247" y="305" on="0"/>
        <pt x="261" y="281" on="0"/>
        <pt x="292" y="263" on="0"/>
      </contour>
    </TTGlyph>
    <TTGlyph name="numbersign" xMin="87" yMin="-194" xMax="953" yMax="694">
      <contour>
        <pt x="482" y="-170" on="1"/>
        <pt x="479" y="-176" on="0"/>
        <pt x="466" y="-194" on="0"/>
        <pt x="451" y="-194" on="1"/>
        <pt x="441" y="-194" on="0"/>
        <pt x="421" y="-179" on="0"/>
        <pt x="421" y="-163" on="1"/>
        <pt x="421" y="-158" on="0"/>
        <pt x="423" y="-152" on="0"/>
        <pt x="428" y="-142" on="1"/>
        <pt x="546" y="108" on="1"/>
        <pt x="358" y="108" on="1"/>
        <pt x="226" y="-170" on="1"/>
        <pt x="223" y="-176" on="0"/>
        <pt x="210" y="-194" on="0"/>
        <pt x="195" y="-194" on="1"/>
        <pt x="185" y="-194" on="0"/>
        <pt x="165" y="-179" on="0"/>
        <pt x="165" y="-163" on="1"/>
        <pt x="165" y="-158" on="0"/>
        <pt x="167" y="-152" on="0"/>
        <pt x="172" y="-142" on="1"/>
        <pt x="290" y="108" on="1"/>
        <pt x="134" y="108" on="1"/>
        <pt x="128" y="108" on="0"/>
        <pt x="112" y="109" on="0"/>
        <pt x="97" y="115" on="0"/>
        <pt x="87" y="127" on="0"/>
        <pt x="87" y="139" on="1"/>
        <pt x="87" y="150" on="0"/>
        <pt x="96" y="162" on="0"/>
        <pt x="110" y="168" on="0"/>
        <pt x="124" y="169" on="0"/>
        <pt x="128" y="169" on="1"/>
        <pt x="320" y="169" on="1"/>
        <pt x="397" y="332" on="1"/>
        <pt x="165" y="332" on="1"/>
        <pt x="161" y="332" on="0"/>
        <pt x="147" y="333" on="0"/>
        <pt x="134" y="339" on="0"/>
        <pt x="124" y="351" on="0"/>
        <pt x="124" y="362" on="1"/>
        <pt x="124" y="374" on="0"/>
        <pt x="134" y="386" on="0"/>
        <pt x="149" y="392" on="0"/>
        <pt x="165" y="393" on="0"/>
        <pt x="171" y="393" on="1"/>
        <pt x="427" y="393" on="1"/>
        <pt x="559" y="671" on="1"/>
        <pt x="562" y="677" on="0"/>
        <pt x="575" y="694" on="0"/>
        <pt x="589" y="694" on="1"/>
        <pt x="603" y="694" on="0"/>
        <pt x="620" y="674" on="0"/>
        <pt x="620" y="663" on="1"/>
        <pt x="620" y="659" on="0"/>
        <pt x="616" y="648" on="0"/>
        <pt x="614" y="644" on="1"/>
        <pt x="494" y="393" on="1"/>
        <pt x="683" y="393" on="1"/>
        <pt x="815" y="671" on="1"/>
        <pt x="818" y="677" on="0"/>
        <pt x="831" y="694" on="0"/>
        <pt x="845" y="694" on="1"/>
        <pt x="859" y="694" on="0"/>
        <pt x="876" y="674" on="0"/>
        <pt x="876" y="663" on="1"/>
        <pt x="876" y="659" on="0"/>
        <pt x="872" y="648" on="0"/>
        <pt x="870" y="644" on="1"/>
        <pt x="750" y="393" on="1"/>
        <pt x="907" y="393" on="1"/>
        <pt x="913" y="393" on="0"/>
        <pt x="928" y="392" on="0"/>
        <pt x="943" y="386" on="0"/>
        <pt x="953" y="374" on="0"/>
        <pt x="953" y="362" on="1"/>
        <pt x="953" y="351" on="0"/>
        <pt x="944" y="339" on="0"/>
        <pt x="931" y="333" on="0"/>
        <pt x="918" y="332" on="0"/>
        <pt x="913" y="332" on="1"/>
        <pt x="720" y="332" on="1"/>
        <pt x="643" y="169" on="1"/>
        <pt x="876" y="169" on="1"/>
        <pt x="880" y="169" on="0"/>
        <pt x="894" y="168" on="0"/>
        <pt x="907" y="162" on="0"/>
        <pt x="916" y="150" on="0"/>
        <pt x="916" y="139" on="1"/>
        <pt x="916" y="127" on="0"/>
        <pt x="906" y="115" on="0"/>
        <pt x="891" y="109" on="0"/>
        <pt x="876" y="108" on="0"/>
        <pt x="870" y="108" on="1"/>
        <pt x="614" y="108" on="1"/>
      </contour>
      <contour>
        <pt x="387" y="169" on="1"/>
        <pt x="576" y="169" on="1"/>
        <pt x="653" y="332" on="1"/>
        <pt x="464" y="332" on="1"/>
      </contour>
    </TTGlyph>
</ttFont>
